<svg width="37" height="36" viewBox="0 0 37 36" fill="none" xmlns="http://www.w3.org/2000/svg">
<path d="M36.8906 18.0034C36.8906 18.2751 36.8906 18.5469 36.8702 18.8119C36.8566 19.1447 36.8363 19.4776 36.7955 19.8105C36.7955 19.8309 36.7887 19.8581 36.7887 19.8785C36.7819 19.96 36.7751 20.0347 36.7615 20.1162C36.7547 20.1638 36.748 20.2114 36.748 20.2589C36.7072 20.5918 36.6596 20.9179 36.5985 21.244C36.5985 21.244 36.5917 21.2712 36.5917 21.2848C36.5849 21.3052 36.5849 21.3323 36.5781 21.3527C36.4966 21.7943 36.3947 22.2291 36.2724 22.6571C36.2656 22.7047 36.252 22.7454 36.2384 22.793C36.1977 22.9492 36.1501 23.1191 36.1093 23.2753C36.1093 23.2753 36.1071 23.2799 36.1025 23.2889C36.055 23.4248 36.0142 23.5607 35.9667 23.6965C35.9667 23.7033 35.9599 23.7101 35.9599 23.7169C35.8919 23.9275 35.824 24.1313 35.7425 24.3352C35.7017 24.4574 35.6474 24.5729 35.5998 24.6952C35.5998 24.702 35.593 24.7088 35.593 24.7156C35.5115 24.9262 35.4232 25.13 35.3281 25.3338C35.3145 25.3746 35.2941 25.4154 35.2737 25.4493C35.2058 25.6056 35.1311 25.7618 35.0563 25.9113C34.9952 26.0472 34.9272 26.1763 34.8593 26.3053C34.7642 26.4888 34.6691 26.6722 34.5604 26.8488C34.5468 26.876 34.5332 26.9032 34.5128 26.9304C34.4924 26.9779 34.4653 27.0255 34.4313 27.073C34.4109 27.1138 34.3837 27.1546 34.3566 27.1953C34.3566 27.2089 34.343 27.2225 34.3362 27.2361C34.309 27.2768 34.2818 27.3244 34.2546 27.3652C34.2139 27.4331 34.1731 27.5078 34.1256 27.5758C34.0644 27.6777 33.9965 27.7796 33.9286 27.8815C33.8946 27.9358 33.8606 27.9902 33.8267 28.0377C33.6568 28.2959 33.4734 28.5473 33.2899 28.7986C33.188 28.9345 33.0861 29.0772 32.9706 29.2063C32.9163 29.2742 32.8687 29.3353 32.8144 29.3965C29.5262 33.432 24.5056 36 18.894 36C13.8667 36 9.32164 33.9415 6.06065 30.6194C5.74134 30.3001 5.44242 29.974 5.15029 29.6275C5.1367 29.6071 5.11632 29.5867 5.10273 29.5663C5.00762 29.4576 4.9193 29.3489 4.83098 29.2334C4.69511 29.0704 4.56604 28.9005 4.44376 28.7307C4.2875 28.5269 4.13804 28.3163 3.99537 28.1057C3.87308 27.9222 3.75079 27.7388 3.6353 27.5554C3.58095 27.4739 3.52659 27.3855 3.47904 27.304C3.45186 27.2565 3.42469 27.2089 3.39751 27.1614C3.22767 26.8828 3.07141 26.6043 2.92194 26.3121C2.90836 26.2782 2.88797 26.251 2.87438 26.217C2.60263 25.6871 2.35806 25.1436 2.13387 24.5865C2.00479 24.2536 1.8893 23.9207 1.7806 23.5811C1.63114 23.1395 1.50885 22.6911 1.40016 22.2359C1.36619 22.1272 1.33901 22.0117 1.31863 21.903C1.29825 21.8147 1.27786 21.7264 1.26427 21.638C1.25748 21.6177 1.25749 21.6041 1.25069 21.5837C1.2371 21.5293 1.23031 21.475 1.22351 21.4206C1.06726 20.6326 0.965362 19.8241 0.917806 19.0021V18.9681C0.904218 18.7779 0.897425 18.5877 0.897425 18.3974C0.890632 18.2819 0.890625 18.1664 0.890625 18.051V17.8675C0.890625 17.7045 0.897411 17.5414 0.904205 17.3852C0.917792 16.896 0.958557 16.4205 1.01291 15.9449C1.02649 15.8158 1.04008 15.6867 1.05367 15.5577C1.06726 15.4625 1.07406 15.3742 1.08765 15.2859C1.09444 15.2383 1.10122 15.184 1.11481 15.1364C1.15557 14.8783 1.20314 14.6201 1.25749 14.3687C1.37299 13.8117 1.50886 13.2682 1.6787 12.7247C1.7874 12.3714 1.90289 12.0317 2.03197 11.692C2.16105 11.3387 2.30371 10.9855 2.45318 10.6458C2.45318 10.639 2.45318 10.6322 2.45998 10.6322C2.45998 10.6186 2.46676 10.6118 2.47356 10.6118C2.5347 10.4827 2.58906 10.3469 2.657 10.2246C2.75211 10.0208 2.84723 9.82374 2.95593 9.63352C5.95876 3.9064 11.9712 0 18.894 0C26.7951 0 33.5005 5.08851 35.9191 12.1676C35.9939 12.3714 36.0618 12.5752 36.1229 12.7858C36.1773 12.9624 36.2248 13.1255 36.2656 13.2953C36.2724 13.3157 36.2792 13.3429 36.286 13.3633C36.3267 13.5127 36.3675 13.6554 36.3947 13.8049C36.4219 13.9204 36.449 14.0223 36.4694 14.131C36.5306 14.4027 36.5849 14.6745 36.6325 14.9462C36.6868 15.2587 36.7276 15.5644 36.7615 15.877C36.7751 15.9653 36.7887 16.0536 36.7955 16.1419C36.8159 16.3593 36.8363 16.5767 36.8499 16.8009C36.877 17.2017 36.8906 17.6026 36.8906 18.0034Z" fill="#F1F1F1"/>
<path d="M36.593 21.2839C36.593 21.2839 36.5862 21.3314 36.5794 21.3518C36.0155 21.3518 35.4448 21.345 34.881 21.3518C34.2967 21.8885 33.923 22.6222 33.5562 23.3152C32.3333 23.7296 31.5316 24.1508 30.1797 24.443C30.1661 24.4498 30.1457 24.4362 30.1253 24.443C28.4677 24.7962 26.5926 25.0816 24.8942 25.0612H24.7787C24.1469 25.0476 22.4009 24.9049 21.8845 24.6128C21.5992 24.4498 21.2799 23.716 20.8723 23.4307C19.7785 22.663 18.3994 23.0231 17.6928 24.1033C17.5366 24.0421 17.4958 24.2052 17.4686 24.2188C17.1425 24.3886 16.7077 24.5992 16.3477 24.6672V22.0244C16.4699 21.6779 17.0067 21.3858 17.326 21.2363L36.593 21.2839Z" fill="#97DA40"/>
<path d="M36.2664 13.2944L16.2045 11.9017C15.8648 11.9628 14.9409 12.6354 15.0496 13.0838C14.6419 13.1993 14.54 13.4846 14.377 13.8107L13.6976 13.8719C13.9286 13.4439 13.9762 12.4656 14.3498 12.0104L14.2887 11.9017C12.4204 11.8541 10.5385 11.7794 8.66346 11.8405C7.77348 11.8745 4.6959 11.956 4.02332 12.2346C3.79234 12.1734 4.29509 11.7522 4.33585 11.7318C5.07637 11.3242 9.09824 11.1883 10.1581 11.168C12.2166 11.1272 14.343 11.2359 16.4015 11.3378C18.263 11.4261 20.1652 11.5756 22.0267 11.7318C22.2101 11.7454 22.4547 11.827 22.645 11.8405C23.4058 11.9085 24.126 12.0104 24.8937 12.0104H24.948C25.1315 12.1123 25.4168 12.0647 25.6274 12.0715C25.9535 12.0715 26.2592 12.1055 26.5785 12.1259C26.7552 12.1327 26.959 12.1666 27.1424 12.1802C27.5908 12.2142 28.046 12.2006 28.4944 12.2346C30.5733 12.3976 32.6657 12.5335 34.7378 12.6898C35.193 12.7237 35.655 12.7509 36.1237 12.7849C36.1781 12.9615 36.2256 13.1246 36.2664 13.2944Z" fill="#73D047"/>
<path d="M36.576 21.3517C36.4944 21.7932 36.3925 22.228 36.2702 22.656C36.2634 22.7036 36.2499 22.7444 36.2363 22.7919C36.1955 22.9482 36.1479 23.118 36.1072 23.2743C35.3531 22.7512 34.4903 23.0025 33.5527 23.315C33.9196 22.6221 34.2933 21.8884 34.8775 21.3517C35.4414 21.3449 36.0121 21.3517 36.576 21.3517Z" fill="#97CD3A"/>
<path d="M34.7376 12.6894C32.6655 12.5332 30.573 12.3973 28.4941 12.241L28.5485 12.0168C29.7578 12.0168 30.967 11.9081 32.1763 11.9625C32.9984 11.9965 34.33 11.9013 34.7376 12.6962V12.6894Z" fill="#41A741"/>
<path d="M30.1221 24.4424C30.19 25.0538 29.9998 25.8079 30.1764 26.3582C30.1697 26.8881 30.1968 27.418 30.061 27.9344C29.8639 27.9344 29.6465 27.9887 29.4971 27.9887C28.0092 28.0227 26.4942 27.9547 24.9996 27.9887C24.9453 27.9887 24.8841 27.9887 24.8298 27.9887C24.8162 27.8936 24.8909 27.8664 24.8841 27.7645V25.0674C26.5826 25.0878 28.4576 24.8025 30.1153 24.4492L30.1221 24.4424Z" fill="#FED628"/>
<path d="M24.7778 25.0615C24.9476 25.7681 24.771 26.495 24.7778 27.2016L22.9774 27.847L24.7778 27.9896C24.7778 27.9896 24.737 27.9896 24.7234 27.9896C24.6691 27.9896 24.6079 27.9896 24.5536 27.9896C24.2954 27.9896 24.0305 27.9829 23.7655 27.9896C23.4258 27.9964 23.0929 28.0236 22.7532 28.044C22.4543 28.0644 22.0807 28.0032 21.7953 28.044C21.7953 28.0236 21.7953 28.0032 21.7953 27.9896C21.9991 26.7464 21.8904 24.321 20.5317 23.7164C18.9963 23.0302 17.7327 24.4026 17.5221 25.8564C17.4949 26.0602 17.4677 26.3795 17.4677 26.5901C17.4473 26.9706 17.5696 27.8198 17.128 27.9964C17.1484 27.813 16.9989 27.9625 16.9582 27.7994C16.9174 27.6364 17.0261 26.033 17.0737 25.7749C17.162 25.245 17.3998 24.5656 17.6919 24.1172C18.3917 23.0302 19.7776 22.6769 20.8714 23.4446C21.2722 23.73 21.5983 24.4637 21.8836 24.6267C22.4 24.9189 24.146 25.0615 24.7778 25.0751V25.0615Z" fill="#FEE431"/>
<path d="M17.4664 24.2188C17.5004 24.3818 17.3645 24.6468 17.2965 24.8098C17.181 25.1019 16.9365 25.7202 16.9025 25.9919C16.8617 26.318 17.0995 28.329 16.3658 27.9349C16.3115 27.8942 16.3522 27.8194 16.3386 27.7651C16.2095 27.2555 16.3386 25.3397 16.3386 24.6739C16.6987 24.606 17.1403 24.3954 17.4664 24.2255V24.2188Z" fill="#FEE733"/>
<path d="M17.6906 24.1024C17.3985 24.5508 17.1607 25.2302 17.0724 25.7601C17.0316 26.0183 16.9161 27.6216 16.9569 27.7847C16.9976 27.9477 17.1471 27.7982 17.1267 27.9817C16.8617 28.0904 16.5628 28.0224 16.2843 28.036C15.0818 28.0904 13.8793 28.036 12.6836 28.036V25.502H12.738L12.7923 27.6963L16.3386 27.7507C16.3522 27.805 16.3115 27.8798 16.3658 27.9205C17.0995 28.3214 16.8618 26.3036 16.9025 25.9775C16.9365 25.7058 17.1811 25.0875 17.2965 24.7954C17.3645 24.6324 17.5004 24.3674 17.4664 24.2044C17.4936 24.1908 17.5343 24.0277 17.6906 24.0889V24.1024Z" fill="#E0D435"/>
<path d="M16.3373 24.6678C16.3373 25.3403 16.2083 27.2562 16.3373 27.7589L12.791 27.7046H16.1947C16.3374 27.6298 16.2762 25.1433 16.2762 24.7765C16.283 24.0903 16.1539 22.65 16.2762 22.0794C16.2898 22.0046 16.3306 22.025 16.3306 22.025V24.6678H16.3373Z" fill="#0C151E"/>
<path d="M24.893 25.0615V27.7586C24.893 27.6499 24.7843 27.2966 24.7775 27.1947C24.7707 26.495 24.9474 25.7612 24.7775 25.0547C24.8115 25.0547 24.8523 25.0547 24.893 25.0547V25.0615Z" fill="#B5AE25"/>
<path d="M13.9745 14.6523C14.0153 14.829 13.7163 14.9988 13.696 15.0736C13.4989 15.719 13.3019 17.6484 13.1864 18.45C12.9554 20.0466 12.7584 21.7042 12.6769 23.3144C12.6769 23.3347 12.6769 23.3551 12.6769 23.3687C12.541 23.3891 12.3576 23.3483 12.2285 23.3687C12.3848 21.4053 12.5546 19.4012 12.9011 17.4649C12.969 17.1049 13.0981 16.6565 13.1796 16.2828C13.234 16.0383 13.2204 15.685 13.2951 15.4404C13.4786 14.795 13.4174 14.7882 13.9677 14.6523H13.9745Z" fill="#A9EA3E"/>
<path d="M36.4685 14.1297L16.7056 13.0223C16.1689 13.0767 15.571 12.934 15.0479 13.0835C14.9392 12.6351 15.8632 11.9625 16.2028 11.9014L36.2647 13.2941C36.2647 13.2941 36.2783 13.3416 36.2851 13.362C36.3259 13.5115 36.3666 13.6542 36.3938 13.8036C36.421 13.9191 36.4482 14.021 36.4685 14.1297Z" fill="#52B744"/>
<path d="M28.3234 11.7862C28.1468 12.1259 28.0381 11.9017 28.0109 11.9017C26.2241 11.8881 24.5461 11.6911 22.8952 11.6231C22.6167 11.6096 22.2498 11.5756 22.0256 11.7386C20.1641 11.5824 18.2619 11.4397 16.4004 11.3446L17.8339 11.0661L19.5527 10.2236C21.224 10.2712 26.5706 10.4682 27.7935 11.2359C28.0517 11.3989 28.1807 11.6707 28.3302 11.7998L28.3234 11.7862Z" fill="#FEE430"/>
<path d="M19.5442 10.2105L17.8253 11.053L16.3919 11.3315C14.3334 11.2296 12.2069 11.1209 10.1484 11.1617C10.3862 10.951 10.7191 10.7133 11.018 10.5978C12.4991 10.0475 17.737 10.1494 19.5374 10.2037L19.5442 10.2105Z" fill="#FEF339"/>
<path d="M28.3232 11.7867C28.4115 11.8682 28.4726 11.9905 28.5474 12.0109L28.493 12.2351C28.0447 12.2011 27.5895 12.2079 27.1411 12.1808L26.5772 12.1264C26.2511 12.106 25.9522 12.0721 25.6193 12.0721C25.4426 11.9701 25.1505 12.0177 24.9467 12.0177C24.9263 12.0177 24.9059 12.0177 24.8923 12.0177L22.6436 11.8479C22.4534 11.8343 22.2156 11.7527 22.0254 11.7324C22.2496 11.5693 22.6232 11.6101 22.895 11.6169C24.5459 11.6916 26.2239 11.8818 28.0107 11.8954C28.0311 11.8954 28.1398 12.1196 28.3232 11.7799V11.7867Z" fill="#FEC925"/>
<path d="M24.8933 12.0097C24.1256 12.0097 23.4054 11.9078 22.6445 11.8398L24.8933 12.0097Z" fill="#74B534"/>
<path d="M25.6179 12.0713C25.4141 12.0713 25.1219 12.1188 24.9453 12.0169C25.1491 12.0169 25.4412 11.9694 25.6179 12.0713Z" fill="#84B637"/>
<path d="M27.142 12.1803C26.9586 12.1667 26.7548 12.1328 26.5781 12.126L27.142 12.1803Z" fill="#92B828"/>
<path d="M29.5053 27.9903C29.383 28.5881 28.9821 28.9618 28.5473 29.3422H28.493C27.8272 29.5868 26.6723 29.6208 26.0201 29.3422C25.5785 29.152 25.0146 28.493 25.0078 27.9903C26.5024 27.9563 28.0174 28.0242 29.5053 27.9903Z" fill="#1A2446"/>
<path d="M28.5498 29.3952C28.509 29.402 28.4886 29.3816 28.4954 29.3408H28.5498V29.3952Z" fill="#F4FAFB"/>
<path d="M12.7998 25.5098C12.7998 25.5098 12.759 25.5098 12.7454 25.5098H12.6911C12.6911 25.5098 12.6367 25.5234 12.6367 25.4555C12.6367 25.2109 12.6367 24.9663 12.6367 24.7217C12.6435 24.2869 12.6707 23.8114 12.6911 23.3698C12.6911 23.3494 12.6911 23.329 12.6911 23.3154H12.7454L12.7998 25.5098Z" fill="#417644"/>
<path d="M16.2856 22.0791C16.1634 22.6498 16.2924 24.0968 16.2856 24.7762C15.1851 25.1295 13.9554 25.4488 12.8005 25.5099L12.7461 23.3156C13.473 23.3291 14.166 23.1389 14.8522 22.9215L16.2856 22.0791Z" fill="#53B844"/>
<path d="M14.1447 14.5983C14.0971 14.347 14.2738 14.0752 14.3689 13.8646C14.7833 13.7627 15.6937 13.6608 15.4355 14.3402C15.354 14.5644 14.4029 14.5508 14.1447 14.5916V14.5983Z" fill="#437073"/>
<path d="M36.8897 18.003C36.8897 18.2748 36.8897 18.5465 36.8693 18.8115C36.8557 19.1444 36.8353 19.4773 36.7946 19.8102C36.7946 19.8306 36.7878 19.8577 36.7878 19.8781C36.781 19.9596 36.7742 20.0344 36.7606 20.1159C36.7538 20.1634 36.747 20.211 36.747 20.2586C36.7062 20.5915 36.6587 20.9176 36.5975 21.2436C36.5975 21.2436 36.5907 21.2708 36.5907 21.2844L17.3237 21.2369C17.0044 21.3863 16.4677 21.6784 16.3454 22.0249C16.3386 22.0317 16.3047 22.0045 16.2843 22.0793L14.8508 22.9217C14.1646 23.1391 13.4717 23.3361 12.7447 23.3157H12.6836C12.7651 21.7056 12.9621 20.048 13.1931 18.4514C13.3086 17.6566 13.5056 15.7271 13.6959 15.0817C13.723 15.007 14.022 14.8372 13.9812 14.6537C14.0355 14.6401 14.0559 14.613 14.151 14.5994C14.4092 14.5586 15.3603 14.5722 15.4418 14.348C15.7 13.6686 14.7897 13.7637 14.3752 13.8724C14.382 13.8521 14.3685 13.8249 14.3752 13.8113C14.5383 13.4852 14.6402 13.1999 15.0478 13.0844C15.5709 12.9349 16.1688 13.0776 16.7055 13.0232L36.4685 14.1306C36.5296 14.4024 36.584 14.6741 36.6315 14.9459C36.6859 15.2584 36.7266 15.5641 36.7606 15.8766C36.7742 15.9649 36.7878 16.0532 36.7946 16.1416C36.815 16.359 36.8353 16.5764 36.8489 16.8005C36.8761 17.2014 36.8897 17.6022 36.8897 18.003Z" fill="#1E284A"/>
<path d="M27.3657 20.8423L28.7176 18.1724C28.5274 18.1316 28.3168 18.0908 28.1538 18.2267C28.0654 18.3014 27.1211 20.1154 27.0871 20.2241C26.8969 19.7621 27.1347 18.4441 26.7475 18.1452C26.4621 17.9278 25.3479 17.9753 25.0015 18.2607C24.9539 16.9563 24.8792 15.5772 24.9199 14.3203L29.9541 14.6328L30.0696 20.8219C29.9541 20.9782 27.6714 20.917 27.3725 20.8491L27.3657 20.8423Z" fill="url(#paint0_linear_8255_2012)"/>
<path d="M22.9781 14.2587L23.0324 18.0292C22.7267 18.0292 21.1845 18.0836 21.035 18.1991C20.6954 18.7494 20.7157 19.4423 20.5255 20.0538C20.4712 19.5375 20.7497 18.0972 20.1043 17.9749C19.948 17.9477 18.9358 17.9477 18.7795 17.9749C18.0458 18.1176 18.0798 19.9451 17.8488 20.5361C17.8284 20.5837 17.6993 20.6992 17.6246 20.6788L17.4004 14.1228C17.4819 13.9054 18.2021 13.9802 18.4398 13.9802C19.8869 14.0006 21.5106 14.1636 22.9645 14.2587H22.9781Z" fill="#34606F"/>
<path d="M30.9111 20.8422L34.2264 14.823C34.3148 14.8297 34.8243 14.7278 34.899 14.9045L35.0689 20.8694C33.6897 20.8898 32.2834 20.9577 30.9043 20.8422H30.9111Z" fill="#3A6A78"/>
<path d="M36.8886 18.0034C36.8886 18.2752 36.8886 18.5469 36.8682 18.8119C36.8546 19.1448 36.8343 19.4777 36.7935 19.8106C36.7935 19.8309 36.7867 19.8581 36.7867 19.8785C36.7799 19.96 36.7731 20.0348 36.7595 20.1163C36.7527 20.1638 36.7459 20.2114 36.7459 20.2589C36.5897 20.2046 36.4674 20.0823 36.4198 19.8581C36.2636 19.0836 36.1345 16.3865 36.1413 15.5305C36.1413 15.3267 36.1005 15.1161 36.2228 14.9395C36.3043 14.9462 36.4538 14.953 36.6304 14.9462C36.6848 15.2588 36.7255 15.5645 36.7595 15.877C36.7731 15.9653 36.7867 16.0536 36.7935 16.1419C36.8139 16.3593 36.8342 16.5767 36.8478 16.8009C36.875 17.2018 36.8886 17.6026 36.8886 18.0034Z" fill="#2D4F63"/>
<path d="M13.3556 20.1701C13.6341 19.844 13.6749 18.2475 13.9738 18.0301C14.1572 17.901 14.429 18.0301 14.6192 17.9757C15.2918 17.7991 14.8638 15.8153 14.9861 15.2446C15.054 15.0884 15.9644 15.2107 15.9983 15.2446C16.2157 15.4688 15.9508 20.7611 16.0527 21.4881L13.2129 21.5696C13.2401 21.1008 13.2944 20.6321 13.3556 20.1633V20.1701Z" fill="#263D57"/>
<path d="M23.0298 18.0299C23.1724 18.0299 23.4578 18.0028 23.5665 18.0299C24.1643 18.1998 23.9265 20.3126 23.9877 20.8425C22.8056 20.9105 21.4672 20.8561 20.2783 20.8425C20.5229 20.17 20.1832 19.3479 20.3938 18.621L20.1152 17.9756C20.7606 18.0979 20.4821 19.5381 20.5364 20.0545C20.7199 19.443 20.7063 18.7501 21.046 18.1998C21.1954 18.0843 22.7308 18.0231 23.0433 18.0299H23.0298Z" fill="#253954"/>
<path d="M23.9888 20.8419C23.9277 20.312 24.1655 18.1992 23.5676 18.0293C23.4657 18.0021 23.1736 18.0293 23.0309 18.0293L22.9766 14.2588C23.2008 14.2724 24.4168 14.2248 24.4984 14.4015C24.4168 15.1624 24.8584 20.6721 24.5799 20.8419C24.3829 20.8487 24.1858 20.8283 23.9888 20.8419Z" fill="#396976"/>
<path d="M34.226 14.8235L30.9107 20.8428C30.8427 20.8428 30.5778 21.0126 30.4623 20.8156C30.4487 20.2857 30.4827 19.7422 30.4623 19.2123L32.9964 14.7148C33.404 14.742 33.8252 14.7896 34.2328 14.8303L34.226 14.8235Z" fill="#7EABAF"/>
<path d="M20.1106 17.9754L20.3891 18.6208C20.1853 19.3478 20.525 20.1698 20.2736 20.8424C19.7437 20.8424 18.2219 20.9443 17.8279 20.8424C17.7735 20.8288 17.658 20.7405 17.6309 20.6725C17.7056 20.6929 17.8347 20.5842 17.8551 20.5299C18.0793 19.9456 18.0521 18.1181 18.7858 17.9686C18.9353 17.9414 19.9543 17.9414 20.1106 17.9686V17.9754Z" fill="#2D4C61"/>
<path d="M32.991 14.7143L30.457 19.2117C30.389 17.6832 30.3279 16.1546 30.2871 14.626C31.1839 14.6328 32.0942 14.6532 32.9842 14.7075L32.991 14.7143Z" fill="#376573"/>
<path d="M26.746 18.1445L26.7732 20.8416L25.0544 20.8144C25.0544 19.9584 25.034 19.1092 25 18.2532C25.3465 17.9678 26.4607 17.9203 26.746 18.1377V18.1445Z" fill="#28405A"/>
<path d="M27.3641 20.8419C27.2826 20.8215 27.072 20.8759 27.0244 20.8147C27.0108 20.6109 27.0244 20.4207 27.0788 20.2237C27.1127 20.115 28.0571 18.3011 28.1454 18.2263C28.3084 18.0905 28.519 18.1312 28.7093 18.172L27.3573 20.8419H27.3641Z" fill="#5A8B94"/>
<path d="M13.9757 18.0297C13.6767 18.2471 13.636 19.8368 13.3574 20.1697C13.4593 19.3748 13.6699 18.5868 13.6971 17.7783L13.9757 18.0297Z" fill="#4A7B87"/>
<path d="M24.776 27.2012C24.776 27.2963 24.8847 27.6564 24.8915 27.7651C24.8983 27.8738 24.8235 27.8941 24.8371 27.9892C24.8167 27.9892 24.7963 27.9892 24.7828 27.9892L22.9824 27.8466L24.7828 27.2012H24.776Z" fill="#FEDC27"/>
<path d="M16.2856 24.7822C16.2856 25.1491 16.3468 27.6288 16.2041 27.7103H12.8005L12.7461 25.516C12.7461 25.516 12.7869 25.516 12.8005 25.516C13.9554 25.4548 15.1919 25.1355 16.2856 24.7822Z" fill="#FEE632"/>
<path d="M36.108 23.2748C36.108 23.2748 36.1012 23.2816 36.1012 23.2884C36.0536 23.4242 36.0129 23.5601 35.9653 23.696C35.7343 23.5805 35.4694 23.5397 35.1569 23.6009C34.2261 23.7843 33.7981 25.3469 33.6691 26.1281C33.6079 26.4814 33.6691 26.9638 33.6079 27.3103C33.4788 28.1323 32.5005 27.9013 31.6989 27.9285C31.1961 27.9489 30.5915 27.9149 30.0684 27.9285C30.1974 27.4122 30.1703 26.8823 30.1771 26.3591C30.1906 25.7205 30.1703 25.0819 30.1771 24.4433C31.529 24.1512 32.3307 23.73 33.5535 23.3155C34.4911 23.003 35.3539 22.7517 36.108 23.2748Z" fill="#FED829"/>
<path d="M30.1782 26.3592C29.9948 25.8089 30.1918 25.0548 30.1238 24.4434C30.1442 24.4434 30.1646 24.4434 30.1782 24.4434C30.1714 25.082 30.1918 25.7206 30.1782 26.3592Z" fill="#C2AB2A"/>
<path d="M31.6655 26.4134C31.9304 26.3998 31.9916 26.8753 31.7199 26.9229C31.319 26.9908 31.3394 26.4338 31.6655 26.4134Z" fill="#853118"/>
<path d="M31.6655 26.5225C31.7335 26.6244 31.6859 26.7534 31.6112 26.638C31.5704 26.5768 31.6316 26.57 31.6655 26.5225Z" fill="#FE932B"/>
<path d="M12.9093 17.4657C12.5561 19.4087 12.3862 21.406 12.2368 23.3694C11.8563 23.4306 11.3672 23.6751 10.9731 23.7635C7.78686 24.4564 4.0571 24.47 0.986328 23.3151C1.06106 22.561 1.15617 21.8137 1.26487 21.0664C1.42792 21.2362 1.16297 21.7389 1.26487 21.8816C1.31243 21.9427 1.86953 21.9563 1.99861 21.9631C2.66439 22.0039 3.22147 21.8612 3.85328 21.8476C3.87367 21.8476 3.89406 21.8476 3.90765 21.8476C4.85877 21.8408 8.06541 21.705 8.77196 21.8476C8.87387 21.868 9.23394 22.3164 9.39019 22.3572C9.36302 22.2213 8.8399 21.7525 8.77196 21.7389C8.41869 21.671 6.32621 21.9224 6.12919 21.7933C5.63325 21.4808 7.40641 21.4536 7.50832 21.4536C7.68495 21.4536 8.7312 21.4808 8.8331 21.5079C8.89425 21.5215 9.21355 21.8748 9.34263 21.902C9.97445 22.0514 11.1769 21.7933 11.8767 21.902C12.1145 21.8001 12.3794 17.3434 12.7463 16.8135V17.5472L12.9161 17.4657H12.9093Z" fill="#202B4C"/>
<path d="M13.6959 13.871C13.5533 14.136 13.1184 14.3126 12.9622 14.7678H10.3194C10.8969 13.9662 11.5627 13.2188 12.2353 12.4919C12.2149 12.356 9.76234 12.4036 9.50418 12.4104C8.54627 12.424 5.02032 12.4104 4.32736 12.6346C3.77707 12.8112 3.28792 14.3534 3.11808 14.8833C3.0909 14.958 3.06371 14.9377 3.06371 14.9377C2.92784 14.9377 2.82593 14.8969 2.72403 15.0192C2.63571 15.1279 2.24168 16.6225 2.16016 16.901C2.22809 16.3304 2.39793 15.7597 2.55418 15.2162C2.56777 15.1686 2.59496 15.1075 2.60855 15.0464C2.66969 14.8358 3.04333 14.3058 2.72403 14.2039C3.28791 14.0137 3.417 12.4851 4.01485 12.2338C4.68743 11.9552 7.76499 11.8669 8.65496 11.8397C10.5232 11.7786 12.4119 11.8465 14.2802 11.8941L14.3345 12.0096C13.9677 12.4579 13.9133 13.443 13.6891 13.8642L13.6959 13.871Z" fill="#212F4F"/>
<path d="M12.238 23.3766C12.3671 23.3562 12.5505 23.397 12.6864 23.3766C12.666 23.8182 12.6389 24.287 12.6321 24.7286C12.3671 24.715 12.1021 24.7557 11.844 24.7829L0.933247 24.5587H0.878906C0.906081 24.1375 0.946832 23.7435 0.994388 23.3223C4.05836 24.484 7.79492 24.4636 10.9812 23.7707C11.382 23.6823 11.8712 23.4378 12.2448 23.3766H12.238Z" fill="#84D94A"/>
<path d="M3.06269 14.9373C2.39011 17.1317 2.16593 19.6793 1.99609 21.9688C1.8738 21.962 1.30991 21.9484 1.26235 21.8873C1.16045 21.7446 1.4254 21.2419 1.26235 21.0721C1.47975 19.6522 1.7583 18.2866 2.15913 16.9075C2.24065 16.629 2.63468 15.1343 2.723 15.0256C2.82491 14.8966 2.92681 14.9441 3.06269 14.9441V14.9373Z" fill="#3D6478"/>
<path d="M2.73335 14.2041C3.05945 14.306 2.6858 14.8359 2.61787 15.0465C2.61787 14.999 2.60427 14.9922 2.5635 14.9922C2.44801 14.9786 2.29176 14.9922 2.16948 14.9922C1.7143 15.0058 0.939805 14.9786 0.763168 15.5017C0.654468 15.5017 0.471047 15.6512 0.369141 15.5017C0.430284 15.3251 0.409903 15.0126 0.538984 14.802C0.885464 14.2313 1.78223 14.3672 2.33932 14.2652C2.44123 14.2449 2.68579 14.2245 2.73335 14.2109V14.2041Z" fill="#3E6B70"/>
<path d="M0.0273405 17.9204C-0.0677718 17.5875 0.108865 16.0997 0.197184 15.7261L0.706714 15.6445C0.788239 15.76 0.869749 18.5658 0.0341201 17.9204H0.0273405Z" fill="#243151"/>
<path d="M0.761058 15.502C1.04639 15.5155 1.1551 15.5563 1.20945 15.8416C1.257 16.0658 1.12792 17.7031 1.0396 17.8933C0.896935 18.1991 0.12925 18.2874 0.0273438 17.9205C0.862973 18.5591 0.788235 15.7601 0.699917 15.6446L0.190387 15.7261C0.237943 15.5359 0.353436 15.5155 0.36023 15.502C0.462136 15.6514 0.645558 15.502 0.754258 15.502H0.761058Z" fill="#182243"/>
<path d="M2.61491 15.0475C2.60132 15.1019 2.57413 15.1698 2.56055 15.2174V14.9932C2.60131 14.9932 2.6217 15 2.61491 15.0475Z" fill="#F4FAF8"/>
<path d="M10.2652 14.8222C8.89284 16.772 8.22026 19.1973 7.50692 21.4596C7.41181 21.4596 5.63185 21.4868 6.12779 21.7993C6.32481 21.9216 8.41729 21.677 8.77057 21.745C8.8385 21.7586 9.36162 22.2273 9.3888 22.3632C9.23254 22.3292 8.87247 21.8809 8.77057 21.8537C8.06402 21.711 4.85737 21.8469 3.90625 21.8537L4.24594 21.6567V14.9377C6.25009 14.9105 8.25423 14.7474 10.2652 14.8222Z" fill="#8CBBBE"/>
<path d="M12.9621 14.7685C12.9621 14.7685 12.9214 15.2577 12.9078 15.3867C12.8535 15.7468 12.5477 16.5689 13.1864 16.2835C13.1048 16.6572 12.969 17.1056 12.9078 17.4656L12.738 17.5472V16.8134C12.3711 17.3433 12.1061 21.8 11.8684 21.9019C11.1754 21.7932 9.96611 22.0514 9.3343 21.9019C9.21201 21.8748 8.8927 21.5215 8.82477 21.5079C8.72965 21.4807 7.68343 21.4535 7.5 21.4535C8.21334 19.1912 8.88592 16.7659 10.2583 14.8161C10.299 14.7617 10.3126 14.7617 10.3126 14.7617H12.9554L12.9621 14.7685Z" fill="#3E6F7C"/>
<path d="M3.85077 14.8828V21.86C3.21895 21.8668 2.66188 22.0162 1.99609 21.9755C2.17273 19.686 2.39011 17.1383 3.06269 14.944C3.06269 14.944 3.09667 14.9643 3.11706 14.8896C3.35484 14.9779 3.6062 14.8896 3.85077 14.8896V14.8828Z" fill="#97C6C5"/>
<path d="M4.24561 14.9381V21.6571L3.90592 21.8541C3.90592 21.8541 3.86515 21.8541 3.85156 21.8541V14.877C4.00782 14.877 4.17767 14.9313 4.24561 14.9313V14.9381Z" fill="#7BA7AE"/>
<path d="M14.3689 13.8096C14.3689 13.8096 14.3756 13.8503 14.3689 13.8639C14.2737 14.0745 14.0971 14.3463 14.1447 14.5976C14.0563 14.6112 14.0292 14.6384 13.9748 14.652C13.4177 14.7879 13.4789 14.7947 13.3022 15.4401L12.9082 15.3857C12.9286 15.2566 12.9558 14.7947 12.9625 14.7675C13.1188 14.3123 13.5468 14.1357 13.6963 13.8707L14.3689 13.8164V13.8096Z" fill="#6C9F8D"/>
<path d="M11.5012 28.0439C11.542 28.4584 11.0257 29.0494 10.7132 29.2804C10.6928 29.294 10.6248 29.3212 10.5977 29.3348C9.69411 29.9122 7.95491 29.9054 7.05134 29.3348C6.58258 29.0426 6.24967 28.5467 6.03906 28.0439C7.85978 28.0575 9.6805 28.0439 11.4944 28.0439H11.5012Z" fill="#1A2446"/>
<path d="M10.7151 29.3948C10.6607 29.3948 10.5996 29.4152 10.5996 29.3405C10.6268 29.3269 10.6879 29.2997 10.7151 29.2861V29.4016V29.3948Z" fill="#FDFFFF"/>
<path d="M10.3186 14.7686C10.3186 14.7686 10.2982 14.7686 10.2642 14.8229C8.25324 14.7482 6.2491 14.9112 4.24495 14.9384C4.17701 14.9384 4.00716 14.8773 3.8509 14.884C3.60633 14.884 3.35497 14.9724 3.11719 14.884C3.28703 14.3541 3.77618 12.8052 4.32647 12.6353C5.01943 12.4179 8.54538 12.4247 9.50329 12.4111C9.75466 12.4111 12.214 12.3568 12.2344 12.4927C11.5686 13.2196 10.896 13.9669 10.3186 14.7686Z" fill="#4C7988"/>
<path d="M7.17592 26.6909C7.25065 26.8472 7.2914 27.6964 7.14874 27.7575C6.83622 27.9002 5.1378 27.6556 4.67583 27.7575C4.53316 27.6692 4.62146 27.5197 4.59428 27.4178C4.59428 27.4042 4.59428 27.3771 4.59428 27.3635C5.02908 27.282 6.79546 27.4926 7.06721 27.3091C7.22347 27.2072 7.24386 26.8132 7.09439 26.7453C6.78188 26.6094 5.13101 26.8472 4.67583 26.7453L4.70299 27.3091H4.58751C4.56712 27.1461 4.43804 26.7249 4.66903 26.6366C4.78452 26.589 6.80225 26.7045 7.16912 26.6909H7.17592Z" fill="#7E9E4E"/>
<path d="M12.6838 25.5095V28.0435C12.2897 28.0435 11.8957 28.0435 11.5017 28.0435C9.68096 28.0435 7.86024 28.0571 6.04631 28.0435C4.97969 28.0435 2.07198 28.2406 1.23635 28.0435C1.1888 28.0299 0.971384 27.8329 0.923828 27.765C1.02573 27.6427 1.01214 27.6495 1.17519 27.6495C1.80701 27.6699 2.45242 27.8193 3.09103 27.8193C3.38996 27.6903 2.99591 27.6835 3.06385 27.3981C3.13858 27.0652 4.23238 26.9973 4.38864 27.0856C4.44299 27.1196 4.38864 27.4457 4.58566 27.4253C4.61963 27.5272 4.52451 27.6767 4.66718 27.765C5.13595 27.6631 6.82758 27.9077 7.14009 27.765C7.28276 27.7038 7.242 26.8546 7.16727 26.6984C8.21351 26.6712 10.5981 26.7391 11.4677 26.5285C11.9365 26.4198 12.4256 26.2092 12.3373 25.6318C12.4324 25.5774 12.5275 25.5366 12.6159 25.4619C12.6159 25.5366 12.6702 25.5163 12.6702 25.5163L12.6838 25.5095Z" fill="#F4E730"/>
<path d="M10.015 26.915C10.4022 26.7383 10.5109 27.2818 10.2392 27.3634C9.95382 27.4517 9.80435 27.0101 10.015 26.915Z" fill="#C3BD61"/>
<path d="M11.8424 24.7817C10.4972 24.9515 9.97411 24.9719 9.36947 26.3035C9.09772 26.3171 8.792 26.2423 8.58139 26.2491C8.65612 26.1268 9.14526 25.3727 8.94824 25.2912C6.95088 25.4271 4.92636 25.2844 2.95618 25.3184L3.29587 26.2491C3.03771 26.2288 2.82709 26.2288 2.56213 26.1948C2.31756 25.3659 1.93711 24.4963 0.931641 24.5643L11.8424 24.7885V24.7817Z" fill="#ADE549"/>
<path d="M8.58029 26.2431C6.82751 26.3042 5.04075 26.3857 3.29476 26.2431L2.95508 25.3123C4.92526 25.2716 6.94978 25.421 8.94714 25.2852C9.14415 25.3599 8.65502 26.1208 8.58029 26.2431Z" fill="#2B405F"/>
<path d="M4.69464 27.3096H7.05885C6.7871 27.493 5.02074 27.2892 4.58594 27.3639C4.58594 27.3435 4.58594 27.3232 4.58594 27.3096H4.70142H4.69464Z" fill="#2C5F36"/>
<path d="M2.55968 26.1889C1.989 26.1074 1.33682 25.9715 0.874844 25.625C0.874844 25.5707 0.874844 25.5231 0.874844 25.4552C1.37079 25.7609 1.44551 24.7146 0.929185 24.9456C0.929185 24.9252 0.861256 24.6943 0.874844 24.5516H0.929185C1.93466 24.4837 2.3151 25.3533 2.55968 26.1821V26.1889Z" fill="#3C6182"/>
<path d="M0.869141 25.4545C0.869141 25.3118 0.916688 25.1216 0.923481 24.9449C1.43981 24.7139 1.36508 25.7534 0.869141 25.4545Z" fill="#F4FAF8"/>
<path d="M1.63179 24.9527C2.06659 24.9119 2.23643 25.7068 1.80163 25.7951C1.21737 25.9106 1.20379 24.9934 1.63179 24.9527Z" fill="#FEFEFF"/>
<path d="M13.3018 15.4411C13.2339 15.6856 13.2407 16.0389 13.1863 16.2835C12.5477 16.562 12.8534 15.74 12.9078 15.3867L13.3018 15.4411Z" fill="#4D807F"/>
<path d="M12.6301 24.7208C12.6301 24.9654 12.6301 25.21 12.6301 25.4546C12.5418 25.5225 12.4467 25.5701 12.3516 25.6244C11.4684 26.1407 10.3746 26.2426 9.36914 26.297C9.97378 24.9654 10.5037 24.945 11.842 24.7752C12.1002 24.7412 12.3652 24.7073 12.6301 24.7208Z" fill="#3A5E80"/>
<path d="M11.3051 25.0062C11.5904 24.9179 12.3513 24.979 12.2358 25.4274C12.1815 25.6448 10.2113 26.4465 10.4899 25.4274C10.6053 25.013 11.0469 25.2915 11.0809 25.2847C11.1013 25.2847 11.21 25.0334 11.3051 25.0062Z" fill="#FEFEFE"/>
<path d="M10.2661 25.9024C10.1574 25.9024 10.0759 25.8957 9.98754 25.9568C9.89922 25.7258 10.1098 25.5492 10.3001 25.4473C10.5243 25.6171 10.2321 25.6918 10.2729 25.8957L10.2661 25.9024Z" fill="#63839B"/>
<path d="M10.2668 25.9035C10.3212 25.9035 10.6677 25.9239 10.5794 26.0734C10.4027 25.9714 10.0834 26.2092 9.98828 25.9579C10.0834 25.8899 10.1581 25.8967 10.2668 25.9035Z" fill="#7594AA"/>
<path d="M7.05936 27.3092H4.69515L4.66797 26.7453C5.12315 26.8472 6.77402 26.6094 7.08654 26.7453C7.2292 26.8064 7.21561 27.2005 7.05936 27.3092Z" fill="#FAEB42"/>
<path d="M2.56152 26.1888C2.81968 26.2296 3.03709 26.2228 3.29525 26.2432C5.04803 26.3859 6.82799 26.3043 8.58078 26.2432C8.79138 26.2364 9.0971 26.3179 9.36885 26.2975C10.3743 26.2364 11.4681 26.1345 12.3513 25.625C12.4328 26.2092 11.9437 26.413 11.4817 26.5217C10.6121 26.7323 8.2275 26.6576 7.18127 26.6916C6.80761 26.7052 4.79665 26.5897 4.68116 26.6372C4.45017 26.7323 4.57926 27.1468 4.59964 27.3098C4.59964 27.3302 4.59964 27.3506 4.59964 27.3642C4.59964 27.3777 4.59964 27.4049 4.59964 27.4185C4.40262 27.4389 4.45696 27.1128 4.40261 27.0788C4.24636 26.9905 3.15937 27.0584 3.07785 27.3913C3.0167 27.6767 3.40395 27.6835 3.10503 27.8125C2.46642 27.8125 1.8278 27.6631 1.18919 27.6427C1.02614 27.6427 1.03294 27.6291 0.937825 27.7582C0.557376 27.14 0.863082 26.2364 0.883463 25.6182C1.35223 25.9646 1.99764 26.0937 2.56832 26.182L2.56152 26.1888Z" fill="#FCF33A"/>
<path d="M1.57727 26.7456C1.8694 26.6708 1.98489 27.194 1.69276 27.2551C1.40063 27.3162 1.35987 26.7999 1.57727 26.7456Z" fill="#44817B"/>
<path d="M1.63139 26.8614C1.77406 26.8206 1.83519 27.106 1.68573 27.1399C1.44116 27.2011 1.59063 26.8682 1.63139 26.8614Z" fill="#9ADEEF"/>
<path d="M21.7958 27.9899L21.4561 28.1054C21.395 28.1529 21.3814 28.3907 21.3406 28.4451C21.1232 28.7712 20.9806 29.0837 20.668 29.3418C19.9139 29.9736 17.903 29.9261 17.1217 29.3418C17.047 29.2875 16.6122 28.8051 16.5578 28.7236C16.4559 28.5673 16.3744 28.2277 16.2793 28.051C16.5578 28.0374 16.8568 28.0986 17.1217 27.9967C17.5633 27.82 17.441 26.9708 17.4614 26.5904C17.4478 28.2412 18.6707 30.721 20.5254 29.3486C22.645 27.7793 21.2455 22.915 18.6095 24.396C18.0593 24.7085 17.8419 25.3675 17.5158 25.8566C17.7264 24.4096 18.99 23.0304 20.5254 23.7166C21.8909 24.328 21.9928 26.7466 21.789 27.9899H21.7958Z" fill="#182143"/>
<path d="M21.7948 27.9892C21.7948 27.9892 21.7948 28.03 21.7948 28.0436C21.7404 28.0504 21.4687 28.0911 21.4551 28.0979L21.7948 27.9824V27.9892Z" fill="#F8FDFD"/>
<path d="M17.4669 26.5831C17.4669 26.3793 17.4941 26.0532 17.5213 25.8494C17.8474 25.3603 18.0716 24.6945 18.6151 24.3888C21.251 22.9009 22.6437 27.7652 20.5309 29.3414C18.6762 30.7205 17.4533 28.234 17.4669 26.5831Z" fill="#263554"/>
<path d="M18.9843 27.4256C18.9843 27.4256 18.93 27.3169 18.93 27.3101C18.7941 26.8074 19.1338 25.7679 19.7996 26.1823C20.6895 26.7394 19.7384 28.6145 18.9843 27.4188V27.4256Z" fill="#A5B4BF"/>
<path d="M20.5046 26.0186C20.3959 26.073 19.8456 25.3189 19.7437 25.4004C19.5059 25.8964 20.1853 25.9507 20.3347 26.4398C20.4163 26.698 20.3823 27.0173 20.3891 27.2823C20.063 27.5133 20.2736 26.9222 20.2192 26.7184C19.866 25.3732 18.4597 26.1749 18.9284 27.3094C18.9284 27.3094 18.9828 27.4181 18.9828 27.4249C19.0847 27.9549 19.6486 27.9549 20.0494 27.7918C19.8456 27.7986 20.1581 27.3638 20.2192 27.3978C20.3483 27.8394 19.8116 28.1315 19.6825 28.4916C20.7627 28.0432 20.6472 26.9901 20.4978 26.0186C21.3198 27.751 19.6554 29.5514 18.6431 28.0703C17.5085 26.4127 19.5467 24.0077 20.4978 26.0186H20.5046Z" fill="#8B9EAE"/>
<path d="M20.5055 26.019C20.6549 26.9973 20.7704 28.0435 19.6902 28.4919C19.8125 28.1318 20.356 27.8329 20.2269 27.3981C20.1658 27.3573 19.8533 27.7989 20.0571 27.7921C19.6562 27.9552 19.0924 27.9552 18.9905 27.4253C19.7446 28.621 20.6957 26.7459 19.8057 26.1888C19.1399 25.7744 18.7934 26.807 18.9361 27.3166C18.4673 26.182 19.8804 25.3804 20.2269 26.7255C20.2813 26.9293 20.0707 27.5204 20.3968 27.2894C20.3968 27.0244 20.4172 26.7051 20.3424 26.447C20.193 25.9578 19.5136 25.9035 19.7514 25.4075C19.8533 25.326 20.4036 26.0801 20.5123 26.0258L20.5055 26.019Z" fill="#697F96"/>
<path d="M19.1249 27.9287C19.3151 28.0578 19.1045 28.1597 18.9551 28.1529L19.1249 27.9287Z" fill="#375070"/>
<path d="M19.0723 25.8499C19.2014 25.7752 19.2149 26.0741 19.1266 26.0741C19.0791 26.0741 18.9908 25.8974 19.0723 25.8499Z" fill="#435D78"/>
<path d="M35.9662 23.6957C35.9662 23.6957 35.9594 23.7093 35.9594 23.7161C35.8915 23.9267 35.8235 24.1305 35.742 24.3343C35.3208 24.2256 34.7977 24.375 34.1727 24.9185L33.6699 26.1278C33.799 25.3466 34.227 23.784 35.1578 23.6006C35.4703 23.5394 35.7352 23.5802 35.9662 23.6957Z" fill="#151F42"/>
<path d="M33.8257 28.0365C33.6558 28.2947 33.4724 28.546 33.289 28.7974C33.187 28.9333 33.0851 29.0759 32.9696 29.205C32.9153 29.273 32.8677 29.3341 32.8134 29.3952C32.7454 29.3749 32.6979 29.3545 32.6571 29.3341C32.2223 29.1167 31.8487 28.383 31.6992 27.9278C32.5009 27.9006 33.4792 28.1316 33.6083 27.3096C33.6354 27.4794 33.717 27.7512 33.8257 28.0365Z" fill="#1A2446"/>
<path d="M35.7426 24.3349C35.7018 24.4572 35.6475 24.5727 35.5999 24.695C35.5999 24.7018 35.5931 24.7086 35.5931 24.7154C35.5116 24.926 35.4233 25.1298 35.3282 25.3336C35.3146 25.3744 35.2942 25.4151 35.2738 25.4491C35.2059 25.6053 35.1312 25.7616 35.0564 25.9111C34.9953 26.0469 34.9274 26.176 34.8594 26.3051C34.7643 26.4885 34.6692 26.672 34.5605 26.8486C34.5469 26.8758 34.5333 26.9029 34.5129 26.9301C34.4926 26.9777 34.4654 27.0252 34.4314 27.0728C34.411 27.1135 34.3839 27.1543 34.3567 27.1951C34.3567 27.2087 34.3431 27.2222 34.3363 27.2358C34.3091 27.2766 34.2819 27.3242 34.2548 27.3649C34.214 27.4329 34.1732 27.5076 34.1257 27.5755C34.0645 27.6774 33.9966 27.7793 33.9287 27.8812C33.8947 27.9356 33.8607 27.9899 33.8268 28.0375C33.7181 27.7522 33.6365 27.4804 33.6094 27.3106C33.6705 26.9641 33.6094 26.4817 33.6705 26.1285L34.1732 24.9192C34.7983 24.3757 35.3214 24.2262 35.7426 24.3349Z" fill="#273555"/>
<path d="M35.3266 25.333C35.3131 25.3738 35.2927 25.4145 35.2723 25.4485C35.2043 25.6048 35.1296 25.761 35.0549 25.9105C34.9938 26.0463 34.9258 26.1754 34.8579 26.3045C34.7628 26.4879 34.6676 26.6714 34.5589 26.848C34.5454 26.8752 34.5318 26.9024 34.5114 26.9295C34.491 26.9771 34.4638 27.0246 34.4299 27.0722C34.3891 26.2841 34.6541 25.4349 35.2111 25.3466C35.2519 25.3398 35.2927 25.333 35.3266 25.333Z" fill="#BBC6D0"/>
<path d="M35.2726 25.4492C35.2047 25.6055 35.13 25.7617 35.0552 25.9112C34.9941 26.0471 34.9261 26.1761 34.8582 26.3052C34.7631 26.4887 34.668 26.6721 34.5593 26.8487C34.5457 26.8759 34.5321 26.9031 34.5117 26.9303C34.5117 26.2305 34.7699 25.5104 35.2115 25.456C35.2319 25.456 35.259 25.456 35.2726 25.456V25.4492Z" fill="#748A9B"/>
<defs>
<linearGradient id="paint0_linear_8255_2012" x1="25.3887" y1="14.7891" x2="30.4025" y2="19.3069" gradientUnits="userSpaceOnUse">
<stop stop-color="#356170"/>
<stop offset="1" stop-color="#2B4D61"/>
</linearGradient>
</defs>
</svg>
