<svg width="180" height="36" viewBox="0 0 180 36" fill="none" xmlns="http://www.w3.org/2000/svg">
<path d="M45.2765 16.0848L48.4442 1.16735L46.6932 0H19.193L13.5 31.0843H21.2462C21.1934 30.8409 21.167 30.5916 21.167 30.3335C21.167 28.3478 22.7772 26.7376 24.7629 26.7376C26.7485 26.7376 28.3588 28.3478 28.3588 30.3335C28.3588 30.5916 28.3294 30.8409 28.2796 31.0843H46.5788C46.526 30.8409 46.4996 30.5916 46.4996 30.3335C46.4996 28.3478 48.1099 26.7376 50.0955 26.7376C52.0812 26.7376 53.6914 28.3478 53.6914 30.3335C53.6914 30.5916 53.6621 30.8409 53.6122 31.0843H55.6096L59.0266 28.4182L61.3613 15.5422L45.2765 16.0848Z" fill="#FBD20E"/>
<mask id="mask0_3753_6949" style="mask-type:luminance" maskUnits="userSpaceOnUse" x="13" y="0" width="49" height="32">
<path d="M45.2765 16.0848L48.4442 1.16735L46.6932 0H19.193L13.5 31.0843H21.2462C21.1934 30.8409 21.167 30.5916 21.167 30.3335C21.167 28.3478 22.7772 26.7376 24.7629 26.7376C26.7485 26.7376 28.3588 28.3478 28.3588 30.3335C28.3588 30.5916 28.3294 30.8409 28.2796 31.0843H46.5788C46.526 30.8409 46.4996 30.5916 46.4996 30.3335C46.4996 28.3478 48.1099 26.7376 50.0955 26.7376C52.0812 26.7376 53.6914 28.3478 53.6914 30.3335C53.6914 30.5916 53.6621 30.8409 53.6122 31.0843H55.6096L59.0266 28.4182L61.3613 15.5422L45.2765 16.0848Z" fill="white"/>
</mask>
<g mask="url(#mask0_3753_6949)">
<path d="M47.3263 -3.59066L42.1172 30.3945L50.0335 -5.43848L47.3263 -3.59066Z" fill="#DCBB40"/>
</g>
<path d="M50.0963 24.666C46.9668 24.666 44.4297 27.2031 44.4297 30.3326C44.4297 33.4622 46.9668 35.9993 50.0963 35.9993C53.2259 35.9993 55.7629 33.4622 55.7629 30.3326C55.7629 27.2031 53.2259 24.666 50.0963 24.666ZM50.0963 33.9286C48.1107 33.9286 46.5004 32.3183 46.5004 30.3326C46.5004 28.347 48.1107 26.7367 50.0963 26.7367C52.082 26.7367 53.6922 28.347 53.6922 30.3326C53.6922 32.3183 52.082 33.9286 50.0963 33.9286Z" fill="#128945"/>
<path d="M24.7643 24.666C21.6347 24.666 19.0977 27.2031 19.0977 30.3326C19.0977 33.4622 21.6347 35.9993 24.7643 35.9993C27.8938 35.9993 30.4309 33.4622 30.4309 30.3326C30.4309 27.2031 27.8938 24.666 24.7643 24.666ZM24.7643 33.9286C22.7786 33.9286 21.1684 32.3183 21.1684 30.3326C21.1684 28.347 22.7786 26.7367 24.7643 26.7367C26.75 26.7367 28.3602 28.347 28.3602 30.3326C28.3602 32.3183 26.75 33.9286 24.7643 33.9286Z" fill="#128945"/>
<path d="M19.1939 22.25H5.91602V24.2503H19.1939V22.25Z" fill="#128945"/>
<path d="M13.2779 19.1104H0V21.1107H13.2779V19.1104Z" fill="#128945"/>
<path d="M15.0031 15.9727H13.1348V17.973H15.0031V15.9727Z" fill="#128945"/>
<path d="M12.5532 15.9727H1.85352V17.973H12.5532V15.9727Z" fill="#128945"/>
<path d="M40.264 4.89462C40.264 4.4048 40.0733 3.91498 39.7125 3.58355C39.0702 2.99107 37.9762 2.98521 37.328 3.56595C36.6768 4.14669 36.5625 5.23485 37.0787 5.93878C37.1432 6.02677 37.2165 6.11183 37.2517 6.21448C37.2899 6.3318 37.2752 6.45793 37.2576 6.58111C36.9877 8.49639 36.5801 10.3911 36.0404 12.2448C35.6591 13.5559 35.2162 14.8523 34.7117 16.1194C34.5915 16.4215 34.3979 16.7206 34.0958 16.8379C33.9139 16.9083 33.7145 16.9054 33.5209 16.9025C32.6322 16.8878 31.7405 16.8673 30.8518 16.8731C29.7079 16.8819 28.5641 16.8731 27.4231 16.8731C27.2442 16.8731 27.0653 16.8731 26.8864 16.8731C25.8774 16.8555 24.8626 16.9259 23.8624 16.8467C23.2553 16.6561 23.4488 15.6237 23.5222 15.1661C23.619 14.5707 23.7158 13.9724 23.8125 13.377C23.9211 12.7141 24.0267 12.0483 24.1352 11.3854C24.2408 10.7314 24.3493 10.0744 24.4549 9.42029C24.5487 8.84835 24.6397 8.27934 24.7335 7.7074C24.7335 7.61354 24.7658 7.50795 24.7804 7.41703C24.8274 7.13839 24.8714 6.85975 24.9154 6.58111C24.933 6.46672 25.0034 6.43446 25.0913 6.37287C25.194 6.29954 25.2967 6.22328 25.3846 6.13529C25.4932 6.02677 25.587 5.90651 25.6633 5.77453C25.8217 5.50762 25.9038 5.19965 25.9038 4.88875C25.9038 3.90618 25.106 3.11133 24.1264 3.11133C23.1467 3.11133 22.349 3.90911 22.349 4.88875C22.349 5.10579 22.3959 5.31697 22.478 5.51642C22.5161 5.61321 22.566 5.70413 22.6129 5.79506C22.654 5.87425 22.7332 5.95344 22.7478 6.04437C22.7537 6.07956 22.7478 6.11476 22.742 6.14996C22.6628 6.63097 22.5836 7.10906 22.5044 7.59008C22.4105 8.16789 22.3167 8.7457 22.2228 9.32644C22.1172 9.97757 22.0117 10.6258 21.9061 11.2769C21.8005 11.9251 21.6949 12.5762 21.5893 13.2244C21.5042 13.7524 21.4192 14.2833 21.3341 14.8112C21.0877 16.3364 21.3371 17.5008 22.0762 18.2722C22.7772 19.0025 23.6718 19.1052 24.1117 19.1052C24.1821 19.1052 24.2378 19.1052 24.2818 19.0993C27.3087 18.8969 30.4148 19.0876 33.4446 19.0993C33.9139 19.0993 34.392 19.0993 34.832 18.9439C35.5858 18.6711 36.102 17.9818 36.4979 17.2867C37.3338 15.8173 37.8237 14.1806 38.2548 12.5469C38.7417 10.6991 39.1611 8.83075 39.4574 6.94481C39.4867 6.75123 39.519 6.55178 39.6099 6.37873C39.692 6.22328 39.8211 6.09716 39.9267 5.95638C40.1584 5.65134 40.2669 5.27298 40.2669 4.89168L40.264 4.89462Z" fill="#128945"/>
<path d="M73.5602 26.2945C72.5425 26.2945 71.601 26.0599 70.7299 25.5935C69.8617 25.1272 69.1636 24.4496 68.6386 23.5639C68.1136 22.6781 67.8496 21.6134 67.8496 20.3639C67.8496 19.2494 68.0344 18.2228 68.404 17.2872C68.7735 16.3515 69.2927 15.5391 69.9673 14.8498C70.6389 14.1605 71.4191 13.6238 72.3049 13.2396C73.1907 12.8553 74.141 12.6618 75.1587 12.6618C76.1765 12.6618 77.0858 12.8436 77.8395 13.2044C78.5933 13.5651 79.1799 14.1195 79.5994 14.8645C80.0188 15.6124 80.227 16.551 80.227 17.6802C80.227 18.8945 80.0833 20.0208 79.7959 21.0649C79.5084 22.1061 79.0773 23.0183 78.5053 23.7956C77.9305 24.5758 77.2295 25.1858 76.4023 25.6287C75.5752 26.0716 74.6279 26.2916 73.5602 26.2916V26.2945ZM74.7422 23.118C75.496 23.118 76.1648 22.9333 76.7485 22.5637C77.3292 22.1941 77.7897 21.6867 78.127 21.0385C78.4643 20.3903 78.6315 19.6336 78.6315 18.7625C78.6315 17.8914 78.3645 17.1464 77.8307 16.6214C77.2969 16.0963 76.5549 15.8353 75.6046 15.8353C74.8654 15.8353 74.2026 16.0201 73.6101 16.3897C73.0206 16.7592 72.5571 17.2666 72.2198 17.9148C71.8825 18.563 71.7154 19.3227 71.7154 20.1909C71.7154 21.059 71.9823 21.807 72.5161 22.332C73.0499 22.857 73.7919 23.118 74.7422 23.118ZM77.3497 26.0951L77.8923 23.4612L78.7283 19.5251L79.2445 15.5889L80.7931 7.83691H84.6325L80.9896 26.0951H77.3468H77.3497Z" fill="#128945"/>
<path d="M91.5946 26.2949C90.2161 26.2949 89.0224 26.0485 88.0134 25.5557C87.0044 25.063 86.2213 24.3737 85.664 23.488C85.1068 22.6022 84.8281 21.5609 84.8281 20.3643C84.8281 18.8889 85.1596 17.572 85.8254 16.4164C86.4882 15.2608 87.4092 14.3457 88.5824 13.674C89.7556 13.0023 91.1048 12.665 92.63 12.665C93.9264 12.665 95.041 12.9085 95.9766 13.3924C96.9122 13.8764 97.6367 14.548 98.1529 15.4104C98.6691 16.2727 98.9272 17.3022 98.9272 18.4989C98.9272 18.842 98.9067 19.1881 98.8656 19.5313C98.8246 19.8744 98.7718 20.2029 98.7043 20.5168H87.7553L88.1483 18.2789H96.9093L95.3343 18.9681C95.4663 18.229 95.4252 17.6101 95.2111 17.1115C94.997 16.61 94.6538 16.2257 94.1787 15.9559C93.7035 15.6861 93.1286 15.5511 92.457 15.5511C91.621 15.5511 90.9112 15.7535 90.3276 16.1554C89.7439 16.5572 89.3069 17.1115 89.0106 17.8155C88.7144 18.5223 88.5677 19.3172 88.5677 20.2029C88.5677 21.2207 88.8493 21.9774 89.4154 22.479C89.9815 22.9805 90.8379 23.2298 91.9877 23.2298C92.6593 23.2298 93.3075 23.1243 93.9323 22.9101C94.557 22.696 95.0879 22.3939 95.5308 22.0009L97.1293 24.535C96.3579 25.1422 95.4927 25.588 94.5335 25.8754C93.5744 26.1629 92.5948 26.3066 91.5946 26.3066V26.2949Z" fill="#128945"/>
<path d="M105.99 26.2949C104.972 26.2949 104.031 26.0602 103.16 25.5939C102.291 25.1275 101.593 24.45 101.068 23.5642C100.543 22.6784 100.279 21.6137 100.279 20.3643C100.279 19.2497 100.464 18.2232 100.834 17.2875C101.203 16.3519 101.722 15.5394 102.397 14.8502C103.069 14.1609 103.849 13.6241 104.735 13.2399C105.62 12.8557 106.571 12.6621 107.588 12.6621C108.688 12.6621 109.63 12.8674 110.419 13.278C111.208 13.6887 111.791 14.3251 112.179 15.1845C112.563 16.0468 112.698 17.1585 112.583 18.5194C112.501 20.0768 112.182 21.4436 111.624 22.6168C111.067 23.7901 110.316 24.6964 109.372 25.3358C108.427 25.9752 107.301 26.2949 105.99 26.2949ZM107.169 23.1184C107.923 23.1184 108.592 22.9336 109.175 22.564C109.759 22.1945 110.216 21.6871 110.554 21.0389C110.891 20.3907 111.058 19.6339 111.058 18.7628C111.058 17.8917 110.791 17.1467 110.257 16.6217C109.724 16.0967 108.982 15.8357 108.031 15.8357C107.292 15.8357 106.629 16.0204 106.037 16.39C105.447 16.7596 104.984 17.267 104.647 17.9152C104.309 18.5634 104.142 19.323 104.142 20.1912C104.142 21.0594 104.409 21.8073 104.943 22.3323C105.477 22.8574 106.219 23.1184 107.169 23.1184ZM109.803 26.0954L110.319 23.4616L111.181 19.5254L111.698 15.5893L112.237 12.8586H116.077L113.443 26.0954H109.8H109.803Z" fill="#128945"/>
<path d="M116.99 26.0951L120.633 7.83691H124.472L120.83 26.0951H116.99Z" fill="#128945"/>
<path d="M123.434 30.8704L127.027 12.8586H130.669L130.127 15.4925L129.291 19.4286L128.775 23.3648L127.273 30.8704H123.434ZM132.857 26.2949C131.79 26.2949 130.86 26.0896 130.065 25.6789C129.27 25.2683 128.675 24.6318 128.282 23.7725C127.889 22.9101 127.748 21.8015 127.862 20.4376C127.962 18.8626 128.285 17.4928 128.833 16.3284C129.382 15.164 130.133 14.2606 131.086 13.6212C132.036 12.9818 133.16 12.6621 134.456 12.6621C135.488 12.6621 136.442 12.8968 137.31 13.3631C138.178 13.8295 138.876 14.5041 139.401 15.381C139.926 16.258 140.187 17.3286 140.187 18.5927C140.187 19.6926 139.999 20.7133 139.621 21.6548C139.243 22.5992 138.724 23.4146 138.058 24.1039C137.395 24.7932 136.618 25.3299 135.732 25.7141C134.846 26.0984 133.887 26.2919 132.855 26.2919L132.857 26.2949ZM132.415 23.1184C133.186 23.1184 133.858 22.9336 134.432 22.564C135.007 22.1945 135.462 21.6871 135.799 21.0389C136.137 20.3907 136.304 19.6339 136.304 18.7628C136.304 17.8917 136.04 17.1467 135.515 16.6217C134.99 16.0967 134.245 15.8357 133.277 15.8357C132.538 15.8357 131.875 16.0204 131.285 16.39C130.696 16.7596 130.235 17.267 129.907 17.9152C129.578 18.5634 129.414 19.323 129.414 20.1912C129.414 21.0594 129.675 21.8073 130.2 22.3323C130.725 22.8574 131.464 23.1184 132.415 23.1184Z" fill="#128945"/>
<path d="M141.371 26.0951L145.014 7.83691H148.853L145.21 26.0951H141.371Z" fill="#128945"/>
<path d="M155.813 26.2949C154.435 26.2949 153.241 26.0485 152.232 25.5557C151.223 25.063 150.44 24.3737 149.883 23.488C149.326 22.6022 149.047 21.5609 149.047 20.3643C149.047 18.8889 149.378 17.572 150.044 16.4164C150.707 15.2608 151.628 14.3457 152.801 13.674C153.974 13.0023 155.324 12.665 156.849 12.665C158.145 12.665 159.26 12.9085 160.195 13.3924C161.131 13.8764 161.855 14.548 162.372 15.4104C162.888 16.2727 163.146 17.3022 163.146 18.4989C163.146 18.842 163.125 19.1881 163.084 19.5313C163.043 19.8744 162.991 20.2029 162.923 20.5168H151.974L152.367 18.2789H161.128L159.553 18.9681C159.685 18.229 159.644 17.6101 159.43 17.1115C159.216 16.61 158.873 16.2257 158.397 15.9559C157.922 15.6861 157.347 15.5511 156.676 15.5511C155.84 15.5511 155.13 15.7535 154.546 16.1554C153.963 16.5572 153.526 17.1115 153.229 17.8155C152.933 18.5223 152.786 19.3172 152.786 20.2029C152.786 21.2207 153.068 21.9774 153.634 22.479C154.2 22.9805 155.057 23.2298 156.206 23.2298C156.878 23.2298 157.526 23.1243 158.151 22.9101C158.776 22.696 159.307 22.3939 159.75 22.0009L161.348 24.535C160.577 25.1422 159.711 25.588 158.752 25.8754C157.793 26.1629 156.814 26.3066 155.813 26.3066V26.2949Z" fill="#128945"/>
<path d="M162.088 26.0952L169.717 18.2699L169.224 20.2145L165.188 12.8584H169.174L171.931 17.9531L170.16 17.9296L174.958 12.8613H179.19L171.908 20.4403L172.227 18.3989L176.51 26.1011H172.45L169.62 20.8363H171.415L166.47 26.1011H162.091L162.088 26.0952Z" fill="#128945"/>
</svg>
