<svg width="53" height="36" viewBox="0 0 53 36" fill="none" xmlns="http://www.w3.org/2000/svg">
<path d="M42.791 18.0034C42.791 18.2751 42.7842 18.5469 42.7706 18.8119C42.757 19.1447 42.7367 19.4776 42.6959 19.8105C42.6008 20.8296 42.4106 21.8283 42.1388 22.793C42.0981 22.956 42.0505 23.1259 42.0029 23.2889C41.8535 23.7645 41.6904 24.2333 41.5002 24.6952C41.2828 25.2455 41.0382 25.7822 40.7597 26.3053C40.5355 26.7401 40.2909 27.1614 40.026 27.5758C39.7678 27.997 39.4893 28.4046 39.1903 28.7986C39.0884 28.9345 38.9865 29.0772 38.871 29.2063C35.5829 33.3504 30.4944 36 24.7944 36C14.8484 36 6.79102 27.9426 6.79102 18.0034V17.8675C6.79781 17.2153 6.83857 16.5767 6.9133 15.9449C6.93368 15.7207 6.96086 15.5033 6.98803 15.2859C7.18505 14.0427 7.49756 12.8402 7.93236 11.692C8.19053 10.9855 8.49624 10.2925 8.85631 9.63352C11.8591 3.9064 17.8716 0 24.7944 0C34.7336 0 42.791 8.05737 42.791 18.0034Z" fill="#F1F1F1"/>
<path d="M21.0793 19.4979C20.991 19.5794 20.8959 19.8036 20.9095 19.9055C20.9638 20.3267 23.6745 21.5428 24.1637 21.8145C23.4571 21.7738 22.737 21.6039 22.044 21.4612C21.1541 21.271 18.9529 20.5169 18.2124 21.0604C18.1376 20.8362 17.7979 20.7479 17.6281 20.9177C17.3903 20.5237 16.5207 20.5849 16.1471 20.4829C15.9772 20.4354 15.7394 20.3199 15.5153 20.2588C14.7408 20.0481 13.9663 19.824 13.1918 19.6133C9.63188 18.6554 2.9876 17.3578 0.677734 14.4365C2.74982 15.5303 5.21595 15.5439 7.48506 16.0534C12.0369 17.0793 16.5207 18.5196 21.0793 19.4979Z" fill="#216054"/>
<path d="M41.5013 24.6953C41.2839 25.2456 41.0394 25.7823 40.7608 26.3054C39.4496 26.1424 38.1317 25.9114 36.8069 25.6125C36.2702 25.2864 35.7199 24.9807 35.1832 24.6546C36.1547 24.1314 35.9237 23.6695 35.1152 23.126C37.2485 23.6083 39.3613 24.2334 41.5013 24.6953Z" fill="#B1C7CD"/>
<path d="M11.6561 14.4024L11.724 14.416C12.3151 14.8575 12.9333 15.2448 13.5583 15.632C13.9727 15.8902 14.3872 16.1755 14.8084 16.4269C9.8897 15.2855 4.54303 15.6864 0.00481471 13.2406C-0.00877276 13.0572 0.00481471 12.8806 0.0659583 12.7039L4.27128 11.8819C5.09332 12.1944 5.3311 12.439 6.25505 12.5137C6.49283 12.5341 6.95481 12.7719 7.10427 12.4118C7.15862 12.2827 7.0703 11.6509 6.98198 11.5218C7.07709 11.5422 6.98198 11.3316 7.12465 11.352C7.36922 11.3859 8.79591 12.1401 9.08804 12.3235C9.40734 12.5137 11.5813 14.1646 11.5813 14.3548L11.2824 15.4214C11.4794 15.1089 11.5406 14.7556 11.6357 14.4092L11.6561 14.4024Z" fill="#52C257"/>
<path d="M14.8086 16.4265C18.3413 17.2417 22.4583 18.3763 25.9231 19.4565C26.7791 19.7214 27.5672 19.9932 28.396 20.3464C29.0618 20.6318 29.7004 20.9511 30.3322 21.3111C30.4749 21.5557 29.6868 21.284 29.6189 21.2704C26.8539 20.6861 23.8306 19.2051 21.0928 19.4972C16.5274 18.5189 12.0503 17.0787 7.4985 16.0528C5.22939 15.5433 2.76327 15.5229 0.691177 14.4359C0.419427 14.0962 0.0525656 13.6954 0.0253906 13.2334C4.55681 15.6791 9.91027 15.2851 14.8221 16.4197L14.8086 16.4265Z" fill="#3E9A55"/>
<path d="M3.10907 11.3179C3.35364 11.3858 3.94469 11.7595 4.27759 11.8818L0.0722656 12.7038C0.344015 11.9973 2.40931 11.1141 3.10907 11.3179Z" fill="#93E571"/>
<path d="M15.5147 20.2587L15.5011 20.3267L13.1641 19.7492C13.1641 19.7492 13.1844 19.6609 13.198 19.6201C13.9725 19.8307 14.747 20.0549 15.5215 20.2655L15.5147 20.2587Z" fill="#EDF7F7"/>
<path d="M17.6267 20.9172C17.321 21.2161 17.4364 21.7868 16.6891 21.9226C16.2611 21.5762 16.132 21.0055 16.1524 20.4756C16.5261 20.5775 17.3889 20.5231 17.6335 20.9104L17.6267 20.9172Z" fill="#152D48"/>
<path d="M16.1463 20.483C16.1328 21.0129 16.255 21.5836 16.683 21.93C15.4941 22.1474 15.5281 21.2711 15.4941 20.3267L15.5077 20.2588C15.7319 20.3199 15.9697 20.4354 16.1395 20.483H16.1463Z" fill="#98B5BE"/>
<path d="M17.9194 21.4066C17.7359 21.6919 17.5253 22.2082 17.437 22.5275L16.7305 22.3169C16.9343 22.249 17.2943 22.0791 17.4438 21.9433C17.5933 21.8074 17.702 21.3114 17.9194 21.4066Z" fill="#3F565D"/>
<path d="M4.42014 10.4695C4.75303 10.551 5.12669 10.8432 5.48675 10.9043C5.39164 11.047 4.54243 11.7807 4.47449 11.7943C4.38617 11.8079 3.19727 11.3051 3.19727 11.2372C3.57092 11.1013 3.98534 10.8568 4.25709 10.5714C4.25709 10.5714 4.40655 10.5714 4.27068 10.5035L4.28426 10.4355C4.39976 10.4355 4.33861 10.4491 4.41334 10.4695H4.42014Z" fill="#387188"/>
<path d="M6.98823 11.5228C7.07655 11.6587 7.17166 12.2837 7.11051 12.4128C6.95426 12.7729 6.49228 12.5283 6.2613 12.5147C5.66345 12.4603 6.2613 11.6383 6.17298 11.2171C6.4719 11.0676 6.83876 11.285 6.99502 11.5228H6.98823Z" fill="#1D3B59"/>
<path d="M41.5015 24.6947C39.3615 24.2328 37.2487 23.6077 35.1154 23.1254C35.9239 23.6689 36.1549 24.1309 35.1834 24.654C33.4577 23.6281 31.705 22.6498 29.9658 21.6376C29.8842 21.59 29.5581 21.3998 29.6057 21.2707C29.6804 21.2911 30.4685 21.556 30.319 21.3115C29.6872 20.9582 29.0554 20.6389 28.3896 20.3467L27.9141 19.8848L42.0043 23.2884C41.8548 23.764 41.6918 24.2328 41.5015 24.6947Z" fill="#CADCDC"/>
<path d="M42.0016 23.2891L27.9114 19.8854L28.387 20.3474C27.5581 19.9941 26.7701 19.7292 25.9141 19.4642L27.1845 19.7767L27.3272 19.0498C32.2662 20.2999 37.2053 21.5295 42.1375 22.7932C42.0967 22.9562 42.0492 23.126 42.0016 23.2891Z" fill="#EAE6C7"/>
<path d="M27.3285 19.0491L27.1858 19.7692L25.9154 19.4567C22.4506 18.3765 18.3336 17.242 14.8008 16.4267C14.3796 16.1753 13.9652 15.89 13.5508 15.6318C18.1501 16.7188 22.7427 17.8941 27.3285 19.0491Z" fill="#ECDC99"/>
<path d="M42.7702 18.8117C42.7566 19.1446 42.7362 19.4775 42.6954 19.8103C34.3663 19.0019 24.2844 14.4161 16.1931 13.1865C14.8072 12.9758 13.3737 12.9623 12.0014 13.2476C12.0965 12.8468 12.2731 12.4391 12.1712 12.0179C11.9742 12.806 11.8723 13.6213 11.6481 14.4025C11.5462 14.749 11.4918 15.1091 11.2948 15.4216L11.5937 14.355C11.5869 14.1648 9.41294 12.5139 9.09364 12.3237C8.93059 12.2217 8.40068 11.9364 7.93191 11.6918C7.57184 11.522 7.23895 11.3657 7.13025 11.3521C6.98758 11.3318 7.0759 11.5424 6.98079 11.522C6.83132 11.2842 6.46446 11.06 6.16554 11.2163C6.25386 11.6375 5.65601 12.4595 6.25386 12.5139C5.3367 12.4391 5.09213 12.1946 4.27009 11.8821C3.94399 11.7598 3.34614 11.3861 3.10156 11.3182C3.12194 11.257 3.12874 11.1823 3.14912 11.1212C3.51598 10.9649 3.8217 10.7135 4.18856 10.5505L4.2565 10.5709C3.97795 10.8562 3.57033 11.1008 3.18988 11.2367C3.18988 11.3046 4.37878 11.8073 4.4671 11.7937C4.53504 11.7869 5.38426 11.0532 5.47937 10.9106C5.1193 10.8494 4.74565 10.5573 4.41955 10.469C5.80547 9.73524 7.32047 9.54501 8.85586 9.63333C11.0027 9.75562 13.2106 10.4214 15.2012 10.9377C17.0695 11.4201 18.9038 12.0383 20.7721 12.5275C20.8808 12.0451 26.4177 12.0859 26.7098 11.6986L27.8919 11.7598C27.9598 11.9092 24.4747 13.6213 24.7532 13.7232C30.6705 15.5439 36.8189 16.9977 42.7702 18.8117Z" fill="white"/>
<path d="M4.2908 10.4355L4.27722 10.5035C4.20249 10.4695 4.20249 10.551 4.19569 10.551C3.82883 10.7141 3.52311 10.9655 3.15625 11.1217C3.23098 10.9383 4.08699 10.4355 4.2908 10.4355Z" fill="#234978"/>
<path d="M5.77067 11.0127C6.19867 11.0331 5.78425 12.0522 5.75029 12.3511L4.71764 11.9231C4.68367 11.862 5.68914 11.0059 5.77067 11.0127Z" fill="#27586C"/>
<path d="M12.0085 13.2472C11.9202 13.6345 11.8115 14.0285 11.7164 14.4158L11.6484 14.4022C11.8726 13.6209 11.9745 12.8057 12.1716 12.0176C12.2735 12.4388 12.0968 12.8464 12.0017 13.254L12.0085 13.2472Z" fill="#8DBAC6"/>
<path d="M4.25781 10.564C4.25781 10.564 4.27819 10.5029 4.2714 10.4961C4.40048 10.5572 4.25781 10.5572 4.25781 10.564Z" fill="white"/>
<path d="M42.6962 19.81C42.6011 20.8291 42.4109 21.8277 42.1391 22.7925C37.2069 21.5288 32.2678 20.2991 27.3288 19.0491C22.743 17.8942 18.1505 16.7189 13.5511 15.6319C12.9261 15.2446 12.3079 14.8642 11.7168 14.4226C11.8051 14.0285 11.9138 13.6413 12.0021 13.2473C13.3745 12.9619 14.8079 12.9755 16.1939 13.1861C24.2852 14.4158 34.3671 19.0015 42.6962 19.81Z" fill="#F0F9F9"/>
<path d="M24.5989 16.583C25.2511 16.7393 24.8367 17.9282 24.2932 17.5409C24.0554 17.3711 24.266 16.6374 24.5989 16.583Z" fill="#264963"/>
<path d="M28.4833 17.6094C29.5703 18.3431 27.6137 19.3757 28.2183 17.7181L28.4833 17.6094Z" fill="#254864"/>
<path d="M27.1186 17.2757C27.6689 17.2417 27.4243 17.9007 27.3428 18.1928L27.0778 18.3015L26.8332 18.1725C26.6498 17.9347 26.8332 17.2961 27.1254 17.2757H27.1186Z" fill="#254963"/>
<path d="M32.4299 18.6621C33.4897 18.73 31.7573 20.9108 32.165 18.7708C32.1853 18.7436 32.4163 18.6621 32.4299 18.6621Z" fill="#264962"/>
<path d="M25.8208 16.9495C26.4662 16.8544 26.2488 17.8938 25.9227 17.9414C25.2773 18.0297 25.5218 16.9971 25.8208 16.9495Z" fill="#274964"/>
<path d="M29.6389 17.969C30.3726 17.8671 30.0125 19.3074 29.4147 18.8794C29.1973 18.7232 29.3807 18.003 29.6389 17.969Z" fill="#274963"/>
<path d="M31.0662 18.3222C31.6776 18.2678 31.501 19.4295 31.0186 19.348C30.6178 19.2801 30.7605 18.7094 30.8624 18.4444C30.9235 18.4241 31.0186 18.329 31.0662 18.3222Z" fill="#244762"/>
<path d="M40.3129 20.8225C41.067 20.8021 40.6662 22.1201 40.0412 21.6513C39.8306 21.4951 40.0072 20.8293 40.3129 20.8225Z" fill="#2A506D"/>
<path d="M41.6766 21.162C42.1182 21.1212 42.1521 21.7666 41.9143 22.0112L41.6494 22.1199L41.3301 21.8686C41.4252 21.5968 41.3776 21.2707 41.6766 21.162Z" fill="#2E506D"/>
<path d="M36.9286 19.9876C37.6487 19.9196 37.1324 21.4414 36.5957 20.6262C36.6568 20.4224 36.6772 20.008 36.9286 19.9876Z" fill="#667D8F"/>
<path d="M38.1186 20.2116C38.4311 20.2932 38.3156 20.9386 38.105 21.1016L37.7653 21.088C37.5343 20.8366 37.7857 20.1233 38.1186 20.2116Z" fill="#355970"/>
<path d="M20.1952 15.4212C20.7251 15.4484 20.5484 16.4403 20.1476 16.447C19.5226 16.447 19.7807 15.4008 20.1952 15.4212Z" fill="#254862"/>
<path d="M34.1028 19.1446C34.721 19.1039 34.5308 20.2248 34.0552 20.1705C33.505 20.1093 33.7971 19.1718 34.1028 19.1446Z" fill="#264966"/>
<path d="M21.548 15.8223C22.2138 15.8223 22.1255 16.522 21.711 16.8277C21.1132 16.8142 21.1879 16.128 21.548 15.8223Z" fill="#274761"/>
<path d="M23.2335 16.2441C24.4835 16.7741 22.5066 18.1328 23.0297 16.3664L23.2335 16.2441Z" fill="#264862"/>
<path d="M18.4427 14.9794C19.0745 14.9251 18.8639 16.0596 18.3952 16.0053C17.9264 15.9509 18.1574 15.0066 18.4427 14.9794Z" fill="#264561"/>
<path d="M16.8794 14.5989C17.5248 14.5038 17.3074 15.5433 16.9813 15.5908C16.3359 15.6791 16.5804 14.6465 16.8794 14.5989Z" fill="#264762"/>
<path d="M35.516 19.5655C36.175 19.4635 35.9304 20.5302 35.6179 20.5573C35.1084 20.5981 35.1151 19.7557 35.516 19.5655Z" fill="#274967"/>
<path d="M13.517 13.6958C14.1148 13.6347 13.8634 14.742 13.4694 14.7217C12.987 14.6877 13.2248 13.7298 13.517 13.6958Z" fill="#264860"/>
<path d="M15.2767 14.1309C15.8134 14.1444 15.5145 15.1771 15.168 15.1363C14.74 15.0888 14.8555 14.1784 15.2767 14.1309Z" fill="#274863"/>
<path d="M39.0765 20.5166C39.5385 20.4827 39.3618 21.3115 39.1445 21.3591C38.6213 21.4474 38.8795 20.5506 39.0765 20.5166Z" fill="#8399A4"/>
<path d="M29.6113 21.2709C29.5637 21.4 29.883 21.5902 29.9713 21.6377C31.7105 22.65 33.4633 23.6283 35.1889 24.6542C35.7256 24.9735 36.2759 25.286 36.8126 25.6121C39.7339 27.3716 42.6077 29.1992 45.5765 30.8908C46.2899 31.2984 46.9149 31.8827 47.7845 31.9914C47.2682 32.0457 46.8809 32.1341 46.3578 31.9099C45.9638 31.7536 45.563 31.577 45.1689 31.4071C43.3686 30.6394 41.5546 29.8174 39.7543 29.0293C38.613 28.5334 37.458 28.0646 36.3235 27.5551C35.5218 27.195 34.7269 26.7738 33.9185 26.4069C31.9551 25.5238 27.9944 23.2546 26.228 22.7723C25.7388 22.6364 25.7252 22.9965 25.5486 23.4313C25.1885 23.2614 24.8013 23.0644 24.4412 22.881C24.3869 22.8538 24.3801 22.8131 24.3257 22.7859C23.9385 22.5889 23.3339 22.1201 23.0417 21.9842C22.8243 21.8823 21.9955 21.8551 22.0362 21.4611C22.7292 21.6106 23.4493 21.7736 24.1559 21.8144C23.6667 21.5426 20.9628 20.3265 20.9017 19.9053C20.8881 19.8034 20.9832 19.5792 21.0715 19.4977C23.8162 19.2056 26.8326 20.6866 29.5977 21.2709H29.6113Z" fill="#EDF7F7"/>
<path d="M50.2712 32.5352C49.8092 32.182 48.9804 32.4333 48.8105 31.7608C49.7277 31.5094 51.6435 30.3952 52.4792 31.0134L52.5131 31.1629C51.7522 31.5977 51.0729 32.1684 50.278 32.542L50.2712 32.5352Z" fill="#DCBB64"/>
<path d="M50.2726 32.5352C49.9601 32.6779 49.7087 32.9428 49.3146 32.9156C48.4858 32.8681 47.1474 32.2295 46.3594 31.9034C46.8893 32.1208 47.2697 32.0392 47.7861 31.9849C48.1325 31.9509 48.479 31.849 48.8119 31.7539C48.9818 32.4333 49.8174 32.1751 50.2726 32.5284V32.5352Z" fill="#E7B540"/>
<path d="M33.9187 26.4138C34.007 26.604 34.2584 27.0524 33.8576 27.0863C33.3752 27.1271 31.3235 25.9654 30.7189 25.6868C29.1767 24.9803 27.5869 24.3485 26.0516 23.6351C25.9089 23.5672 25.7051 23.5196 25.5488 23.4381C25.7255 23.0033 25.7391 22.6432 26.2282 22.7791C27.9878 23.2615 31.9553 25.5238 33.9187 26.4138Z" fill="#63879C"/>
<path d="M30.7181 25.6875L29.0128 25.8845C28.7751 25.2662 26.472 24.3083 26.0508 23.6357C27.5862 24.3491 29.1759 24.9877 30.7181 25.6875Z" fill="#33566E"/>
<path d="M39.7531 29.0299C38.5846 29.6481 36.9609 28.5543 36.3223 27.5557C37.4568 28.0652 38.6118 28.534 39.7531 29.0299Z" fill="#274964"/>
<path d="M25.5544 23.439C25.7107 23.5137 25.9145 23.568 26.0572 23.636C26.4716 24.3154 28.7747 25.2733 29.0192 25.8847C29.0396 25.9459 29.1211 26.0681 29.0668 26.1021C27.2257 26.435 25.3302 26.4214 23.4688 26.5777C23.4823 26.5709 23.6182 26.401 23.6658 26.3467L24.9498 26.3195C26.1659 25.5043 26.0708 23.9213 24.8275 23.1876C24.6577 23.0857 24.7052 23.0245 24.5218 23.1808C24.5014 23.0721 24.3995 23.011 24.4538 22.8887C24.8139 23.0721 25.1944 23.2691 25.5612 23.439H25.5544Z" fill="#18304D"/>
<path d="M23.6602 26.3457C24.1833 25.7614 24.4075 24.8239 24.5026 24.0698C24.5365 23.7844 24.5637 23.4583 24.5162 23.1798C24.7064 23.0235 24.6588 23.0915 24.8219 23.1866C26.0651 23.9203 26.1535 25.5032 24.9442 26.3185L23.6602 26.3457Z" fill="#203E5A"/>
<path d="M23.659 26.3461C23.6182 26.3936 23.4756 26.5635 23.462 26.5771C23.3397 26.6654 23.1902 26.7265 23.0408 26.7469C22.1508 26.8692 18.7607 26.0743 17.9727 25.626C17.9862 25.5988 18.061 25.5173 18.0678 25.5105C18.8898 25.2795 19.1344 24.8651 19.3993 24.0498C21.0502 24.3555 22.8777 24.4982 24.5014 24.0702C24.4063 24.8243 24.1821 25.7618 23.659 26.3461Z" fill="#F4A11C"/>
<path d="M22.0431 21.4616C22.0091 21.8556 22.8312 21.8828 23.0485 21.9847C23.3407 22.1206 23.9453 22.5893 24.3326 22.7864C23.7891 22.6301 19.9778 21.6858 19.774 21.9643C19.706 22.0526 19.9098 22.9834 19.5905 22.9902C19.6313 22.6233 19.6721 21.8964 19.5294 21.5635C19.3528 21.1491 19.3188 21.1627 18.8704 21.1559C18.5579 21.1559 18.5307 21.0947 18.259 21.3868C17.6 22.0866 17.3011 23.8462 17.5592 24.7633C17.6543 25.103 17.6272 25.4291 18.0619 25.5106C18.0552 25.5106 17.9804 25.599 17.9668 25.6261C16.9342 25.0487 17.1312 23.5269 17.4233 22.5282C17.5185 22.2089 17.7291 21.6926 17.9057 21.4072C17.9397 21.3529 18.1503 21.1015 18.1978 21.0675C18.9383 20.524 21.1395 21.2781 22.0295 21.4684L22.0431 21.4616Z" fill="#FCE573"/>
<path d="M24.3326 22.7934C24.387 22.8205 24.3938 22.8613 24.4481 22.8885C24.3938 23.0108 24.4957 23.0719 24.5161 23.1806C24.5636 23.4659 24.5365 23.792 24.5025 24.0706C22.8788 24.4918 21.0581 24.3491 19.4004 24.0502C19.5091 23.7037 19.5499 23.3572 19.5906 22.9972C19.9099 22.9972 19.7129 22.0664 19.774 21.9713C19.9779 21.686 23.7891 22.6303 24.3326 22.7934Z" fill="#FED138"/>
<path d="M19.5909 22.9974C19.5502 23.3575 19.5094 23.7039 19.4007 24.0504C19.1358 24.8657 18.8912 25.2801 18.0691 25.5111C17.6343 25.4296 17.6547 25.1035 17.5664 24.7638C17.777 24.9948 17.8449 25.1374 18.171 25.117C19.0678 25.0695 19.4415 22.6373 19.3124 21.9172C19.2716 21.6794 19.129 21.5775 19.0271 21.4009C19.0203 21.3873 19.0406 21.1971 18.8776 21.1563C19.326 21.1563 19.36 21.1427 19.5366 21.5639C19.6793 21.8968 19.6385 22.6305 19.5977 22.9906L19.5909 22.9974Z" fill="#E2EBE6"/>
<path d="M18.8762 21.1631C19.0324 21.2038 19.0121 21.3941 19.0257 21.4077C17.9998 22.2501 17.6805 23.9281 18.1696 25.1306C17.8503 25.1442 17.7824 25.0083 17.565 24.7774C17.3068 23.8534 17.6058 22.1006 18.2648 21.4009C18.5365 21.1155 18.5637 21.1699 18.8762 21.1699V21.1631Z" fill="#AFC9D2"/>
<path d="M18.1712 25.1234C17.6753 23.9277 18.0014 22.2428 19.0272 21.4004C19.1292 21.577 19.2718 21.6789 19.3126 21.9167C19.4417 22.6368 19.068 25.069 18.1712 25.1166V25.1234Z" fill="#1C3956"/>
</svg>
