<svg width="36" height="36" viewBox="0 0 36 36" fill="none" xmlns="http://www.w3.org/2000/svg">
<path d="M36 18.0033C36 18.2751 35.9932 18.5468 35.9796 18.8118C35.966 19.1447 35.9456 19.4776 35.9049 19.8105C35.9049 19.8308 35.8981 19.858 35.8981 19.8784C35.8913 19.9599 35.8845 20.0346 35.8709 20.1162C35.8641 20.1637 35.8573 20.2113 35.8573 20.2588C35.8166 20.5917 35.769 20.9178 35.7079 21.2439C35.7079 21.2439 35.7011 21.2711 35.7011 21.2847C35.6943 21.3051 35.6943 21.3322 35.6875 21.3526C35.606 21.7942 35.5041 22.229 35.3818 22.657C35.375 22.7046 35.3614 22.7453 35.3478 22.7929C35.307 22.9491 35.2595 23.119 35.2187 23.2752C35.2187 23.2752 35.2165 23.2798 35.2119 23.2888C35.1644 23.4247 35.1236 23.5606 35.0761 23.6965C35.0761 23.7033 35.0693 23.71 35.0693 23.7168C35.0013 23.9274 34.9334 24.1313 34.8519 24.3351C34.8111 24.4574 34.7567 24.5728 34.7092 24.6951C34.7092 24.7019 34.7024 24.7087 34.7024 24.7155C34.6209 24.9261 34.5326 25.1299 34.4374 25.3337C34.4239 25.3745 34.4035 25.4153 34.3831 25.4492C34.3152 25.6055 34.2404 25.7617 34.1657 25.9112C34.1045 26.0471 34.0366 26.1762 33.9687 26.3052C33.8736 26.4887 33.7784 26.6721 33.6697 26.8487C33.6562 26.8759 33.6426 26.9031 33.6222 26.9303C33.6018 26.9778 33.5746 27.0254 33.5407 27.0729C33.5203 27.1137 33.4931 27.1545 33.4659 27.1952C33.4659 27.2088 33.4523 27.2224 33.4456 27.236C33.4184 27.2767 33.3912 27.3243 33.364 27.3651C33.3233 27.433 33.2825 27.5077 33.2349 27.5757C33.1738 27.6776 33.1059 27.7795 33.0379 27.8814C33.004 27.9357 32.97 27.9901 32.936 28.0376C32.7662 28.2958 32.5828 28.5472 32.3993 28.7985C32.2974 28.9344 32.1955 29.0771 32.08 29.2062C32.0257 29.2741 31.9781 29.3352 31.9238 29.3964C30.6194 30.9997 29.0432 32.3652 27.2633 33.4318C27.1817 33.4862 27.107 33.5337 27.0255 33.5745C26.9983 33.5949 26.9779 33.6085 26.9507 33.6153C26.1015 34.1112 25.2048 34.5324 24.274 34.8789C22.5348 35.5243 20.6665 35.9115 18.7235 35.9863C18.4858 35.9931 18.248 35.9999 18.0034 35.9999C17.4667 35.9999 16.93 35.9795 16.4069 35.9251C15.4422 35.8436 14.4978 35.6806 13.5875 35.4496C12.12 35.0827 10.7341 34.5392 9.4365 33.8327C9.25307 33.7308 9.06284 33.6289 8.88621 33.5134C8.71636 33.425 8.55331 33.3231 8.39706 33.2212C7.22174 32.4807 6.14154 31.6043 5.17003 30.6192C4.85073 30.2999 4.55181 29.9738 4.25967 29.6274C4.24609 29.607 4.2257 29.5866 4.21211 29.5662C4.117 29.4575 4.02869 29.3488 3.94037 29.2333C3.80449 29.0703 3.67541 28.9004 3.55312 28.7306C3.39686 28.5268 3.2474 28.3162 3.10473 28.1056C2.98244 27.9221 2.86016 27.7387 2.74466 27.5553C2.69031 27.4738 2.63597 27.3854 2.58841 27.3039C2.56124 27.2564 2.53406 27.2088 2.50689 27.1612C2.33705 26.8827 2.18079 26.6042 2.03133 26.312C2.01774 26.2781 1.99736 26.2509 1.98377 26.2169C1.71202 25.687 1.46745 25.1435 1.24325 24.5864C1.11417 24.2535 0.998677 23.9206 0.889978 23.581C0.740515 23.1394 0.61823 22.691 0.50953 22.2358C0.475561 22.1271 0.44839 22.0116 0.428009 21.9029C0.407627 21.8146 0.387245 21.7263 0.373657 21.638C0.366864 21.6176 0.366861 21.604 0.360067 21.5836C0.34648 21.5293 0.33969 21.4749 0.332897 21.4206C0.176641 20.6325 0.0747265 19.824 0.0271704 19.002V18.968C0.0135829 18.7778 0.00679 18.5876 0.00679 18.3974C-3.73176e-06 18.2819 0 18.1664 0 18.0509V17.8675C0 17.7044 0.00679664 17.5414 0.0135904 17.3851C0.0271778 16.896 0.0679324 16.4204 0.122282 15.9448C0.13587 15.8158 0.149466 15.6867 0.163053 15.5576C0.176641 15.4625 0.183426 15.3742 0.197014 15.2858C0.203807 15.2383 0.210607 15.1839 0.224194 15.1364C0.264957 14.8782 0.312507 14.6201 0.366857 14.3687C0.482351 13.8116 0.618232 13.2681 0.788076 12.7246C0.896775 12.3713 1.01226 12.0317 1.14134 11.692C1.27042 11.3387 1.4131 10.9854 1.56256 10.6457C1.56256 10.6389 1.56256 10.6322 1.56935 10.6322C1.56935 10.6186 1.57615 10.6118 1.58294 10.6118C1.64408 10.4827 1.69843 10.3468 1.76636 10.2245C1.86148 10.0207 1.95659 9.8237 2.06529 9.63348C3.29496 7.29644 5.02057 5.25833 7.11304 3.6686C7.44593 3.41724 7.79242 3.17266 8.14569 2.94168C8.82506 2.49329 9.53161 2.08567 10.2721 1.73919C12.6092 0.625021 15.2316 0 17.9966 0C25.8977 0 32.6031 5.08849 35.0217 12.1675C35.0964 12.3713 35.1644 12.5752 35.2255 12.7858C35.2799 12.9624 35.3274 13.1254 35.3682 13.2953C35.375 13.3157 35.3818 13.3428 35.3886 13.3632C35.4293 13.5127 35.4701 13.6554 35.4973 13.8048C35.5244 13.9203 35.5516 14.0222 35.572 14.1309C35.6331 14.4027 35.6875 14.6744 35.735 14.9462C35.7894 15.2587 35.8302 15.5644 35.8641 15.8769C35.8777 15.9652 35.8913 16.0535 35.8981 16.1419C35.9185 16.3593 35.9389 16.5766 35.9524 16.8008C35.9796 17.2017 35.9932 17.6025 35.9932 18.0033H36Z" fill="#F1F1F1"/>
<path d="M27.1231 8.59573L27.0959 13.0864V13.9016L27.0891 14.4791C27.0823 14.6693 27.0823 14.8595 27.0823 15.0497L27.0211 24.0174L26.9532 33.617C26.104 34.1129 25.2072 34.5341 24.2765 34.8806C22.5373 35.526 20.669 35.9132 18.726 35.988C18.4882 35.9948 18.2504 36.0015 18.0059 36.0015C17.4692 36.0015 16.9324 35.9812 16.4093 35.9268C15.4446 35.8453 14.5003 35.6822 13.5899 35.4513C12.1225 35.0844 10.7366 34.5409 9.43896 33.8344C9.25553 33.7324 9.06531 33.6305 8.88867 33.515V2.94336L15.4582 3.26946C17.3673 3.60914 19.0385 3.90127 20.4652 4.2002H20.472C20.6894 4.24775 20.8932 4.29531 21.097 4.33607C21.1174 4.34286 21.1378 4.34966 21.1582 4.34966C25.1868 5.25322 27.1231 6.25869 27.1231 8.59573Z" fill="white"/>
<path d="M22.3496 35.2872C21.7314 35.3755 21.1539 35.3755 20.5289 35.3619C20.3455 35.2804 20.4134 34.1798 20.4202 33.9488C20.4202 33.8741 20.4202 33.7993 20.4202 33.7246C20.6512 33.7382 22.2681 33.711 22.3157 33.7993C22.4108 33.9828 22.3836 34.995 22.3496 35.2872Z" fill="#87CFDE"/>
<path d="M22.7242 32.8351L20.5366 32.7604C20.3464 32.8419 20.4347 33.5349 20.4279 33.7251C20.4279 33.7998 20.4279 33.8745 20.4279 33.9493C19.8776 33.793 19.1982 34.2278 18.7227 33.8745V32.5362C19.3545 32.5362 22.4049 32.6449 22.6562 32.3867C22.7377 32.5837 22.7242 32.6449 22.731 32.8351H22.7242Z" fill="#F5F9F8"/>
<path d="M22.647 32.3935C22.3956 32.6516 19.3452 32.5361 18.7134 32.5429C18.4145 32.5429 16.4647 32.4546 16.4103 32.5769V35.9262C15.4456 35.8447 14.5013 35.6816 13.5909 35.4506V33.2087L16.2269 33.8745L16.2609 32.5022C16.1522 32.3527 13.9306 32.5361 13.5909 32.5429C12.633 32.5429 9.0595 32.9777 10.5066 31.2793H22.4635C22.8236 31.4695 22.9459 32.0877 22.647 32.3935Z" fill="#F1B525"/>
<path d="M18.7327 35.987C18.4949 35.9938 18.2571 36.0006 18.0125 36.0006C17.4758 36.0006 16.9391 35.9802 16.416 35.9258V32.5765C16.4704 32.4542 18.4202 32.5426 18.7191 32.5426V33.8741C18.7191 34.5739 18.7327 35.2872 18.7327 35.987Z" fill="#519C32"/>
<path d="M13.5898 33.2096V32.5438C13.9295 32.5438 16.1511 32.3536 16.2598 32.5099L16.2258 33.8822L13.5898 33.2164V33.2096Z" fill="#DA9320"/>
<path d="M22.7267 32.8355C22.7471 33.6643 22.7131 34.4931 22.7267 35.322C22.6044 35.4511 22.4006 35.2812 22.3531 35.288C22.3802 35.0027 22.4074 33.9836 22.3191 33.8002C22.2783 33.7187 20.6546 33.7458 20.4236 33.7254C20.4372 33.5352 20.3489 32.8423 20.5323 32.7607L22.7199 32.8355H22.7267Z" fill="#76C4D4"/>
<path d="M9.50397 8.40527L9.44282 33.8341C9.25939 33.7322 9.06917 33.6303 8.89253 33.5148C8.72269 33.4265 8.55964 33.3246 8.40338 33.2227C8.34224 25.0023 8.49849 16.7547 8.38979 8.55474C8.55964 8.5887 8.72948 8.57512 8.89253 8.54115C9.09635 8.50718 9.30015 8.43924 9.50397 8.40527Z" fill="#62AC34"/>
<path d="M21.536 8.25601C17.6568 8.54814 13.1525 7.80083 9.50427 8.40547C9.13062 8.46661 8.77734 8.63646 8.3901 8.55493C8.38331 7.90953 8.40369 7.26413 8.3901 6.62552C10.0478 6.7546 9.70809 6.57117 9.8032 5.1377L21.536 8.25601Z" fill="#90D534"/>
<path d="M21.9131 6.92473C21.6821 7.31877 22.0965 8.11363 21.5394 8.26309L9.80666 5.14478C9.82024 4.90021 9.79307 4.64884 9.80666 4.40427C9.94253 4.16649 10.092 4.28877 10.4385 4.32954C13.8217 4.75754 17.6738 6.40841 21.0571 6.8568C21.3152 6.89076 21.6685 6.9655 21.9131 6.93153V6.92473Z" fill="#62AC34"/>
<path d="M20.503 4.173C20.9582 4.30208 23.9134 5.07656 23.995 5.32114C24.1444 5.69479 22.181 6.8769 21.9161 6.91766C21.6783 6.95163 21.3182 6.8769 21.0601 6.84293C17.6768 6.39454 13.8247 4.75046 10.4414 4.31567C10.095 4.27491 9.94551 4.15262 9.80963 4.3904C9.67376 4.62818 9.78246 4.76405 9.70093 4.98145L8.40333 4.75726C8.39653 4.58062 8.4441 4.03713 8.36936 3.94201C7.41145 3.51401 5.02684 3.79255 5.35974 2.31152L19.4296 5.42984L20.503 4.16621V4.173Z" fill="#F1B525"/>
<path d="M20.4968 4.17219L19.4233 5.43582L5.35352 2.31751C5.42825 1.99141 5.76794 1.48188 6.1348 1.42753C6.65112 1.34601 10.6662 1.76043 11.4067 1.87592C14.0971 2.28354 17.82 3.41809 20.5035 4.17899L20.4968 4.17219Z" fill="#FED527"/>
<path d="M9.8045 5.13704C9.71618 6.57051 10.0559 6.75394 8.39141 6.62486C8.38461 6.00664 8.42537 5.38161 8.39141 4.77018L9.68901 4.99437C9.77054 4.77697 9.66863 4.62751 9.79771 4.40332C9.78413 4.64789 9.8113 4.89926 9.79771 5.14383L9.8045 5.13704Z" fill="#F1B525"/>
<path d="M11.174 10.042L13.4363 10.1507L13.3276 12.6372C12.9675 12.5489 11.2012 12.841 11.0653 12.5285C11.0177 12.413 11.0653 10.0895 11.174 10.042Z" fill="#A8E1EE"/>
<path d="M15.8572 10.042L18.1195 10.1507L18.0108 12.6372L15.8164 12.6032L15.8572 10.042Z" fill="#9FDDEB"/>
<path d="M20.5345 10.042L22.7289 10.076L22.6881 12.6372L20.4258 12.6032L20.5345 10.042Z" fill="#8AD2E1"/>
<path d="M11.1771 25.4834L13.4394 25.5989L13.3307 27.9359L11.0684 27.8272L11.1771 25.4834Z" fill="#A8E1EF"/>
<path d="M15.8572 25.4834L18.1195 25.5989L18.0108 27.9359L15.8164 27.8952L15.8572 25.4834Z" fill="#9ADAE9"/>
<path d="M11.1898 21.4729L11.0781 23.7393L13.3445 23.8509L13.4561 21.5845L11.1898 21.4729Z" fill="#A7E1EF"/>
<path d="M11.1785 14.791L13.4408 14.9065L13.3321 17.0941L11.1445 17.0601L11.1785 14.791Z" fill="#A7E1EF"/>
<path d="M15.8613 21.4812L15.8242 23.7432L18.0862 23.7803L18.1233 21.5183L15.8613 21.4812Z" fill="#9DDCEB"/>
<path d="M15.8572 14.791L18.1195 14.8997V16.9786C18.038 17.2503 15.8979 17.23 15.8164 17.0533L15.8504 14.791H15.8572Z" fill="#9EDDEB"/>
<path d="M20.5345 14.791L22.7289 14.8318L22.6881 17.0941L20.4258 17.0601L20.5345 14.791Z" fill="#8FD4E3"/>
<path d="M11.1797 18.2832H13.3333L13.442 20.3281L11.1797 20.3621V18.2832Z" fill="#A7E1EF"/>
<path d="M15.8594 18.2832H18.013L18.1217 20.3281L15.8594 20.3621V18.2832Z" fill="#9DDCEB"/>
<path d="M22.4299 25.4833C22.3416 26.2238 22.5658 27.3583 22.2057 27.9358C21.9612 27.9562 20.5005 27.9901 20.4258 27.8271V25.5988C20.4937 25.4493 22.2057 25.4425 22.4299 25.4901V25.4833Z" fill="#8ED3E2"/>
<path d="M20.5357 18.2832H22.6893L22.7301 20.3281L20.4609 20.3621L20.5357 18.2832Z" fill="#91D5E4"/>
<path d="M22.4299 21.4764C22.3076 22.0539 22.4911 23.0865 22.4299 23.5961C22.4028 23.8067 22.1718 23.6097 22.2057 23.8542C21.9815 23.8882 20.4937 23.9018 20.4258 23.7455V21.5919C20.4937 21.4425 22.2057 21.4357 22.4299 21.4832V21.4764Z" fill="#90D5E4"/>
<path d="M15.8559 28.6779C16.1412 28.5488 17.5883 28.773 18.0095 28.6779C18.6753 30.7636 17.1807 29.9348 15.8559 30.091C15.6861 30.0163 15.6861 28.7594 15.8559 28.6779Z" fill="#9ADAEA"/>
<path d="M20.5317 28.6775C20.6404 28.6299 22.6174 28.6707 22.6853 28.7522C22.7261 28.8066 22.7532 29.9071 22.7193 29.9751C22.6581 30.1177 20.654 30.1381 20.5317 30.0838C20.3618 30.009 20.3618 28.7522 20.5317 28.6707V28.6775Z" fill="#8BD3E2"/>
<path d="M22.2051 27.9366C22.5651 27.3659 22.341 26.2313 22.4293 25.484C22.5108 25.4976 22.6806 25.4433 22.7282 25.518V27.8958C22.6738 27.9705 22.3206 27.923 22.2051 27.9298V27.9366Z" fill="#70C6D5"/>
<path d="M22.2046 23.853C22.1706 23.6085 22.4016 23.8055 22.4288 23.5949C22.4899 23.0854 22.3065 22.0595 22.4288 21.4752C22.5103 21.4888 22.6801 21.4345 22.7277 21.5092V23.7376C22.7073 23.7783 22.2997 23.8327 22.2046 23.8463V23.853Z" fill="#74C9D8"/>
<path d="M27.0364 13.0105C27.0364 13.0649 27.05 13.092 27.1112 13.0853C26.2008 13.0717 25.2701 13.0445 24.3665 13.16C24.3665 12.5757 24.1287 8.39759 24.3325 8.26172L27.0432 8.29569C27.1316 9.83107 26.9277 11.4955 27.0432 13.0105H27.0364Z" fill="#DAE0E1"/>
<path d="M27.1108 13.9014C27.104 14.0916 27.104 14.2818 27.0972 14.4788C27.0904 14.6691 27.0904 14.8593 27.0904 15.0495C27.0225 18.0387 27.0225 21.028 27.0293 24.0172C27.0361 27.1083 27.0497 30.1995 27.0361 33.2838V33.5759C27.0361 33.5759 26.9885 33.6099 26.9614 33.6167C26.1121 34.1126 25.2154 34.5339 24.2846 34.8803C24.2846 27.9032 24.2507 20.8921 24.2846 13.9014H27.1108Z" fill="#F5F9F8"/>
<path d="M27.2749 33.4336C27.1934 33.4879 27.1186 33.5355 27.0371 33.5762V33.2841C27.2002 33.2433 27.2749 33.3385 27.2749 33.4336Z" fill="#517A8D"/>
<path d="M24.5499 33.2821C24.7198 33.1666 24.9304 33.5335 24.6994 33.5811C24.5499 33.615 24.4412 33.3637 24.5499 33.2821Z" fill="#597E8A"/>
<path d="M25.2141 33.284C25.3296 33.1957 25.4791 33.4538 25.4723 33.4674C25.418 33.678 24.9424 33.4946 25.2141 33.284Z" fill="#4F7D8E"/>
<path d="M26.4038 33.2839C26.5805 33.1616 26.7163 33.61 26.4786 33.5828C26.3019 33.5624 26.3427 33.3314 26.4038 33.2839Z" fill="#537C8C"/>
<path d="M25.8782 33.2826C25.9326 33.2418 26.1432 33.4524 26.1364 33.466C26.0888 33.6834 25.5997 33.4796 25.8782 33.2826Z" fill="#427282"/>
</svg>
