<svg width="431" height="257" viewBox="0 0 431 257" fill="none" xmlns="http://www.w3.org/2000/svg">
<path d="M430.914 113.617L416.191 215.848C415.504 220.633 410.809 224.515 405.705 224.515H391.585C389.321 205.331 372.958 190.399 353.171 190.399C333.385 190.399 317.026 205.329 314.762 224.515H296.684C291.582 224.515 287.999 220.633 288.691 215.848L303.41 113.617C304.098 108.829 308.797 104.949 313.9 104.949H422.922C428.025 104.949 431.602 108.827 430.915 113.617H430.914Z" fill="#FFCE09"/>
<path d="M326.946 8.38342C326.28 8.29806 325.597 8.25391 324.895 8.25391H135.634C126.777 8.25391 118.626 15.2699 117.431 23.9254L91.8749 208.839C91.6526 210.433 91.685 211.972 91.9396 213.423C93.0611 219.845 98.5258 224.515 105.752 224.515H131.968C132.018 224.045 132.082 223.576 132.158 223.11C135.033 204.606 151.082 190.399 170.377 190.399C189.672 190.399 205.752 204.634 208.606 223.163C208.678 223.611 208.739 224.063 208.789 224.513H295.009C303.869 224.513 312.02 217.494 313.216 208.839L338.769 23.9254C339.871 15.9543 334.689 9.3754 326.948 8.38342H326.946Z" fill="#E6BB21"/>
<path d="M328.253 16.3059L310.777 207.063C309.96 215.991 302.172 223.225 293.382 223.222L208.606 223.165C205.752 204.635 189.694 190.4 170.377 190.4C151.059 190.4 135.033 204.607 132.157 223.112L105.624 223.094C99.1129 223.087 93.8851 219.116 91.9394 213.425C91.255 211.433 90.9798 209.231 91.1903 206.913L108.668 16.1558C109.487 7.22645 117.273 -0.0073533 126.066 5.60965e-06L313.822 0.129522C319.781 0.132466 324.669 3.46016 326.948 8.38475C328.029 10.7263 328.519 13.43 328.255 16.3059H328.253Z" fill="#FFCE09"/>
<path d="M170.348 45.1811C170.002 48.9533 166.712 52.0087 163.001 52.0058C159.289 52.0028 156.559 48.943 156.905 45.1723C157.25 41.4001 160.54 38.3447 164.252 38.3477C167.964 38.3506 170.694 41.4104 170.348 45.1811Z" fill="white"/>
<path d="M260.695 45.2436C260.35 49.0158 257.06 52.0712 253.348 52.0683C249.637 52.0653 246.906 49.0055 247.252 45.2348C247.598 41.4626 250.888 38.4072 254.599 38.4102C258.311 38.4131 261.041 41.4729 260.695 45.2436Z" fill="white"/>
<path d="M215.01 146.634H214.985L185.059 146.614C175.582 146.606 166.955 142.867 160.767 136.082C154.43 129.132 151.436 119.892 152.337 110.064L157.933 48.992C158.203 46.0366 160.819 43.8613 163.773 44.1322C166.726 44.403 168.903 47.0168 168.632 49.9722L163.037 111.044C162.414 117.83 164.429 124.151 168.707 128.842C172.836 133.369 178.646 135.865 185.068 135.87L214.993 135.89H215.011C228.944 135.89 241.334 124.337 242.636 110.125L248.232 49.0553C248.503 46.0999 251.118 43.9246 254.072 44.1954C257.026 44.4662 259.203 47.0801 258.932 50.0355L253.336 111.106C252.465 120.618 248.017 129.541 240.814 136.23C233.591 142.94 224.428 146.634 215.013 146.634H215.01Z" fill="#198545"/>
<path d="M380.905 229.083C380.905 244.375 368.463 256.814 353.171 256.814C337.879 256.814 325.439 244.375 325.439 229.083C325.439 227.702 325.541 226.345 325.735 225.019C327.707 211.647 339.261 201.352 353.169 201.352C367.078 201.352 378.634 211.645 380.606 225.019C380.801 226.345 380.902 227.702 380.902 229.083H380.905Z" fill="#198545"/>
<path d="M198.11 229.083C198.11 244.375 185.668 256.814 170.376 256.814C155.084 256.814 142.645 244.375 142.645 229.083C142.645 227.702 142.746 226.345 142.94 225.019C144.913 211.647 156.466 201.352 170.374 201.352C184.283 201.352 195.839 211.645 197.811 225.019C198.006 226.345 198.107 227.702 198.107 229.083H198.11Z" fill="#198545"/>
<path d="M114.369 155.875H40.3837C38.2183 155.875 36.4629 157.63 36.4629 159.796V164.279C36.4629 166.444 38.2183 168.2 40.3837 168.2H114.369C116.534 168.2 118.29 166.444 118.29 164.279V159.796C118.29 157.63 116.534 155.875 114.369 155.875Z" fill="#198545"/>
<path d="M77.9058 136.531H3.92083C1.75542 136.531 0 138.287 0 140.452V144.935C0 147.101 1.75542 148.856 3.92083 148.856H77.9058C80.0712 148.856 81.8266 147.101 81.8266 144.935V140.452C81.8266 138.287 80.0712 136.531 77.9058 136.531Z" fill="#198545"/>
<path d="M88.5192 117.188H84.8544C82.689 117.188 80.9336 118.943 80.9336 121.108V125.591C80.9336 127.757 82.689 129.512 84.8544 129.512H88.5192C90.6846 129.512 92.44 127.757 92.44 125.591V121.108C92.44 118.943 90.6846 117.188 88.5192 117.188Z" fill="#198545"/>
<path d="M73.4559 117.188H15.3544C13.189 117.188 11.4336 118.943 11.4336 121.108V125.591C11.4336 127.757 13.189 129.512 15.3544 129.512H73.4559C75.6214 129.512 77.3768 127.757 77.3768 125.591V121.108C77.3768 118.943 75.6214 117.188 73.4559 117.188Z" fill="#198545"/>
</svg>
