<svg width="41" height="36" viewBox="0 0 41 36" fill="none" xmlns="http://www.w3.org/2000/svg">
<path d="M40.8233 18.0034C40.8233 18.2751 40.8233 18.5469 40.8029 18.8119C40.7893 19.1447 40.7689 19.4776 40.7282 19.8105C40.7282 19.8309 40.7214 19.8581 40.7214 19.8785C40.7146 19.96 40.7078 20.0347 40.6942 20.1162C40.6534 20.4967 40.5991 20.8704 40.5312 21.244C40.4428 21.7264 40.3341 22.1951 40.2051 22.6571C40.1983 22.7047 40.1847 22.7454 40.1711 22.793C40.1303 22.956 40.0828 23.1259 40.0352 23.2889C39.9877 23.4316 39.9401 23.5743 39.8925 23.7169C39.7838 24.0498 39.6683 24.3759 39.5325 24.6952C39.5325 24.702 39.5257 24.7088 39.5257 24.7156C39.3626 25.1232 39.186 25.5241 38.989 25.9113C38.9278 26.0472 38.8599 26.1763 38.792 26.3053C38.6968 26.4888 38.6017 26.6722 38.493 26.8488C38.4319 26.9643 38.364 27.0798 38.2892 27.1953C38.2892 27.2089 38.2756 27.2225 38.2688 27.2361C38.2417 27.2768 38.2145 27.3244 38.1873 27.3652C38.1465 27.4331 38.1058 27.5078 38.0582 27.5758C37.9971 27.6777 37.9292 27.7796 37.8612 27.8815C37.6642 28.194 37.4468 28.4997 37.2226 28.7986C37.1207 28.9345 37.0188 29.0772 36.9033 29.2063C33.6151 33.3504 28.5266 36 22.8267 36C17.7993 36 13.2543 33.9415 9.99332 30.6194C9.67401 30.3001 9.37509 29.974 9.08296 29.6275C9.06937 29.6071 9.04899 29.5867 9.0354 29.5663C8.94029 29.4576 8.85197 29.3489 8.76365 29.2334C8.62778 29.0704 8.4987 28.9005 8.37641 28.7307C8.09107 28.3503 7.81932 27.9562 7.56795 27.5554C7.5136 27.4739 7.45926 27.3855 7.4117 27.304C7.21468 26.9779 7.03125 26.6518 6.85461 26.3121C6.18883 25.0349 5.6725 23.6694 5.33281 22.2359C5.27167 22.0185 5.22412 21.8011 5.18336 21.5837C5.01351 20.7413 4.89801 19.8785 4.85046 19.0021V18.9681C4.83687 18.7779 4.83008 18.5877 4.83008 18.3974C4.83008 18.2684 4.83008 18.1325 4.83008 18.0034V17.8675C4.83008 17.7045 4.83008 17.5414 4.84367 17.3852C4.85726 16.896 4.89802 16.4205 4.95237 15.9449C4.97275 15.7207 4.99992 15.5033 5.0271 15.2859C5.16297 14.4095 5.35999 13.5603 5.61815 12.7247C5.72685 12.3714 5.84234 12.0317 5.97143 11.692C6.10051 11.3387 6.24318 10.9855 6.39264 10.6458C6.39264 10.639 6.39264 10.6322 6.39943 10.6322C6.39943 10.6186 6.40623 10.6118 6.41302 10.6118C6.47416 10.4827 6.52851 10.3469 6.59645 10.2246C6.69156 10.0208 6.78667 9.82374 6.89537 9.63352C9.8982 3.9064 15.9107 0 22.8335 0C30.7346 0 37.44 5.08851 39.8586 12.1676C39.9333 12.3714 40.0012 12.582 40.0624 12.7926C40.1235 12.9828 40.1779 13.1731 40.2254 13.3633C40.2662 13.5127 40.307 13.6554 40.3341 13.8049C40.504 14.4842 40.6263 15.1772 40.701 15.877C40.7146 15.9653 40.7282 16.0536 40.735 16.1419C40.7553 16.3593 40.7757 16.5767 40.7893 16.8009C40.8165 17.2017 40.8301 17.6026 40.8301 18.0034H40.8233Z" fill="#F1F1F1"/>
<path d="M40.8235 18.003C40.8235 18.2748 40.8235 18.5465 40.8031 18.8115C40.7895 19.1444 40.7692 19.4773 40.7284 19.8102C40.7284 19.8306 40.7216 19.8577 40.7216 19.8781C40.7148 19.9596 40.708 20.0344 40.6944 20.1159C40.6537 20.4963 40.5993 20.87 40.5314 21.2437C40.443 21.726 40.3343 22.1948 40.2053 22.6568C40.1985 22.7043 40.1849 22.7451 40.1713 22.7926C40.1305 22.9557 40.083 23.1255 40.0354 23.2886C39.9879 23.4312 39.9403 23.5739 39.8928 23.7166C39.7841 24.0495 39.6686 24.3756 39.5327 24.6949C39.5327 24.7017 39.5259 24.7085 39.5259 24.7153C39.3628 25.1229 39.1862 25.5237 38.9892 25.911L38.6903 25.9245L29.7565 26.3933H29.641L26.0132 26.5903L25.3949 26.6175L24.7088 26.6583L23.8867 26.699V26.6379C23.8867 26.6379 23.8935 26.6311 23.9003 26.6243L24.0294 25.68L24.1653 24.7153L24.3079 23.7166L24.3215 23.5943V23.5671L25.1096 17.9759L26.0064 11.5762L34.9197 12.6971C34.9197 12.6971 34.9401 12.7039 34.9469 12.7039C34.9605 12.7039 34.9741 12.7107 34.9877 12.7107L38.2487 13.1116L40.2189 13.3629C40.2596 13.5124 40.3004 13.6551 40.3276 13.8045C40.4974 14.4839 40.6197 15.1769 40.6944 15.8766C40.708 15.9649 40.7216 16.0532 40.7284 16.1416C40.7488 16.359 40.7692 16.5764 40.7827 16.8006C40.8099 17.2014 40.8235 17.6022 40.8235 18.003Z" fill="#E6EEF2"/>
<path d="M9.28125 29.1998H9.34239C9.34918 29.1319 9.30163 29.1523 9.28125 29.1387V29.1998Z" fill="#F9FDFD"/>
<path d="M34.5869 27.0189C34.5869 27.0189 34.6277 27.1208 34.648 27.1344C34.648 27.1344 34.7499 27.1751 34.7635 27.2227C31.7063 27.5216 28.5405 27.6779 25.4425 27.8409C25.3338 28.004 25.2047 28.0379 25.1504 28.1942C28.1125 27.8613 31.1153 27.7662 34.0909 27.542C34.1861 27.5352 34.5529 27.474 34.5325 27.6575C34.5733 27.6575 34.6141 27.6575 34.648 27.6575C34.5325 27.5624 34.716 27.4808 34.7363 27.4808C35.4429 27.4537 36.1834 27.3857 36.89 27.4808C37.0734 27.5216 36.9375 27.311 36.89 27.1887C36.6726 27.1887 36.4891 27.2634 36.2717 27.2499C36.2446 27.1683 36.4348 26.9238 36.4755 26.8966C35.8777 26.8151 35.2187 26.8626 34.6141 26.8966C34.5665 26.8966 34.5937 27.0121 34.5869 27.0121V27.0189Z" fill="#39496F"/>
<path d="M25.1507 28.1948C25.0963 28.1948 25.0895 28.2491 25.0352 28.2559C25.0895 28.3306 25.2797 28.2559 25.3884 28.2559C28.4116 28.1404 31.5164 27.9026 34.5328 27.6649C34.5532 27.4814 34.1863 27.5426 34.0912 27.5494C31.1155 27.7668 28.1127 27.8687 25.1507 28.2016V28.1948Z" fill="#7790AF"/>
<path d="M38.2689 27.2361L37.9224 27.372C38.0107 27.372 38.099 27.372 38.1873 27.372C38.1466 27.4399 38.1058 27.5147 38.0583 27.5826C37.9971 27.6845 37.9292 27.7864 37.8612 27.8883C28.5266 28.493 19.2804 29.777 9.99334 30.6262C9.67403 30.3069 9.37511 29.9808 9.08298 29.6343C9.06939 29.6139 9.04901 29.5935 9.03542 29.5732C8.94031 29.4645 8.85199 29.3558 8.76367 29.2403C8.93352 29.2267 9.11015 29.2199 9.28 29.2063H9.34114C9.96616 29.1723 10.5165 29.3693 11.1075 29.0297C11.1007 29.0636 11.1075 29.0772 11.1279 29.0772C11.1347 29.084 11.1483 29.0908 11.1687 29.0908C11.6238 29.1452 12.1334 29.0025 12.5818 28.9685C13.7503 28.8938 14.9256 28.8598 16.0941 28.7919C16.2096 28.7851 16.3183 28.8258 16.3591 28.6764C16.8482 29.0636 17.2083 29.0976 17.8333 29.0297C17.8129 29.2471 17.8741 29.2131 18.0439 29.2063C19.4366 29.1859 24.002 28.853 25.2385 28.5609C25.3064 28.5473 25.354 28.5269 25.3811 28.5133C25.4559 28.4726 25.3947 28.4182 25.3879 28.262C26.1488 28.2348 26.9097 28.2008 27.6706 28.1533C29.1992 28.0717 30.7346 27.963 32.2564 27.8476C33.0173 27.7932 33.7782 27.7321 34.5323 27.6709C34.5663 27.6709 34.6002 27.6777 34.641 27.6709H34.6478C35.0215 27.6437 35.3951 27.6166 35.7688 27.5894C36.122 27.5554 36.4753 27.5282 36.8286 27.4943H36.9169C36.9169 27.4943 36.9645 27.4943 36.9713 27.4875C37.0188 27.4467 36.9237 27.3041 36.8897 27.2021C37.3517 27.2021 37.8273 27.2293 38.2892 27.2021H38.364L38.2689 27.2429V27.2361Z" fill="#2E3C5D"/>
<path d="M11.4964 29.376L9.08467 29.6273C9.08467 29.6273 9.0507 29.5866 9.03711 29.5662C9.85915 29.5119 10.6744 29.4507 11.4964 29.376Z" fill="#63779B"/>
<path d="M34.6482 27.6641C35.3955 27.603 36.1428 27.5486 36.8901 27.4875C36.1835 27.3923 35.443 27.4603 34.7365 27.4875C34.7093 27.4875 34.5327 27.569 34.6482 27.6641Z" fill="#718AA9"/>
<path d="M13.6768 29.1455L12.5898 29.2882L13.3236 29.3221L13.6768 29.1455Z" fill="#7182A7"/>
<path d="M12.5008 29.2613C12.3241 29.2409 12.1679 29.3156 11.998 29.3496C11.998 29.3768 12.5212 29.4583 12.5008 29.2613Z" fill="#5E7295"/>
<path d="M15.743 29.0234L15.3014 29.0506C15.2335 29.1185 15.7226 29.1321 15.743 29.0234Z" fill="#7788A9"/>
<path d="M11.1686 29.0846V29.0234H11.1074C11.1074 29.0778 11.121 29.0778 11.1686 29.0846Z" fill="#FDFDFD"/>
<path d="M19.2552 28.2554C18.7049 28.6358 18.6234 28.9347 17.8421 29.0231C17.815 29.2405 17.8761 29.1997 18.046 29.1997C19.4387 29.1793 24.0041 28.8464 25.2405 28.5475C25.4987 28.4863 25.4036 28.4592 25.39 28.2554C25.2813 28.2554 25.091 28.3301 25.0367 28.2554C24.3369 28.3369 24.0992 28.3573 23.3858 28.3709L20.2879 28.663L20.349 28.4863C21.3069 28.4863 22.2581 28.3437 23.2092 28.3097C23.2228 28.1467 23.0597 28.0991 22.9714 28.0176L19.2552 28.2554Z" fill="#425477"/>
<path d="M23.2084 28.3164C22.2505 28.3504 21.3062 28.4862 20.3483 28.493L20.2871 28.6697L23.3851 28.3775C23.3375 28.3775 23.3239 28.3164 23.2084 28.3164Z" fill="#859DBC"/>
<path d="M20.1646 28.5537L18.8398 28.7032C18.8398 28.7439 19.492 28.7371 19.5736 28.7303C19.6279 28.7303 20.219 28.6964 20.1646 28.5537Z" fill="#697FA0"/>
<path d="M39.8931 23.7177C39.7844 24.0506 39.6689 24.3767 39.5331 24.696C39.5331 24.7028 39.5263 24.7096 39.5263 24.7164H39.37C35.4025 24.73 31.4281 24.7028 27.4538 24.7164H24.1656C22.5963 24.7164 21.0269 24.7096 19.4576 24.7164C18.7238 25.5316 18.126 26.4827 17.2768 27.1961C17.1885 27.1961 17.1001 27.1825 17.0118 27.1961C16.7265 27.2368 16.4072 27.264 16.0607 27.298C13.7712 27.5086 10.3132 27.5833 7.56853 27.5562C6.61062 27.5426 5.73423 27.5222 5.02768 27.4882C4.49777 27.461 3.94068 27.2912 3.42436 27.1893C3.60779 27.5697 4.05617 28.1404 4.38907 28.3782L6.203 28.6635C5.96522 28.6771 5.71385 28.6703 5.46248 28.6432C5.38095 28.6432 5.29264 28.6296 5.21111 28.6092C3.91351 28.4054 2.514 27.692 1.49494 26.7409C0.428322 25.7422 -0.230673 24.4786 0.0750455 23.2421C0.340001 22.1483 0.645722 21.3467 0.645722 21.3467C0.645722 21.3467 0.645719 21.3603 0.632132 21.4554C0.625338 21.5029 0.618545 21.5437 0.611751 21.5913C0.584576 21.8087 0.564198 22.0193 0.55061 22.2367C0.530229 22.6783 0.570991 23.0655 0.645722 23.4188C0.713659 23.7109 0.815566 23.9759 0.937853 24.2068C1.06693 24.4446 1.22319 24.6552 1.39983 24.8455C2.28981 25.783 3.77763 26.1431 5.36057 26.2518C5.88369 26.2925 6.38643 26.3129 6.8552 26.3129C9.17865 26.3333 10.9518 25.8373 12.3717 23.7109C12.4668 23.5682 12.5619 23.4256 12.6502 23.2693C12.6842 23.2082 12.7182 23.0791 12.7522 22.9296C12.7725 22.8481 12.7929 22.753 12.8201 22.6647C12.8405 22.5967 12.8609 22.5288 12.8812 22.4676C12.9152 22.3725 12.956 22.291 13.0035 22.2367L22.3177 22.3589C22.3177 22.5356 22.3245 22.7462 22.3313 22.95C22.3381 23.1538 22.3517 23.3576 22.3721 23.5343C22.3789 23.6294 22.2973 23.6905 22.3449 23.7177H39.8863H39.8931Z" fill="#DBE8ED"/>
<path d="M4.38819 28.4454C5.91678 28.853 7.83941 28.7172 8.74977 28.7308C9.66013 28.7443 10.5229 28.7511 11.4061 28.7308C11.7458 28.724 12.0719 28.6832 12.4116 28.6696C13.8654 28.6085 14.5041 28.8598 15.8356 28.0786C16.2568 27.8272 16.6441 27.5147 17.0177 27.1954C14.178 27.5758 8.04322 27.3448 5.01321 27.1954C4.4833 27.1682 1.99679 26.8285 1.48047 26.7334C1.71825 26.9848 2.84601 28.031 4.40178 28.4522L4.38819 28.4454Z" fill="#3B4E6F"/>
<path d="M24.6827 9.38277C24.7031 9.5662 24.1868 10.5513 24.1188 10.5649C24.0849 10.5717 23.521 10.266 23.4395 10.5037C28.3581 11.2171 33.6369 12.4603 38.5419 13.4522C38.5691 13.2416 38.3109 13.4047 38.2498 13.2484C38.1954 13.1057 38.4468 12.637 38.4264 12.4535C37.8014 12.3109 37.1628 12.1818 36.5378 12.0391C35.6342 11.8353 34.7306 11.5975 33.8271 11.3869C32.5091 11.088 31.1639 10.7279 29.8731 10.4426C28.3989 10.1165 26.7956 9.76322 25.2738 9.43712C25.0971 9.39636 24.839 9.40995 24.6827 9.37598V9.38277Z" fill="#64B638"/>
<path d="M25.0356 9.02246C24.8657 9.20589 25.3005 9.26024 25.2734 9.43688C26.7952 9.76298 28.3985 10.1163 29.8727 10.4424C29.8252 10.3337 29.7708 10.2182 29.6689 10.1502C29.3088 9.90565 25.7217 9.15834 25.0356 9.02925V9.02246Z" fill="#405278"/>
<path d="M8.75195 28.7305C8.94897 28.8799 9.05088 29.0294 9.28186 29.1449C9.30224 29.1517 9.3498 29.1381 9.343 29.206C9.96803 29.1653 10.5183 29.3691 11.1094 29.0294H11.1705L11.4083 28.7373C10.5251 28.7576 9.62834 28.7508 8.75195 28.7373V28.7305Z" fill="#192140"/>
<path d="M21.7871 8.66904C22.7518 8.85247 23.7165 9.17177 24.6812 9.37558C24.8375 9.40955 25.0957 9.39597 25.2723 9.43673C25.3063 9.26009 24.8647 9.20574 25.0345 9.02231C23.9407 8.8117 22.942 8.57392 21.7871 8.66904Z" fill="#28345A"/>
<path d="M33.8271 11.3865C34.7307 11.5904 35.6342 11.8281 36.5378 12.0387C36.8571 11.8213 36.3476 11.7058 36.3612 11.4477C36.0962 11.4137 35.7973 11.3458 35.5323 11.3322C35.0092 11.305 34.3706 11.4681 33.8203 11.3933L33.8271 11.3865Z" fill="#2B3A5D"/>
<path d="M0.611922 21.5905C0.584747 21.8079 0.564369 22.0185 0.550781 22.2427H10.7278C11.2034 22.1136 11.5702 21.9573 11.9982 21.7128C11.4411 21.6584 10.8433 21.6109 10.2862 21.5973C9.89216 21.5905 9.49813 21.5973 9.10409 21.5973C6.90292 21.5701 4.69496 21.5973 2.49379 21.5973C2.14052 21.5973 1.77365 21.5361 1.43396 21.5361C1.1826 21.5361 0.876877 21.6584 0.605127 21.5973L0.611922 21.5905Z" fill="#FFBF29"/>
<path d="M40.0554 12.7934C39.5119 12.6847 38.9684 12.5692 38.4249 12.4469C37.7931 12.3042 37.1613 12.1751 36.5363 12.0325C36.8556 11.8151 36.3461 11.6996 36.3596 11.4414C36.8012 11.5025 37.3108 11.6588 37.7727 11.7403C37.9018 11.7607 38.0037 11.7811 38.1328 11.7947C38.4589 11.849 38.4997 12.0121 38.9549 11.917C38.9549 12.046 39.2742 12.1276 39.3693 12.1547C39.6342 12.2295 39.7565 12.148 39.7837 12.1547C39.8041 12.1615 39.8312 12.1615 39.8516 12.1683C39.9264 12.3721 39.9943 12.5828 40.0554 12.7934Z" fill="#3E4F76"/>
<path d="M12.998 22.2359L22.319 22.3514C22.3123 21.7875 22.3258 21.21 22.319 20.6393C20.5391 20.6665 18.4262 20.2929 16.687 20.6393C16.2658 20.7209 13.1883 22.0049 12.998 22.2291V22.2359Z" fill="#FFBD2A"/>
<path d="M25.0969 20.707C24.9542 21.2641 25.0833 21.8552 25.0357 22.4191L30.7017 22.4802C30.6813 21.9503 30.7017 21.4204 30.7017 20.8905L25.0969 20.7138V20.707Z" fill="#FFBE2C"/>
<path d="M11.8758 19.5862C11.8758 19.5862 12.0593 19.6133 11.9913 20.0278C11.8894 20.7275 11.0334 21.6107 10.2793 21.5903C10.8364 21.6039 11.4342 21.6515 11.9913 21.7058C15.5716 19.6541 16.9507 10.1157 22.3721 10.3195C19.3353 8.41726 16.1763 12.5682 14.6477 14.7762C14.1246 15.5303 11.9981 18.8864 11.8758 19.5862Z" fill="#64B636"/>
<path d="M20.4908 8.43746C17.8073 8.51219 16.1768 10.5163 14.7093 12.4797C13.8873 13.5803 11.4687 17.7585 10.4904 18.1729C10.0013 18.3835 4.28776 18.4786 3.64915 18.3495C3.44533 18.3088 3.07847 18.003 3.03091 17.7856C2.58932 15.8494 5.66009 11.0734 7.22265 9.78941C4.69538 11.352 3.47251 13.8928 2.20887 16.4541C2.18849 16.488 2.17491 16.5424 2.15453 16.5831C2.11376 16.6443 2.08659 16.7054 2.073 16.7734C1.87598 18.0506 0.809365 19.98 0.619141 21.5901C0.884096 21.6513 1.18982 21.529 1.44798 21.529C0.952034 20.5779 1.19661 18.7707 2.65726 19.7626C3.40457 20.2721 2.88145 21.033 2.5078 21.5901C4.70897 21.5901 6.91693 21.563 9.1181 21.5901C9.27436 20.1431 10.5652 19.5656 11.8899 19.586C12.019 18.8862 14.1387 15.5301 14.6618 14.776C16.1904 12.568 19.3495 8.41708 22.3863 10.3193C22.7327 10.3329 23.1064 10.4484 23.4461 10.496C23.5276 10.2514 24.0915 10.5639 24.1255 10.5571C24.1934 10.5435 24.7097 9.55842 24.6893 9.37499C23.7314 9.17118 22.7667 8.84508 21.7952 8.66845C21.3672 8.58692 20.9256 8.5054 20.4976 8.43066L20.4908 8.43746Z" fill="#7DC734"/>
<path d="M3.29492 18.6426L3.35607 18.8192C5.31266 19.1861 7.45948 19.057 9.46363 18.9075C7.75161 18.8396 5.82219 19.0842 4.12376 18.9347C3.8588 18.9143 3.49873 18.8396 3.29492 18.6426Z" fill="#4E7E41"/>
<path d="M7.21589 9.7895C5.66012 11.0667 2.58935 15.8427 3.02415 17.7857C3.07171 17.9963 3.44536 18.302 3.64238 18.3496C4.28099 18.4787 9.99452 18.3836 10.4837 18.173C11.462 17.7585 13.8805 13.5804 14.7026 12.4798C16.17 10.5164 17.8005 8.51227 20.484 8.43754C16.2516 7.75138 10.9796 7.47283 7.20909 9.79629L7.21589 9.7895Z" fill="#2B3758"/>
<path d="M11.0807 10.0893C10.2111 9.83796 9.76269 11.0269 10.3741 11.3258C11.2505 11.7606 11.8416 10.3067 11.0807 10.0893Z" fill="#FBFEFE"/>
<path d="M7.57608 17.3448C8.22148 16.6722 8.94162 16.0744 9.64137 15.4561L7.3383 11.8555C6.77442 11.8826 6.36 11.7536 5.9252 12.2359C5.55834 12.6435 4.54607 14.8583 4.27432 15.4833C4.13165 15.8026 3.41152 17.2021 3.77159 17.3448C3.94822 17.4127 7.16845 17.3788 7.57608 17.3448Z" fill="#4B879F"/>
<path d="M10.5781 11.8551C10.5781 12.616 10.8159 13.7166 10.6936 14.4503C10.9925 14.7356 11.0809 14.3144 11.3458 14.4775C11.0877 14.5998 10.8159 14.593 10.7548 14.8579C10.6732 15.2316 10.8499 15.7547 10.8159 16.1555C11.2847 15.5577 11.4681 14.7968 12.0252 14.2669L12.1135 14.4163C12.1067 14.7288 10.8363 16.4816 10.6393 16.9232L10.7004 17.0999C10.7819 17.0795 10.9178 17.1134 11.0265 17.0387C11.3662 16.4477 14.4913 12.2899 14.4166 11.9978C14.4166 11.991 14.2807 11.8551 14.2671 11.8483C13.9138 11.726 11.2031 11.8483 10.5781 11.8483V11.8551Z" fill="#345E7E"/>
<path d="M7.33789 11.8552L9.64097 15.4559C9.96707 15.1638 10.6328 14.8716 10.7008 14.4504C10.8231 13.7167 10.5853 12.6161 10.5853 11.8552C9.53227 11.8552 8.38413 11.8009 7.33789 11.8552Z" fill="#94C1D1"/>
<path d="M7.86719 17.2837C8.41748 17.2905 9.72188 17.4739 10.1974 17.3448C10.4148 17.2837 10.4352 17.0663 10.5235 16.9304L9.6947 15.6328C9.20555 16.054 8.30878 16.9848 7.86719 17.2837Z" fill="#4B879F"/>
<path d="M9.69531 15.6329L10.5241 16.9305C10.6804 16.6995 10.7959 16.4482 10.8163 16.1628C10.8502 15.762 10.6736 15.2389 10.7551 14.8652C10.3815 14.8652 9.98065 15.3816 9.69531 15.6329Z" fill="#96C4D3"/>
<path d="M10.7013 14.4512C10.6334 14.8724 9.96757 15.1645 9.64147 15.4566C8.94171 16.0749 8.22158 16.6727 7.57617 17.3453C7.70525 17.3317 7.59655 17.4744 7.8683 17.2842C8.3099 16.9852 9.21346 16.0477 9.69582 15.6333C9.98116 15.3819 10.382 14.8724 10.7556 14.8656C10.8168 14.6006 11.0885 14.6074 11.3467 14.4851C11.0817 14.3221 10.9934 14.7433 10.6945 14.458L10.7013 14.4512Z" fill="#222D4B"/>
<path d="M10.7005 17.1073L10.6394 16.9307C10.619 16.9782 10.5035 17.1684 10.5239 17.1956C10.7345 17.3179 10.6869 17.1141 10.7005 17.1073Z" fill="#A0D3DB"/>
<path d="M38.5406 13.4518V13.4178C38.5406 13.4178 38.5338 13.377 38.527 13.3634C38.5202 13.3499 38.5066 13.3431 38.493 13.3431C38.4591 13.3295 38.4115 13.3295 38.3708 13.3227C38.3368 13.3159 38.3028 13.3091 38.2757 13.2887C38.2757 13.2751 38.2553 13.2615 38.2485 13.2412C38.2349 13.214 38.2349 13.1664 38.2485 13.1121C38.2553 13.0917 38.2621 13.0645 38.2689 13.0373C38.2689 13.0034 38.2892 12.9694 38.3028 12.9354C38.3096 12.9015 38.3232 12.8675 38.3368 12.8335C38.3436 12.7996 38.3572 12.7656 38.364 12.7316C38.3776 12.6977 38.3911 12.6637 38.3979 12.6297C38.4183 12.555 38.4319 12.4938 38.4251 12.4463C38.9686 12.5686 39.5121 12.6841 40.0556 12.7928C40.1168 12.983 40.1711 13.1732 40.2187 13.3634C40.2594 13.5129 40.3002 13.6556 40.3274 13.805C39.7295 13.6827 39.1385 13.5673 38.5406 13.4518Z" fill="#70A470"/>
<path d="M37.9238 27.3722C38.0121 27.3722 38.1005 27.3722 38.1888 27.3722C38.216 27.3314 38.2431 27.2839 38.2703 27.2431L37.9238 27.379V27.3722ZM39.3709 24.7158C39.3437 24.7973 39.3165 24.8789 39.2758 24.9604C39.269 24.9876 39.2554 25.008 39.2418 25.0283C39.2146 25.0963 39.1739 25.1574 39.1331 25.2254C38.9972 25.4631 38.8342 25.6941 38.6915 25.9251C38.61 26.0542 38.5353 26.1833 38.4809 26.3191C38.4605 26.3667 38.4401 26.421 38.4198 26.4686C38.4198 26.489 38.413 26.5026 38.4062 26.523C38.3858 26.5909 38.3722 26.652 38.3654 26.72C38.4198 26.7404 38.4605 26.7879 38.4945 26.8491C38.6032 26.6724 38.6983 26.489 38.7934 26.3056C38.8614 26.1765 38.9293 26.0474 38.9904 25.9115C39.1875 25.5243 39.3641 25.1234 39.5271 24.7158H39.3709Z" fill="#1A2343"/>
<path d="M27.4542 24.7157C27.427 25.6465 26.3265 26.1288 25.98 26.6316C25.8849 26.7742 25.8305 27.1615 25.7422 27.3109C27.9094 27.3245 30.0698 27.0596 32.2302 27.0731C32.9707 26.9033 33.8675 27.0528 34.5876 27.012C34.5876 27.012 34.5673 26.8965 34.6148 26.8965C35.2195 26.8625 35.8716 26.815 36.4763 26.8965C36.782 26.6995 37.3323 26.7878 37.7127 26.781C37.7127 26.6927 37.8214 26.7267 37.8894 26.7199C37.9981 26.7199 38.2902 26.6995 38.3582 26.7199C38.4397 26.0337 39.153 25.4155 39.3636 24.7157C35.3893 24.7225 31.4218 24.7021 27.4474 24.7157H27.4542Z" fill="#55698A"/>
<path d="M29.75 26.312C29.913 26.1014 30.0897 25.8976 30.0761 25.6055C29.8995 25.8093 29.8383 26.0742 29.75 26.312Z" fill="#435875"/>
<path d="M29.7499 26.3125C29.7499 26.3125 29.5529 26.3872 29.6616 26.4891C29.8111 26.5095 29.7296 26.3397 29.7499 26.3125Z" fill="#435875"/>
<path d="M37.7188 26.7819C37.7867 26.7819 37.8886 26.8159 37.8954 26.7207C37.8275 26.7207 37.7255 26.6868 37.7188 26.7819Z" fill="#6A8A5F"/>
<path d="M11.8754 19.5865C10.5506 19.5661 9.25977 20.1435 9.10352 21.5906C9.49755 21.5906 9.89159 21.5838 10.2856 21.5906C11.0397 21.611 11.8889 20.7278 11.9976 20.028C12.0588 19.6068 11.8754 19.6136 11.8822 19.5865H11.8754Z" fill="#283557"/>
<path d="M10.7271 19.94C9.88466 19.7498 9.6197 21.0406 10.3738 21.1764C11.2978 21.3463 11.3589 20.0827 10.7271 19.94Z" fill="#FCFEFE"/>
<path d="M1.43285 21.5299C1.77254 21.5299 2.1462 21.591 2.49268 21.591C2.85954 21.034 3.38945 20.2731 2.64214 19.7635C1.18148 18.7716 0.936911 20.5856 1.43285 21.5299Z" fill="#273558"/>
<path d="M2.41186 19.7639C1.52867 19.6552 1.31127 21.0479 2.11973 21.1769C3.09123 21.34 3.2271 19.8658 2.41186 19.7639Z" fill="#FCFEFE"/>
<path d="M40.8244 18.004C40.8244 18.2757 40.8244 18.5475 40.8041 18.8124C40.7905 19.1453 40.7701 19.4782 40.7293 19.8111C40.7293 19.8315 40.7225 19.8587 40.7225 19.8791C40.7157 19.9606 40.7089 20.0353 40.6953 20.1168C40.6546 20.4973 40.6002 20.8709 40.5323 21.2446C40.1247 21.231 39.7171 21.2106 39.3094 21.1835L39.2483 15.4903C39.2483 15.4835 39.2347 15.4699 39.2211 15.4563C39.2075 15.4428 39.1871 15.4292 39.16 15.4224H39.1532C39.1532 15.4224 39.0784 15.3884 39.0309 15.3748C38.5961 15.2254 37.6789 15.0555 37.4683 15.2797C37.4547 15.2865 37.4411 15.3001 37.4344 15.3205C37.4276 15.3341 37.4208 15.3476 37.4208 15.368V21.0883L33.3513 21C33.3785 19.5326 33.5823 16.1697 33.3513 14.8925C33.3377 14.8313 33.3309 14.7702 33.3038 14.7158C33.297 14.6886 33.2834 14.6615 33.263 14.6411C33.2562 14.6207 33.2426 14.6003 33.2222 14.5867C33.1951 14.5596 33.1611 14.5324 33.1135 14.512C33.1 14.512 33.0864 14.5052 33.066 14.4984C33.0252 14.4916 32.9777 14.478 32.9233 14.4645C32.8826 14.4645 32.8418 14.4441 32.801 14.4373C32.801 14.4373 32.7942 14.4305 32.7874 14.4305C32.7806 14.4305 32.7671 14.4305 32.7603 14.4237C32.7263 14.4169 32.6855 14.4033 32.6516 14.3965C32.5633 14.3761 32.4749 14.349 32.3798 14.3218C32.3458 14.315 32.3187 14.3082 32.2983 14.3014C32.2236 14.281 32.142 14.2606 32.0605 14.2471C31.8091 14.1791 31.551 14.118 31.3472 14.084C31.2792 14.0704 31.2181 14.0636 31.1569 14.0568C31.0754 14.0432 31.0143 14.0364 30.9667 14.0432C30.892 14.05 30.8512 14.0568 30.8105 14.0772C30.7901 14.0908 30.7697 14.1044 30.7561 14.1248C30.7357 14.1384 30.7154 14.1587 30.695 14.1859V14.3422C30.6202 16.523 30.6746 18.6969 30.695 20.8845L25.0969 20.7079H25.0358C25.0358 20.4565 25.0562 20.1033 25.0698 19.6888C25.0698 19.6073 25.0766 19.519 25.0766 19.4307C25.0901 18.9891 25.1037 18.4931 25.1105 17.9768C25.1241 17.2159 25.1309 16.421 25.1173 15.6941C25.1173 15.4292 25.1173 15.1778 25.1037 14.94C25.0901 14.4237 25.063 13.9821 25.0154 13.6696C25.0018 13.5881 24.9882 13.5133 24.9746 13.4522V13.4386C24.9814 13.3367 24.9611 13.194 24.9135 13.1261C24.8931 13.1057 24.8184 13.0785 24.7097 13.0378C24.6961 13.0378 24.6893 13.031 24.6825 13.031C24.5331 12.9902 24.3292 12.9359 24.1051 12.8815C23.5276 12.7524 22.8278 12.6166 22.7055 12.6234C22.5561 12.6301 22.4406 12.6981 22.4406 12.8611C22.3523 15.2729 22.3523 17.6983 22.3794 20.1168V20.3546C22.3794 20.3546 22.393 20.4158 22.3862 20.4497C22.393 20.4565 22.3862 20.4565 22.3794 20.4633V20.4905C22.3794 20.4905 22.3659 20.5313 22.3591 20.5516C22.3455 20.5924 22.3251 20.6264 22.3251 20.6468C20.5383 20.6739 18.4391 20.3003 16.6931 20.6468C16.6387 20.6603 16.5436 20.6875 16.4213 20.7283C16.3534 20.7555 16.2719 20.7826 16.1836 20.8166C16.0409 20.8709 15.871 20.9321 15.6944 21.0068C15.5449 21.0612 15.3955 21.1223 15.2392 21.1903C14.9267 21.3193 14.6006 21.4552 14.2949 21.5911C14.2473 21.6183 14.193 21.6386 14.1454 21.659C14.0503 21.6998 13.9552 21.7405 13.8601 21.7881C13.8193 21.8085 13.7718 21.8289 13.731 21.8492C13.6427 21.89 13.5612 21.924 13.4864 21.9647C13.2283 22.087 13.0516 22.1889 13.0109 22.2365C12.9633 22.2908 12.9226 22.3724 12.8886 22.4675C12.8682 22.5286 12.8478 22.5966 12.8275 22.6645C12.8003 22.7528 12.7799 22.8479 12.7595 22.9294C12.7391 23.0042 12.7188 23.0721 12.7052 23.1333C12.6848 23.1876 12.6644 23.242 12.6508 23.2691C12.5625 23.4254 12.4674 23.5681 12.3791 23.7107C10.9592 25.8372 9.186 26.3331 6.86255 26.3127C6.39378 26.3127 5.89105 26.2923 5.36793 26.2516C3.78499 26.1429 2.29716 25.7828 1.40718 24.8453C1.23054 24.6551 1.07429 24.4444 0.945206 24.2067C0.822918 23.9757 0.721012 23.7107 0.653075 23.4186C0.578344 23.0653 0.537582 22.6781 0.557963 22.2365H10.735C10.8573 22.2025 10.966 22.1685 11.0747 22.1346C11.2921 22.0598 11.4891 21.9783 11.6929 21.8764C11.7948 21.8289 11.8967 21.7677 12.0054 21.7066C12.2296 21.5775 12.4402 21.4212 12.644 21.2446C12.7459 21.1563 12.8478 21.0544 12.9497 20.9593C12.9973 20.9049 13.0516 20.8506 13.0992 20.7962C13.2011 20.6875 13.2962 20.5788 13.3913 20.4633C13.534 20.2867 13.6767 20.1033 13.8125 19.9062C13.9484 19.7092 14.0843 19.4986 14.2202 19.288C14.3085 19.1453 14.3968 19.0027 14.4851 18.8532C14.5734 18.7037 14.6618 18.5543 14.7501 18.398C14.7908 18.3233 14.8384 18.2418 14.8792 18.167C15.015 17.9293 15.1441 17.6915 15.2732 17.4537C15.314 17.3722 15.3615 17.2974 15.4023 17.2159C15.443 17.1344 15.4838 17.0529 15.5314 16.9645C15.6197 16.8015 15.708 16.6384 15.7963 16.4822C15.8371 16.4007 15.8846 16.3191 15.9254 16.2376C16.0205 16.0678 16.102 15.9047 16.1903 15.7417C16.2311 15.6602 16.2787 15.5786 16.3262 15.4971C16.4145 15.3341 16.5097 15.171 16.598 15.0147C16.6387 14.9332 16.6863 14.8517 16.7338 14.7702C16.9241 14.4509 17.1143 14.1384 17.3045 13.8326C17.454 13.6084 17.6034 13.3842 17.7529 13.1736C17.8548 13.031 17.9635 12.8883 18.0654 12.7524C18.1673 12.6166 18.276 12.4807 18.3915 12.3584C18.4323 12.304 18.4798 12.2497 18.5342 12.1953C18.6497 12.0595 18.772 11.9372 18.8943 11.8149C18.969 11.747 19.0369 11.6722 19.1117 11.6043C19.2136 11.5092 19.3223 11.4209 19.431 11.3393C19.5532 11.2374 19.6823 11.1491 19.8114 11.0676C19.9405 10.9793 20.0764 10.9045 20.2054 10.8298C20.4772 10.6803 20.7557 10.5648 21.0547 10.4833C21.1294 10.4629 21.2041 10.4426 21.2789 10.429C21.6253 10.3407 21.999 10.3067 22.3862 10.3203C22.4474 10.3271 22.5153 10.3339 22.5833 10.3407C22.6512 10.3475 22.7123 10.361 22.7803 10.3746C22.9161 10.4018 23.0452 10.429 23.1811 10.4562C23.2694 10.4765 23.3577 10.4901 23.4461 10.5037C24.0983 10.5988 24.7572 10.7007 25.423 10.8162C26.0073 10.9113 26.5984 11.02 27.1962 11.1287C29.7574 11.5975 32.3662 12.1546 34.9275 12.6981C34.9343 12.6981 34.9479 12.7049 34.9546 12.7049C36.1707 12.963 37.3664 13.2144 38.5485 13.4522C39.1464 13.5745 39.7442 13.69 40.3353 13.8123C40.5051 14.4848 40.6274 15.1778 40.7021 15.8776C40.7157 15.9659 40.7293 16.0542 40.7361 16.1425C40.7565 16.3599 40.7769 16.5773 40.7905 16.8015C40.8176 17.2023 40.8312 17.6032 40.8312 18.004H40.8244Z" fill="#F1F6F7"/>
<path d="M26.6576 13.6823C26.3247 13.6687 25.9851 13.6212 25.8016 13.9473C25.6182 14.2734 25.6182 18.5534 25.8016 18.8999C25.8764 19.0426 26.1006 19.1581 26.2432 19.226C27.0721 19.063 28.9743 19.6133 29.6673 19.4027C29.7148 19.3891 29.9798 19.0834 29.9934 19.0222C30.0613 18.764 30.0138 14.749 29.9322 14.5383C29.8983 14.4432 29.6605 14.1987 29.5518 14.1579C29.314 14.0696 26.9769 13.7027 26.6576 13.6891V13.6823Z" fill="#202E4E"/>
<path d="M29.6959 17.3444L27.6306 14.1581C27.2433 14.1105 26.2379 13.7301 25.9797 14.1309C25.9457 14.7559 25.8031 18.5129 26.0408 18.7914L29.4921 19.1719C29.9133 19.0088 29.6891 17.6637 29.6959 17.3444Z" fill="#264A69"/>
<path d="M27.6309 14.1582L29.6962 17.3445C29.7029 17.032 29.7029 16.7126 29.6962 16.4001C29.6486 16.373 29.472 16.1827 29.4584 16.1624C28.8673 15.7276 28.7314 14.8783 28.3374 14.2737C28.0657 14.2193 27.9094 14.1922 27.6309 14.1582Z" fill="#2F5777"/>
<path d="M28.5742 14.335C28.8935 14.9192 29.1313 15.5918 29.4574 16.1625C29.471 16.1829 29.6476 16.3731 29.6952 16.4003C29.6816 15.9383 29.865 15.0347 29.634 14.5999C29.4574 14.2602 28.812 14.3825 28.5742 14.335Z" fill="#294E6E"/>
<path d="M28.3379 14.2744C28.7319 14.8723 28.8678 15.7215 29.4589 16.1631C29.1328 15.5856 28.895 14.9198 28.5757 14.3356C28.5077 14.322 28.433 14.2948 28.3379 14.2744Z" fill="#3D6786"/>
<path d="M34.3833 14.9263C34.0232 14.9195 33.7855 14.9739 33.7039 15.3679C33.636 15.6736 33.6768 19.0841 33.7651 19.3219C33.8058 19.4373 34.03 19.6751 34.1455 19.7023C34.3086 19.7431 36.6184 19.8586 36.7407 19.8178C36.7883 19.8042 36.9921 19.546 37.0057 19.4917C37.0668 19.2607 37.0261 15.8706 36.9445 15.66C36.9174 15.5853 36.6864 15.3 36.6184 15.2796C36.5165 15.2388 34.5396 14.9263 34.3765 14.9263H34.3833Z" fill="#242E4C"/>
<path d="M36.4755 19.5865L34.057 15.2793C33.7512 15.4559 33.8464 18.812 33.9958 19.3216C34.1181 19.4778 36.2174 19.6545 36.4755 19.5865Z" fill="#396785"/>
<path d="M34.5879 15.2793L36.7143 19.1721C36.7959 18.7849 36.8027 16.0062 36.7143 15.7209C36.6192 15.4084 34.9344 15.2929 34.5879 15.2793Z" fill="#477D98"/>
<path d="M34.0586 15.2788L36.4772 19.586C36.7965 19.4977 36.6674 19.3958 36.7149 19.1716L34.5885 15.2788C34.3915 15.272 34.2964 15.1361 34.0586 15.2788Z" fill="#5E98AE"/>
<path d="M40.8248 18.0039C40.8248 18.2757 40.8248 18.5474 40.8044 18.8124C40.7908 19.1453 40.7704 19.4782 40.7296 19.8111C40.7296 19.8315 40.7228 19.8586 40.7228 19.879C40.7161 19.9605 40.7093 20.0353 40.6957 20.1168C40.3628 20.0896 40.1046 20.0692 40.0503 20.0557C39.928 20.0285 39.7513 19.7839 39.7242 19.6752C39.6834 19.5122 39.6291 16.5025 39.663 16.3123C39.7242 15.9998 39.8533 15.83 40.1658 15.8096C40.2133 15.8096 40.4171 15.8367 40.6957 15.8775C40.7093 15.9658 40.7229 16.0541 40.7296 16.1425C40.75 16.3599 40.7704 16.5773 40.784 16.8015C40.8112 17.2023 40.8248 17.6031 40.8248 18.0039Z" fill="#212F4D"/>
<path d="M40.8251 18.0034C40.8251 18.2752 40.8251 18.5469 40.8048 18.8119C40.7912 19.1448 40.7708 19.4777 40.73 19.8106C40.73 19.8309 40.7232 19.8581 40.7232 19.8785C40.3156 19.8242 39.9963 19.7698 39.9623 19.7358C39.9487 19.2399 39.677 16.1963 39.9895 16.0468C40.105 15.9857 40.3224 16.0944 40.37 16.108H40.3767L40.7844 16.8009C40.8115 17.2018 40.8251 17.6026 40.8251 18.0034Z" fill="#356280"/>
<path d="M40.7836 16.8014L40.3691 16.1084H40.3759C40.4982 16.1084 40.6137 16.1288 40.7292 16.1424C40.7496 16.3598 40.77 16.5772 40.7836 16.8014Z" fill="#4D839D"/>
<path d="M17.0122 27.1955C16.6385 27.5148 16.2581 27.8341 15.8301 28.0787C15.9795 28.1194 15.9931 28.2825 16.0679 28.3708C16.1426 28.4727 16.2649 28.5814 16.36 28.6629C16.8491 29.057 17.2092 29.0841 17.8342 29.0162C18.6155 28.9279 18.7038 28.629 19.2473 28.2485C19.7908 27.8681 20.1645 27.8952 20.871 27.8341C21.0884 27.8137 22.7257 27.7458 22.8208 27.773C22.9024 27.8001 22.9227 27.9632 22.9703 28.0107C23.0586 28.0923 23.2217 28.1466 23.2081 28.3029C23.3236 28.3029 23.3372 28.364 23.3847 28.364C24.0981 28.3436 24.3358 28.33 25.0356 28.2485C25.0899 28.2417 25.0967 28.1942 25.1511 28.1874C25.2054 28.0311 25.3413 27.9904 25.4432 27.8341C25.5451 27.6778 25.647 27.4672 25.7353 27.3042C25.8169 27.1547 25.878 26.7675 25.9731 26.6248C26.3196 26.1221 27.4202 25.6397 27.4474 24.709C24.7842 24.7158 22.1211 24.709 19.4511 24.709C18.7174 25.5242 18.1196 26.4754 17.2704 27.1887C17.182 27.1955 17.0937 27.1751 17.0054 27.1887L17.0122 27.1955Z" fill="#1C2544"/>
<path d="M20.1649 25.959C19.6486 25.959 19.6486 27.3857 20.2804 27.2566C20.7152 27.1683 20.5725 25.9658 20.1649 25.959Z" fill="#304061"/>
<path d="M25.1852 25.9593C24.6078 25.7827 24.5398 26.8969 25.0086 27.1414C25.5113 27.2569 25.4909 26.0544 25.1852 25.9593Z" fill="#2E4060"/>
<path d="M24.1799 25.6603C23.7043 25.7555 22.563 25.5313 22.1757 25.6603C21.9719 25.7283 21.5915 26.7405 21.3809 26.9308C21.4488 27.0191 23.6024 26.9987 23.7111 26.9579C23.8062 26.924 24.309 25.7487 24.1799 25.6603Z" fill="#2C3C5D"/>
<path d="M22.9367 26.4278C22.6378 26.4414 22.3185 26.3938 22.0195 26.455C22.0195 26.5025 22.862 26.5229 22.9367 26.4278Z" fill="#1E2448"/>
<path d="M40.5306 21.2442C40.4423 21.7265 40.3336 22.1953 40.2045 22.6573C37.9218 22.6029 35.6323 22.5282 33.3496 22.535C33.3904 22.0798 33.3496 21.4751 33.3496 20.9996L37.4191 21.0879V15.3676C37.4191 15.3676 37.4191 15.3336 37.4326 15.32C37.4326 15.2996 37.453 15.2861 37.4666 15.2793C37.6772 15.0551 38.5944 15.2249 39.0292 15.3744C39.0767 15.388 39.1175 15.4016 39.1515 15.4219H39.1583C39.1583 15.4219 39.2058 15.4423 39.2194 15.4559C39.2398 15.4627 39.2466 15.4763 39.2534 15.4831L39.3077 21.1762C39.7153 21.2034 40.123 21.2238 40.5306 21.2442Z" fill="#5FB238"/>
<path d="M38.1601 15.5176C37.9291 15.5244 37.8272 15.5991 37.7797 15.8437C37.7185 16.129 37.7253 19.0571 37.7797 19.3832C37.9156 20.1305 38.4183 19.8316 38.989 19.8859L39.1384 15.966C39.0841 15.6942 38.3707 15.5176 38.1669 15.5244L38.1601 15.5176Z" fill="#1F3053"/>
<path d="M38.9561 17.9359C38.4533 17.6098 38.4329 16.8081 38.0729 16.3461C38.0729 16.3461 37.9574 16.3258 37.9574 16.3733C37.9234 16.6722 37.903 19.3558 37.9574 19.4984C38.0593 19.7634 38.7047 19.58 38.9628 19.6751C39.058 19.6003 38.9628 18.1804 38.9628 17.9359H38.9561Z" fill="#274A6A"/>
<path d="M38.0727 16.3387C38.4328 16.8007 38.4531 17.6091 38.9559 17.9284C38.9559 17.6499 39.0034 16.0533 38.9559 15.9514C38.9151 15.8631 38.0999 15.768 38.0387 15.802C38.0183 15.8156 38.0931 16.2028 38.0659 16.3319L38.0727 16.3387Z" fill="#2F5375"/>
<path d="M32.2923 23.541H32.9445C33.3928 23.3848 33.3249 22.916 33.3589 22.5356C33.3996 22.0804 33.3521 21.4757 33.3589 21.0002C33.386 19.5327 33.5899 16.163 33.3589 14.8926C33.3317 14.7364 33.2977 14.5869 33.1211 14.5122C32.9105 14.4171 30.8248 14.0978 30.7637 14.2472V23.4527C30.8316 23.6022 32.0681 23.541 32.2991 23.541H32.2923Z" fill="#FFBF2E"/>
<path d="M30.6935 20.8843C30.6935 21.4142 30.6731 21.9509 30.6935 22.474C30.6935 22.671 30.6323 23.527 30.7818 23.595C31.2777 23.5746 31.7872 23.6289 32.2832 23.595V23.5338C32.0522 23.5338 30.8157 23.595 30.7478 23.4455V14.24C30.8157 14.0905 32.9014 14.4098 33.1052 14.505C32.6704 14.4098 31.3117 14.0022 30.9516 14.0362C30.8022 14.0498 30.7818 14.0702 30.6867 14.1856C30.6119 16.414 30.6663 18.6423 30.6867 20.8775L30.6935 20.8843Z" fill="#0A0C24"/>
<path d="M32.291 23.54V23.6012C32.5356 23.5876 32.6918 23.6284 32.9432 23.54H32.291Z" fill="#4D3518"/>
<path d="M31.7876 14.926C31.5159 14.9328 31.3528 15.0076 31.2849 15.3065C31.2306 15.5375 31.2306 18.8392 31.2849 19.0838C31.3868 19.5594 32.7592 19.7836 32.8746 19.1449C32.9222 18.8732 32.8746 15.6122 32.8135 15.3676C32.7388 15.0483 32.0662 14.9192 31.7809 14.926H31.7876Z" fill="#1B3154"/>
<path d="M31.7894 15.1644C31.5584 15.178 31.5245 15.1236 31.409 15.3682C31.7283 16.2106 31.1916 18.3506 31.409 19.0232C31.4769 19.2338 32.3193 19.3697 32.5028 19.2882C32.6862 19.2067 32.6658 15.5448 32.5911 15.3682C32.5503 15.2595 31.8777 15.1576 31.7962 15.1644H31.7894Z" fill="#335F82"/>
<path d="M22.44 12.861L22.3789 20.1167V20.3545C22.3925 21.4075 22.44 22.4877 22.4944 23.5408C22.902 23.5408 24.3151 23.6223 24.5869 23.5408C24.8111 23.4728 24.8858 23.0924 24.913 22.8886C24.9945 22.2771 25.0081 21.2513 25.0285 20.7078C25.0828 19.2879 25.2255 14.6138 24.9673 13.4521C24.9401 13.3094 24.7907 13.092 24.6412 13.0377C24.5529 13.0037 22.9088 12.7387 22.8137 12.7455C22.6303 12.7455 22.5759 12.7319 22.4333 12.861H22.44Z" fill="#FFBF2D"/>
<path d="M22.3184 20.6466C22.3252 21.2173 22.3116 21.7948 22.3184 22.3586C22.3184 22.7187 22.3388 23.1807 22.3795 23.5408H22.495C22.4407 22.4877 22.3931 21.4075 22.3795 20.3545C22.4271 20.47 22.3184 20.6059 22.3184 20.6466Z" fill="#B79338"/>
<path d="M24.9121 22.8878H24.9733C24.9936 22.7519 25.0208 22.5481 25.0344 22.4191C25.0819 21.8552 24.9529 21.2641 25.0955 20.707H25.0344C25.014 21.2505 24.9936 22.2764 24.9189 22.8878H24.9121Z" fill="#B18B31"/>
<path d="M22.4947 23.5399H22.4336C22.9567 23.5671 24.6823 23.8049 24.9133 23.3361C24.9745 23.2138 24.9541 23.01 24.9744 22.8945H24.9133C24.8861 23.0915 24.8114 23.4788 24.5872 23.5467C24.3087 23.6283 22.9024 23.5467 22.4947 23.5467V23.5399Z" fill="#221B1D"/>
<path d="M22.3792 20.117L22.4404 12.8613C22.352 15.2731 22.352 17.7053 22.3792 20.117Z" fill="#B89657"/>
<path d="M22.4404 12.8609C22.5831 12.7318 22.6374 12.7454 22.8208 12.7454C22.9159 12.7454 24.56 13.0104 24.6483 13.0376C24.7978 13.0919 24.9405 13.3093 24.9744 13.452C24.9812 13.3569 24.9745 13.2006 24.9133 13.1259C24.8318 13.0104 22.9092 12.6163 22.6985 12.6231C22.5491 12.6231 22.4336 12.6979 22.4336 12.8609H22.4404Z" fill="#1C1724"/>
<path d="M23.35 13.6289C23.119 13.6492 22.9559 13.8463 22.9084 14.0705C22.8404 14.383 22.8404 18.1195 22.9084 18.4388C23.0375 19.0503 24.3894 19.1046 24.4981 18.6155C24.5457 18.3981 24.6 14.7159 24.5593 14.4237C24.5389 14.2947 24.4573 13.9482 24.3554 13.8599C24.3147 13.8259 23.4043 13.6221 23.35 13.6221V13.6289Z" fill="#213052"/>
<path d="M23.4731 13.9211C23.3916 13.9211 23.3169 13.9211 23.2354 13.9211C23.1674 13.9551 23.0995 14.2268 23.0859 14.3015C23.0451 14.5529 23.0383 18.1196 23.0859 18.3099C23.1606 18.602 23.874 18.7175 24.0574 18.636C24.2612 18.5476 24.0846 14.6956 24.1457 14.1793C24.0982 14.0434 23.5683 13.9075 23.4664 13.9143L23.4731 13.9211Z" fill="#2F597B"/>
</svg>
