<svg width="20" height="20" viewBox="0 0 20 20" fill="none" xmlns="http://www.w3.org/2000/svg">
<path d="M10 1.66699V3.33366" stroke="black" stroke-width="1.04167" stroke-linecap="round" stroke-linejoin="round"/>
<path d="M4.10742 4.1084L5.28242 5.2834" stroke="black" stroke-width="1.04167" stroke-linecap="round" stroke-linejoin="round"/>
<path d="M16.666 10H18.3327" stroke="black" stroke-width="1.04167" stroke-linecap="round" stroke-linejoin="round"/>
<path d="M15.8918 4.1084L14.7168 5.2834" stroke="black" stroke-width="1.04167" stroke-linecap="round" stroke-linejoin="round"/>
<path d="M13.2891 10.5413C13.3916 9.92006 13.3161 9.28247 13.0713 8.70235C12.8265 8.12223 12.4224 7.62332 11.9057 7.26338C11.3891 6.90343 10.7811 6.69718 10.1521 6.6685C9.52308 6.63982 8.89881 6.78988 8.35156 7.10131" stroke="black" stroke-width="1.04167" stroke-linecap="round" stroke-linejoin="round"/>
<path d="M10.8338 18.3333H5.83379C5.04543 18.3332 4.27329 18.1094 3.60706 17.6879C2.94082 17.2664 2.40783 16.6646 2.06998 15.9523C1.73213 15.24 1.60329 14.4465 1.69842 13.6639C1.79355 12.8813 2.10876 12.1417 2.60742 11.5311C3.10608 10.9205 3.76775 10.4639 4.51556 10.2143C5.26336 9.96473 6.06664 9.93243 6.83207 10.1211C7.59751 10.3099 8.2937 10.7119 8.83979 11.2805C9.38588 11.8491 9.75945 12.5609 9.91712 13.3333H10.8338C11.4968 13.3333 12.1327 13.5967 12.6016 14.0656C13.0704 14.5344 13.3338 15.1703 13.3338 15.8333C13.3338 16.4964 13.0704 17.1323 12.6016 17.6011C12.1327 18.0699 11.4968 18.3333 10.8338 18.3333Z" stroke="black" stroke-width="1.04167" stroke-linecap="round" stroke-linejoin="round"/>
</svg>
