<svg width="28" height="28" viewBox="0 0 28 28" fill="none" xmlns="http://www.w3.org/2000/svg">
<path d="M9.58829 24.519H4.18235C2.29456 24.519 0.75 22.9744 0.75 21.0866V6.49913C0.75 4.61134 2.29456 3.06678 4.18235 3.06678H9.58829M9.58829 3.2384V4.01073C9.58829 4.6972 10.189 5.21205 10.7896 5.21205H18.255C20.3144 5.21205 21.9447 6.84236 21.9447 8.90177V18.5982C21.9447 20.6576 20.3144 22.2879 18.255 22.2879H10.7896C10.1031 22.2879 9.58829 22.8028 9.58829 23.4893V24.3474C9.58829 25.7203 10.7038 26.75 11.9909 26.75H23.3177C25.2054 26.75 26.75 25.2054 26.75 23.3177V4.18235C26.75 2.29456 25.2054 0.750001 23.3177 0.750001H12.0768C10.7038 0.750001 9.58829 1.86546 9.58829 3.2384Z" stroke="#FF42B3" stroke-width="1.5" stroke-miterlimit="10"/>
<g opacity="0.7">
<path d="M8.98187 12.5124C8.46042 12.7236 8.11719 13.2319 8.11719 13.7929C8.11719 14.354 8.46042 14.8622 8.98187 15.0734L14.0578 17.0933V15.113H18.0182V12.4728H14.0578V10.4926L8.98187 12.5124Z" fill="#FF42B3"/>
<path d="M7.45667 13.7931C7.45667 13.0641 6.86563 12.473 6.13654 12.473C5.40746 12.473 4.81641 13.0641 4.81641 13.7931C4.81641 14.5223 5.40746 15.1133 6.13654 15.1133C6.86563 15.1133 7.45667 14.5223 7.45667 13.7931Z" fill="#FF42B3"/>
</g>
</svg>
