<svg width="26" height="26" viewBox="0 0 26 26" fill="none" xmlns="http://www.w3.org/2000/svg">
<mask id="mask0_4101_8754" style="mask-type:luminance" maskUnits="userSpaceOnUse" x="0" y="0" width="26" height="26">
<path d="M0 0V26H26V0H0Z" fill="white"/>
</mask>
<g mask="url(#mask0_4101_8754)">
<path d="M9.01913 23.1561H3.90039C2.11289 23.1561 0.650391 21.6936 0.650391 19.9061V6.09352C0.650391 4.30602 2.11289 2.84352 3.90039 2.84352H9.01913M9.01913 3.00602V3.73732C9.01913 4.38732 9.5879 4.87482 10.1566 4.87482H17.2254C19.1754 4.87482 20.7191 6.41852 20.7191 8.36852V17.5498C20.7191 19.4998 19.1754 21.0436 17.2254 21.0436H10.1566C9.5066 21.0436 9.01913 21.5311 9.01913 22.1811V22.9936C9.01913 24.2936 10.0754 25.2686 11.2941 25.2686H22.0191C23.8066 25.2686 25.2691 23.8061 25.2691 22.0186V3.89982C25.2691 2.11232 23.8066 0.649822 22.0191 0.649822H11.3754C10.0754 0.649822 9.01913 1.70602 9.01913 3.00602Z" stroke="#007B28" stroke-width="1.5" stroke-miterlimit="10"/>
</g>
</svg>
