<svg width="19" height="40" viewBox="0 0 19 40" fill="none" xmlns="http://www.w3.org/2000/svg">
<g clip-path="url(#clip0_9027_12078)">
<path d="M14.6472 0.704102H3.37962C1.7461 0.704102 0.421875 2.02833 0.421875 3.66185V36.3379C0.421875 37.9714 1.7461 39.2957 3.37962 39.2957H14.6472C16.2807 39.2957 17.605 37.9714 17.605 36.3379V3.66185C17.605 2.02833 16.2807 0.704102 14.6472 0.704102Z" fill="#EBEBEB"/>
<path d="M14.6472 0.704102H3.37962C1.7461 0.704102 0.421875 2.02833 0.421875 3.66185V36.3379C0.421875 37.9714 1.7461 39.2957 3.37962 39.2957H14.6472C16.2807 39.2957 17.605 37.9714 17.605 36.3379V3.66185C17.605 2.02833 16.2807 0.704102 14.6472 0.704102Z" stroke="#E6E6E6" stroke-width="0.84507"/>
<g opacity="0.24">
<path d="M12.3953 13.8027L5.63477 20.5633" stroke="black" stroke-width="0.704225" stroke-linecap="round" stroke-linejoin="round"/>
<path d="M5.63477 13.8027L12.3953 20.5633" stroke="black" stroke-width="0.704225" stroke-linecap="round" stroke-linejoin="round"/>
</g>
<path d="M14.0196 33.8027H4.00756C3.3497 33.8027 2.81641 34.336 2.81641 34.9939V36.3299C2.81641 36.9877 3.3497 37.521 4.00756 37.521H14.0196C14.6775 37.521 15.2108 36.9877 15.2108 36.3299V34.9939C15.2108 34.336 14.6775 33.8027 14.0196 33.8027Z" fill="#DBDBDB"/>
</g>
<defs>
<clipPath id="clip0_9027_12078">
<rect width="18.0282" height="40" fill="white"/>
</clipPath>
</defs>
</svg>
