<svg width="26" height="26" viewBox="0 0 26 26" fill="none" xmlns="http://www.w3.org/2000/svg">
<path d="M0.023439 17.5343C0.023439 17.1733 0.023439 16.8086 0.0197236 16.444C0.0197236 15.6848 0.023439 14.9257 0.0271534 14.1666C0.0345832 13.1991 0.0308678 12.2279 0.023439 11.2566C0.0197236 10.5087 0.0197236 9.75698 0.023439 9.00902C0.023439 8.65178 0.023439 8.29455 0.0197236 7.93731C0.00115056 4.46544 0.00115063 4.46544 1.18613 3.22628C2.71285 2.03922 4.03898 2.07271 5.92232 2.13597C6.18234 2.13969 6.44608 2.14341 6.71354 2.14713C7.35246 2.16202 7.9951 2.1769 8.63402 2.19923C8.65631 1.97596 8.65631 1.97596 8.68231 1.74896C9.00177 0.855875 9.34723 0.610277 10.1756 0.141405C11.1526 -0.0111637 12.1221 -0.00372124 13.1102 0.00372124C13.5374 0.00372124 13.5374 0.00372314 13.9757 0C14.5775 0 15.1792 0.00372124 15.781 0.00744247C16.7023 0.0111637 17.6198 0.00744247 18.541 0C19.1279 0 19.7148 0.00372124 20.298 0.00372124C20.5729 0.00372124 20.8478 0 21.1301 0C22.694 0.0186081 23.6189 0.122801 24.8114 1.16846C25.8217 2.32575 25.8775 3.38629 25.8849 4.86732C25.8886 5.06083 25.8886 5.25061 25.8923 5.45155C25.8997 6.08788 25.9035 6.7242 25.9072 7.36053C25.9072 7.68799 25.9072 7.68799 25.9109 8.0229C25.9183 9.17647 25.922 10.3338 25.9258 11.4873C25.9295 12.44 25.9369 13.3963 25.948 14.3489C25.9592 15.5025 25.9666 16.6561 25.9666 17.8096C25.9703 18.245 25.974 18.6841 25.9815 19.1232C26.0372 23.3654 26.0372 23.3654 24.9265 24.7422C23.5112 26.067 21.9956 25.9777 20.1643 25.974C19.8894 25.974 19.6183 25.9777 19.3359 25.9777C18.7602 25.9814 18.1807 25.9777 17.6049 25.9777C16.7245 25.974 15.8442 25.9814 14.9638 25.9888C14.4029 25.9926 13.842 25.9888 13.2811 25.9888C12.8873 25.9926 12.8873 25.9926 12.4861 26C10.9668 25.9851 10.0196 25.8921 8.89033 24.8353C8.66745 24.2548 8.66745 24.2548 8.63402 23.8045C8.47057 23.8082 8.31084 23.8157 8.14368 23.8194C7.40447 23.8417 6.66153 23.8566 5.92232 23.8678C5.53971 23.8826 5.53971 23.8826 5.14967 23.8938C3.50407 23.9161 2.50112 23.8008 1.18613 22.7774C-0.236588 21.289 0.0122948 19.4879 0.023439 17.5343Z" fill="#CCCCCC"/>
<path d="M1.40162 19.2866C1.3979 18.8364 1.3979 18.8364 1.39419 18.3787C1.39419 17.8912 1.39419 17.8912 1.39419 17.3925C1.39047 17.0614 1.39047 16.7265 1.38676 16.3841C1.38676 15.6771 1.38304 14.9738 1.38304 14.2667C1.38304 13.3625 1.37561 12.462 1.36818 11.5577C1.36075 10.6944 1.36075 9.83108 1.36075 8.96776C1.35704 8.64774 1.35332 8.32399 1.34961 7.98909C1.35332 7.68767 1.35332 7.38625 1.35332 7.07367C1.35332 6.80947 1.34961 6.54154 1.34961 6.26989C1.48705 5.20563 1.9291 4.52837 2.70175 3.7953C3.34438 3.4269 3.72699 3.39341 4.46621 3.40829C4.6928 3.41201 4.92311 3.41574 5.15713 3.41574C5.39487 3.42318 5.6289 3.43062 5.87406 3.43806C6.23439 3.44178 6.23439 3.44178 6.60214 3.44551C7.19277 3.45667 7.78711 3.46783 8.37774 3.48644C8.50033 3.73576 8.6192 3.98508 8.74549 4.24184C9.07238 4.97864 9.07238 4.97864 9.40299 5.28378C9.99362 5.31727 10.5843 5.33215 11.1712 5.33959C11.5389 5.34704 11.9067 5.35448 12.2707 5.36192C12.8502 5.37309 13.4297 5.38053 14.0092 5.38797C14.5664 5.39541 15.1236 5.40658 15.6808 5.42146C16.0151 5.42518 16.3494 5.4289 16.6949 5.43635C17.9021 5.57403 18.7119 5.93126 19.6369 6.72016C20.1161 7.73604 20.0455 8.76309 20.0418 9.87201C20.0455 10.1213 20.0455 10.3669 20.0455 10.62C20.0492 11.1409 20.0492 11.6656 20.0455 12.1866C20.0418 12.9829 20.0492 13.7793 20.0603 14.5756C20.0603 15.0817 20.0603 15.5878 20.0603 16.0939C20.0603 16.332 20.0641 16.5702 20.0678 16.8158C20.0566 17.8689 20.0232 18.5015 19.4883 19.4318C18.3033 20.4737 17.2706 20.5258 15.7253 20.5407C15.3576 20.5481 14.9898 20.5518 14.6258 20.5593C14.05 20.5667 13.478 20.5742 12.9022 20.5779C12.345 20.5853 11.7878 20.5928 11.2306 20.6039C10.9 20.6077 10.5694 20.6114 10.2239 20.6151C9.42156 20.6523 9.42156 20.6523 8.92008 21.0468C8.60434 21.5342 8.47433 21.9473 8.37774 22.5166C7.55309 22.5576 6.72844 22.5799 5.9075 22.5985C5.55832 22.6134 5.55832 22.6134 5.20171 22.632C4.05017 22.6506 3.24037 22.6506 2.32285 21.9026C1.45362 20.9612 1.41276 20.5407 1.40162 19.2866Z" fill="#F9F9F9"/>
<path d="M9.65912 21.7467C10.1606 21.2481 11.1153 21.449 11.7988 21.4453C12.1888 21.4379 12.5788 21.4341 12.9689 21.4267C13.5855 21.4155 14.1984 21.4081 14.8151 21.4044C15.4094 21.4007 16.0038 21.3932 16.5944 21.3821C16.7801 21.3821 16.9621 21.3821 17.1479 21.3821C18.448 21.3486 19.2095 21.0583 20.1865 20.2024C21.1077 18.8963 21.0706 17.6311 21.0594 16.0868C21.0594 15.8449 21.0631 15.5993 21.0631 15.3463C21.0631 14.829 21.0631 14.3118 21.0594 13.7945C21.0557 13.0056 21.0594 12.2167 21.0631 11.4278C21.0631 10.9218 21.0631 10.4194 21.0594 9.91704C21.0631 9.56353 21.0631 9.56353 21.0668 9.20257C21.052 7.88155 20.9368 6.94009 20.1865 5.8014C18.7935 4.72598 17.7199 4.47293 16.0038 4.432C15.7326 4.42456 15.7326 4.42456 15.454 4.41711C14.8782 4.39851 14.2987 4.38363 13.7192 4.36874C13.3292 4.35758 12.9355 4.34641 12.5454 4.33525C11.5833 4.3092 10.6212 4.28315 9.65912 4.2571C9.5774 3.35658 9.61455 2.80584 10.0046 1.98345C11.0633 1.12386 12.0699 1.25782 13.3924 1.28387C13.7861 1.28387 13.7861 1.28387 14.191 1.28387C14.7482 1.28759 15.3054 1.29503 15.8663 1.30247C16.717 1.31364 17.5713 1.31736 18.4257 1.32108C18.9681 1.3248 19.5104 1.32852 20.0527 1.33224C20.4353 1.33596 20.4353 1.33596 20.8254 1.33596C21.0631 1.33969 21.3009 1.34341 21.546 1.34713C21.8618 1.35457 21.8618 1.35457 22.1812 1.35829C23.147 1.47737 23.6151 1.73413 24.2243 2.49698C24.6366 3.41611 24.6515 4.1157 24.6552 5.12042C24.6589 5.30648 24.6589 5.49254 24.6626 5.68232C24.6663 6.29632 24.6663 6.9066 24.6626 7.52059C24.6663 7.94481 24.6663 8.37275 24.6663 8.80068C24.6701 9.69377 24.6701 10.5869 24.6663 11.4837C24.6626 12.6261 24.6701 13.7685 24.6775 14.9146C24.6812 15.7928 24.6812 16.6747 24.6812 17.5567C24.6812 17.9809 24.6812 18.4014 24.6849 18.8219C24.6886 19.4135 24.6849 20.0015 24.6812 20.5932C24.6812 20.9281 24.6812 21.263 24.6812 21.609C24.5289 22.6807 24.202 23.2278 23.5259 24.0613C22.7124 24.6046 22.5081 24.6418 21.5757 24.6493C21.338 24.653 21.1003 24.6567 20.8551 24.6604C20.5988 24.6604 20.3425 24.6604 20.075 24.6641C19.8113 24.6641 19.5475 24.6679 19.2764 24.6679C18.7155 24.6716 18.1583 24.6716 17.5973 24.6716C16.743 24.6716 15.8849 24.6828 15.0305 24.6902C14.4882 24.6939 13.9421 24.6939 13.3998 24.6939C13.0172 24.7014 13.0172 24.7014 12.6234 24.7051C10.8627 24.6939 10.8627 24.6939 10.0083 24.1134C9.51425 23.3059 9.57369 22.6733 9.65912 21.7467Z" fill="#F8F8F8"/>
<path d="M0.023439 17.5343C0.023439 17.1733 0.023439 16.8086 0.0197236 16.444C0.0197236 15.6848 0.023439 14.9257 0.0271534 14.1666C0.0345832 13.1991 0.0308678 12.2279 0.023439 11.2566C0.0197236 10.5087 0.0197236 9.75698 0.023439 9.00902C0.023439 8.65178 0.023439 8.29455 0.0197236 7.93731C0.00115056 4.46544 0.00115063 4.46544 1.18613 3.22628C2.71285 2.03922 4.03898 2.07271 5.92232 2.13597C6.18234 2.13969 6.44608 2.14341 6.71354 2.14713C7.35246 2.16202 7.9951 2.1769 8.63402 2.19923C8.65631 1.97596 8.65631 1.97596 8.68231 1.74896C9.00177 0.855875 9.34723 0.610277 10.1756 0.141405C11.1526 -0.0111637 12.1221 -0.00372124 13.1102 0.00372124C13.5374 0.00372124 13.5374 0.00372314 13.9757 0C14.5775 0 15.1792 0.00372124 15.781 0.00744247C16.7023 0.0111637 17.6198 0.00744247 18.541 0C19.1279 0 19.7148 0.00372124 20.298 0.00372124C20.5729 0.00372124 20.8478 0 21.1301 0C22.694 0.0186081 23.6189 0.122801 24.8114 1.16846C25.8217 2.32575 25.8775 3.38629 25.8849 4.86732C25.8886 5.06083 25.8886 5.25061 25.8923 5.45155C25.8997 6.08788 25.9035 6.7242 25.9072 7.36053C25.9072 7.68799 25.9072 7.68799 25.9109 8.0229C25.9183 9.17647 25.922 10.3338 25.9258 11.4873C25.9295 12.44 25.9369 13.3963 25.948 14.3489C25.9592 15.5025 25.9666 16.6561 25.9666 17.8096C25.9703 18.245 25.974 18.6841 25.9815 19.1232C26.0372 23.3654 26.0372 23.3654 24.9265 24.7422C23.5112 26.067 21.9956 25.9777 20.1643 25.974C19.8894 25.974 19.6183 25.9777 19.3359 25.9777C18.7602 25.9814 18.1807 25.9777 17.6049 25.9777C16.7245 25.974 15.8442 25.9814 14.9638 25.9888C14.4029 25.9926 13.842 25.9888 13.2811 25.9888C12.8873 25.9926 12.8873 25.9926 12.4861 26C10.9668 25.9851 10.0196 25.8921 8.89033 24.8353C8.66745 24.2548 8.66745 24.2548 8.63402 23.8045C8.47057 23.8082 8.31084 23.8157 8.14368 23.8194C7.40447 23.8417 6.66153 23.8566 5.92232 23.8678C5.53971 23.8826 5.53971 23.8826 5.14967 23.8938C3.50407 23.9161 2.50112 23.8008 1.18613 22.7774C-0.236588 21.289 0.0122948 19.4879 0.023439 17.5343ZM1.95878 22.2602C2.87258 22.9672 3.51522 23.1272 4.65933 23.1086C5.05309 23.1049 5.05309 23.1049 5.45427 23.1012C5.85917 23.09 5.85917 23.09 6.27521 23.0826C6.55009 23.0789 6.82498 23.0751 7.11101 23.0714C7.79079 23.0603 8.46686 23.0491 9.14664 23.0342C9.1875 23.3282 9.1875 23.3282 9.22836 23.6296C9.42153 24.3924 9.55897 24.6157 10.1756 25.092C10.7588 25.2111 10.7588 25.2111 11.4163 25.1999C11.6689 25.2037 11.9215 25.2074 12.1778 25.2111C12.4527 25.2111 12.7239 25.2111 13.0025 25.2111C13.2848 25.2148 13.5634 25.2148 13.8531 25.2185C14.4475 25.2185 15.0381 25.2223 15.6324 25.2185C16.5388 25.2185 17.4452 25.2297 18.3516 25.2409C18.9273 25.2446 19.5031 25.2446 20.0789 25.2446C20.35 25.2483 20.6212 25.252 20.8998 25.2558C22.5343 25.2483 22.5343 25.2483 23.9347 24.4855C24.9748 23.3393 25.142 22.6249 25.1457 21.129C25.1494 20.8387 25.1494 20.8387 25.1531 20.541C25.1568 19.901 25.1605 19.2646 25.1605 18.6246C25.1642 18.178 25.168 17.7315 25.168 17.2887C25.1717 16.3547 25.1754 15.4206 25.1754 14.4866C25.1754 13.2921 25.1865 12.0976 25.1977 10.9031C25.2051 9.98397 25.2088 9.06483 25.2088 8.1457C25.2088 7.7066 25.2125 7.2675 25.2163 6.82467C25.2237 6.20696 25.2237 5.59296 25.22 4.97524C25.2237 4.7929 25.2274 4.61428 25.2311 4.42822C25.2088 2.9844 24.7631 2.40762 23.7824 1.42894C22.9615 0.878204 22.7349 0.844713 21.7913 0.833548C21.5425 0.829828 21.2936 0.826105 21.041 0.822386C20.6398 0.818665 20.6398 0.818665 20.2312 0.818665C19.9563 0.814941 19.6814 0.811222 19.3954 0.811222C18.8159 0.807501 18.2327 0.80378 17.6495 0.80378C16.758 0.800058 15.8702 0.788895 14.9787 0.77401C14.414 0.77401 13.8457 0.770288 13.2811 0.770288C13.0136 0.762846 12.7499 0.759125 12.475 0.755404C11.238 0.762846 10.6288 0.766567 9.61097 1.51825C9.07606 2.16946 9.07606 2.16946 9.14664 2.96951C8.97577 2.96579 8.80489 2.95835 8.6303 2.95463C7.85022 2.9323 7.07015 2.92114 6.29007 2.90626C6.02261 2.89881 5.75516 2.88765 5.47656 2.88021C3.92383 2.8616 2.89116 2.88021 1.70246 4.00029C1.00782 4.9678 0.833234 5.63761 0.825805 6.82467C0.82209 7.27866 0.82209 7.27866 0.818375 7.74381C0.818375 8.23501 0.818375 8.23501 0.818375 8.73365C0.818375 9.06856 0.818375 9.40718 0.814661 9.75326C0.814661 10.4677 0.814661 11.1785 0.818375 11.8929C0.818375 12.8009 0.814661 13.7126 0.807232 14.6206C0.799802 15.4951 0.803517 16.3658 0.803517 17.2366C0.799802 17.564 0.799802 17.8878 0.796088 18.2227C0.788658 20.4629 0.788658 20.4629 1.95878 22.2602Z" fill="#B1B1B1"/>
<path d="M5.81055 18.9189C5.93685 17.7803 6.28974 17.2853 7.10325 16.4927C7.31127 16.2881 7.51558 16.0834 7.73103 15.875C7.95019 15.6629 8.16936 15.4545 8.39223 15.235C8.6114 15.0229 8.83056 14.807 9.05716 14.5838C9.5995 14.0553 10.1418 13.5269 10.6879 13.0022C10.3201 12.165 9.87438 11.6142 9.22432 10.9742C9.0423 10.7919 8.85657 10.6095 8.66712 10.4197C8.47767 10.2337 8.28451 10.0439 8.08763 9.85039C7.89447 9.66061 7.70131 9.46711 7.50072 9.26988C7.02524 8.79729 6.54605 8.32842 6.06686 7.85955C6.1523 7.60279 6.23402 7.34975 6.32317 7.08554C7.15897 7.45394 7.70874 7.90048 8.34766 8.55169C8.52968 8.73403 8.7117 8.92009 8.90114 9.10987C9.08688 9.29965 9.27632 9.49315 9.46948 9.69038C9.65893 9.88388 9.8521 10.0774 10.049 10.2783C10.5207 10.7584 10.9888 11.2347 11.4568 11.7147C12.2963 11.35 12.8461 10.8998 13.485 10.2523C13.7562 9.97691 13.7562 9.97691 14.0348 9.6941C14.2242 9.5006 14.41 9.31082 14.6031 9.11359C14.7926 8.91637 14.9858 8.72287 15.1826 8.52564C15.6544 8.04561 16.1224 7.56558 16.5942 7.08554C16.8468 7.17113 17.1031 7.25672 17.3631 7.3423C16.9954 8.18329 16.5496 8.73403 15.8996 9.37408C15.7175 9.55641 15.5318 9.73875 15.3461 9.92481C15.1529 10.1146 14.9598 10.3007 14.7629 10.4942C14.5697 10.6877 14.3765 10.8774 14.176 11.0747C13.7005 11.5473 13.2213 12.0198 12.7421 12.4887C13.1136 13.352 13.5816 13.8916 14.2614 14.5391C14.4546 14.7252 14.6514 14.9149 14.852 15.1122C15.2644 15.5066 15.6804 15.9011 16.0927 16.2955C16.2896 16.4853 16.4828 16.6751 16.6834 16.8686C16.9545 17.1253 16.9545 17.1253 17.2257 17.3858C17.6194 17.8882 17.6194 17.8882 17.6194 18.9189C16.8505 18.9189 16.8505 18.9189 16.4902 18.5766C16.3602 18.4129 16.2302 18.2491 16.0964 18.0817C15.2458 17.0621 14.3394 16.1243 13.3996 15.1903C13.2584 15.0489 13.121 14.9112 12.9761 14.7661C12.6418 14.4349 12.3075 14.1037 11.9732 13.7725C11.0816 14.1558 10.5207 14.6582 9.8521 15.3503C9.64779 15.5587 9.4472 15.7671 9.23546 15.9792C9.02744 16.195 8.81571 16.4109 8.60026 16.6341C8.18421 17.0658 7.76817 17.4937 7.34842 17.9217C7.16268 18.1152 6.98066 18.3049 6.7875 18.5022C6.32317 18.9189 6.32317 18.9189 5.81055 18.9189Z" fill="#CECECE"/>
</svg>
