<svg width="19" height="40" viewBox="0 0 19 40" fill="none" xmlns="http://www.w3.org/2000/svg">
<g clip-path="url(#clip0_9027_12087)">
<path d="M14.6472 0.704102H3.37962C1.7461 0.704102 0.421875 2.02833 0.421875 3.66185V36.3379C0.421875 37.9714 1.7461 39.2957 3.37962 39.2957H14.6472C16.2807 39.2957 17.605 37.9714 17.605 36.3379V3.66185C17.605 2.02833 16.2807 0.704102 14.6472 0.704102Z" fill="white"/>
<path d="M14.6472 0.704102H3.37962C1.7461 0.704102 0.421875 2.02833 0.421875 3.66185V36.3379C0.421875 37.9714 1.7461 39.2957 3.37962 39.2957H14.6472C16.2807 39.2957 17.605 37.9714 17.605 36.3379V3.66185C17.605 2.02833 16.2807 0.704102 14.6472 0.704102Z" stroke="#FFE3F3" stroke-width="0.84507"/>
<path d="M2.81641 35.0423C2.81641 34.4648 2.81641 34.176 2.91076 33.9482C3.03655 33.6446 3.27783 33.4033 3.58153 33.2775C3.8093 33.1831 4.09806 33.1831 4.67556 33.1831H13.3516C13.9291 33.1831 14.2179 33.1831 14.4456 33.2775C14.7494 33.4033 14.9906 33.6446 15.1164 33.9482C15.2108 34.176 15.2108 34.4648 15.2108 35.0423C15.2108 35.6198 15.2108 35.9085 15.1164 36.1363C14.9906 36.44 14.7494 36.6813 14.4456 36.8071C14.2179 36.9014 13.9291 36.9014 13.3516 36.9014H4.67556C4.09806 36.9014 3.8093 36.9014 3.58153 36.8071C3.27783 36.6813 3.03655 36.44 2.91076 36.1363C2.81641 35.9085 2.81641 35.6198 2.81641 35.0423Z" fill="#FFE3F3"/>
<g opacity="0.7">
<path d="M9.76305 15.3426C9.63944 15.0088 9.34198 14.7891 9.01364 14.7891C8.68524 14.7891 8.38778 15.0088 8.26417 15.3426L7.08203 18.5919H8.24096V21.1271H9.78626V18.5919H10.9452L9.76305 15.3426Z" fill="#FFE3F3"/>
<path d="M9.01285 14.3664C9.43961 14.3664 9.78553 13.988 9.78553 13.5213C9.78553 13.0546 9.43961 12.6763 9.01285 12.6763C8.58615 12.6763 8.24023 13.0546 8.24023 13.5213C8.24023 13.988 8.58615 14.3664 9.01285 14.3664Z" fill="#FFE3F3"/>
</g>
<g opacity="0.24">
<path d="M12.3953 14.3662L5.63477 21.1268" stroke="black" stroke-width="0.704225" stroke-linecap="round" stroke-linejoin="round"/>
<path d="M5.63477 14.3662L12.3953 21.1268" stroke="black" stroke-width="0.704225" stroke-linecap="round" stroke-linejoin="round"/>
</g>
</g>
<defs>
<clipPath id="clip0_9027_12087">
<rect width="18.0282" height="40" fill="white"/>
</clipPath>
</defs>
</svg>
