<svg width="20" height="20" viewBox="0 0 20 20" fill="none" xmlns="http://www.w3.org/2000/svg">
<path d="M4.44788 10.4175H9.91587C9.94438 10.4175 9.9725 10.4155 10 10.4118C10.0275 10.4155 10.0556 10.4175 10.0842 10.4175H15.5522L18.2722 13.1183C18.5149 13.3593 18.907 13.3579 19.148 13.1152C19.389 12.8725 19.3877 12.4804 19.1449 12.2394L17.31 10.4175H19.3807C19.7228 10.4175 20 10.1402 20 9.79818C20 9.45615 19.7228 9.17888 19.3807 9.17888H17.7164L19.1449 7.76044C19.3876 7.51945 19.389 7.12735 19.148 6.88462C18.907 6.64193 18.5149 6.64051 18.2722 6.8815L15.9585 9.17888H10.0841C10.0556 9.17888 10.0275 9.18082 10 9.18454C9.97245 9.18082 9.94434 9.17888 9.91583 9.17888H4.04154L1.72778 6.8815C1.48509 6.64051 1.09299 6.64189 0.851959 6.88462C0.610969 7.12731 0.612386 7.51945 0.855075 7.76044L2.28362 9.17888H0.619302C0.277272 9.17888 0 9.45615 0 9.79818C0 10.1402 0.277272 10.4175 0.619302 10.4175H2.68996L0.855075 12.2394C0.612386 12.4804 0.610969 12.8725 0.851959 13.1152C1.09299 13.3579 1.48509 13.3593 1.72778 13.1183L4.44788 10.4175Z" fill="#4F5153"/>
<path d="M9.58186 4.44784V9.91583C9.58186 9.94438 9.5838 9.97245 9.58752 9.99996C9.5838 10.0275 9.58186 10.0556 9.58186 10.0841V15.5521L6.88101 18.2722C6.64002 18.5149 6.6414 18.907 6.88413 19.148C7.12682 19.389 7.51896 19.3876 7.75995 19.1449L9.58186 17.31V19.3807C9.58186 19.7227 9.85913 20 10.2011 20C10.5432 20 10.8205 19.7227 10.8205 19.3807V17.7164L12.2389 19.1449C12.4799 19.3876 12.872 19.389 13.1147 19.148C13.3574 18.907 13.3588 18.5149 13.1178 18.2722L10.8205 15.9585V10.0842C10.8205 10.0556 10.8185 10.0275 10.8148 10C10.8185 9.9725 10.8205 9.94438 10.8205 9.91583V4.04154L13.1178 1.72774C13.3588 1.48506 13.3574 1.09295 13.1147 0.85196C12.872 0.61097 12.4799 0.612345 12.2389 0.855034L10.8205 2.28358V0.619261C10.8205 0.277232 10.5432 0 10.2012 0C9.85913 0 9.58186 0.277232 9.58186 0.619261V2.68996L7.75995 0.855034C7.51896 0.612345 7.12682 0.61097 6.88413 0.85196C6.64144 1.09295 6.64002 1.48506 6.88101 1.72774L9.58186 4.44788V4.44784Z" fill="#4F5153"/>
<path d="M5.7784 6.36894L9.64484 10.2354C9.66498 10.2556 9.68622 10.274 9.70834 10.2909C9.72513 10.313 9.74365 10.3342 9.76384 10.3544L13.6303 14.2208L13.6439 18.054C13.6451 18.396 13.9234 18.6723 14.2654 18.6711C14.6074 18.6699 14.8837 18.3916 14.8825 18.0496L14.8733 15.4639L16.3375 16.9281C16.5794 17.1699 16.9715 17.1699 17.2133 16.9281C17.4552 16.6862 17.4552 16.2941 17.2133 16.0522L16.0365 14.8754L18.0496 14.8825C18.3916 14.8837 18.6699 14.6075 18.6711 14.2654C18.6723 13.9234 18.396 13.6451 18.054 13.6439L14.7934 13.6323L10.6397 9.4786C10.6198 9.45867 10.5986 9.44012 10.5762 9.42306C10.5591 9.40067 10.5405 9.37945 10.5206 9.35956L6.36692 5.20577L6.35531 1.94525C6.3541 1.60322 6.07585 1.32692 5.73382 1.32813C5.39179 1.32934 5.11553 1.60763 5.11675 1.94966L5.12387 3.96276L3.94703 2.78592C3.70515 2.54404 3.31304 2.54404 3.0712 2.78592C2.82932 3.02776 2.82932 3.41987 3.0712 3.66175L4.53539 5.12593L1.94961 5.11675C1.60758 5.11553 1.32934 5.39179 1.32813 5.73382C1.32692 6.07585 1.60318 6.35414 1.94525 6.35535L5.7784 6.36894Z" fill="#4F5153"/>
</svg>
