<svg width="504" height="331" viewBox="0 0 504 331" fill="none" xmlns="http://www.w3.org/2000/svg">
<g clip-path="url(#clip0_3826_7025)">
<mask id="mask0_3826_7025" style="mask-type:luminance" maskUnits="userSpaceOnUse" x="0" y="0" width="504" height="331">
<path d="M504 0.65918H0V330.34H504V0.65918Z" fill="white"/>
</mask>
<g mask="url(#mask0_3826_7025)">
<path d="M504 0.65918H0V330.34H504V0.65918Z" fill="white"/>
<path d="M504 0.65918H0V330.34H504V0.65918Z" fill="url(#paint0_radial_3826_7025)"/>
<path d="M577.92 31.6494H73.9199V361.331H577.92V31.6494Z" fill="url(#paint1_linear_3826_7025)"/>
<path d="M177.831 15.165H115.07V280.229H177.831V15.165Z" fill="url(#paint2_linear_3826_7025)"/>
<path d="M283.381 -9.40918H220.619V255.654H283.381V-9.40918Z" fill="url(#paint3_linear_3826_7025)"/>
<path d="M388.93 15.165H326.168V280.229H388.93V15.165Z" fill="url(#paint4_linear_3826_7025)"/>
<path d="M504 235.392H0V322.427H504V235.392Z" fill="url(#paint5_linear_3826_7025)"/>
<path d="M504 329.52V235.392H334.195V329.52H504Z" fill="url(#paint6_linear_3826_7025)"/>
<path d="M0 235.391L0 329.52H169.805V235.391H0Z" fill="url(#paint7_linear_3826_7025)"/>
<path d="M100.801 111.562C100.801 107.192 104.411 103.649 108.865 103.649H177.889C182.343 103.649 185.953 107.192 185.953 111.562V255.654H143.377H100.801V111.562Z" fill="#E0E1E3"/>
<path d="M318.049 111.562C318.049 107.192 321.659 103.649 326.113 103.649H395.137C399.591 103.649 403.201 107.192 403.201 111.562V255.654H318.049V111.562Z" fill="#E0E1E3"/>
<path d="M209.424 111.562C209.424 107.192 213.035 103.649 217.488 103.649H286.513C290.966 103.649 294.577 107.192 294.577 111.562V255.654H209.424V111.562Z" fill="#E0E1E3"/>
<path d="M159.664 123.539H128.999C126.772 123.539 124.967 125.31 124.967 127.495V135.695C124.967 137.88 126.772 139.652 128.999 139.652H159.664C161.891 139.652 163.696 137.88 163.696 135.695V127.495C163.696 125.31 161.891 123.539 159.664 123.539Z" fill="#CDCFD4"/>
<path d="M375.957 123.539H345.292C343.065 123.539 341.26 125.31 341.26 127.495V135.695C341.26 137.88 343.065 139.652 345.292 139.652H375.957C378.184 139.652 379.989 137.88 379.989 135.695V127.495C379.989 125.31 378.184 123.539 375.957 123.539Z" fill="#CDCFD4"/>
<path d="M267.332 123.539H236.667C234.44 123.539 232.635 125.31 232.635 127.495V135.695C232.635 137.88 234.44 139.652 236.667 139.652H267.332C269.559 139.652 271.364 137.88 271.364 135.695V127.495C271.364 125.31 269.559 123.539 267.332 123.539Z" fill="#CDCFD4"/>
<path d="M185.953 255.654V111.562C185.953 107.192 182.343 103.649 177.889 103.649H108.865C104.411 103.649 100.801 107.192 100.801 111.562V255.654" stroke="#CDCFD4" stroke-width="4"/>
<path d="M403.201 255.654V111.562C403.201 107.192 399.591 103.649 395.137 103.649H326.113C321.659 103.649 318.049 107.192 318.049 111.562V255.654" stroke="#CDCFD4" stroke-width="4"/>
<path d="M294.577 255.654V111.562C294.577 107.192 290.966 103.649 286.513 103.649H217.488C213.035 103.649 209.424 107.192 209.424 111.562V255.654" stroke="#CDCFD4" stroke-width="4"/>
<path d="M143.376 152.324C144.48 152.324 145.374 151.447 145.374 150.364C145.374 149.282 144.48 148.404 143.376 148.404C142.273 148.404 141.379 149.282 141.379 150.364C141.379 151.447 142.273 152.324 143.376 152.324Z" fill="white"/>
<path d="M251.999 152.324C253.103 152.324 253.997 151.447 253.997 150.364C253.997 149.282 253.103 148.404 251.999 148.404C250.896 148.404 250.002 149.282 250.002 150.364C250.002 151.447 250.896 152.324 251.999 152.324Z" fill="white"/>
<path d="M360.623 152.324C361.726 152.324 362.62 151.447 362.62 150.364C362.62 149.282 361.726 148.404 360.623 148.404C359.519 148.404 358.625 149.282 358.625 150.364C358.625 151.447 359.519 152.324 360.623 152.324Z" fill="white"/>
<path d="M171.812 174.982C171.812 173.525 173.015 172.345 174.501 172.345H183.797V195.305H174.501C173.015 195.305 171.812 194.123 171.812 192.668V174.982Z" fill="#EFEFF0"/>
<path d="M171.812 174.982C171.812 173.525 173.015 172.345 174.501 172.345H183.797V180.185H174.501C173.015 180.185 171.812 179.004 171.812 177.547V174.982Z" fill="#CDCFD4"/>
<path d="M280.336 174.982C280.336 173.525 281.539 172.345 283.024 172.345H292.322V195.305H283.024C281.539 195.305 280.336 194.123 280.336 192.668V174.982Z" fill="#EFEFF0"/>
<path d="M280.336 174.982C280.336 173.525 281.539 172.345 283.024 172.345H292.322V180.185H283.024C281.539 180.185 280.336 179.004 280.336 177.547V174.982Z" fill="#CDCFD4"/>
<path d="M388.93 174.982C388.93 173.525 390.134 172.345 391.618 172.345H400.915V195.305H391.618C390.134 195.305 388.93 194.123 388.93 192.668V174.982Z" fill="#EFEFF0"/>
<path d="M388.93 174.982C388.93 173.525 390.134 172.345 391.618 172.345H400.915V180.185H391.618C390.134 180.185 388.93 179.004 388.93 177.547V174.982Z" fill="#CDCFD4"/>
<path d="M239.131 187.77L248.32 188.042L253.696 262.467L240.589 264.108C238.965 264.313 237.628 265.459 237.205 267.01L235.384 273.676L220.768 274.665L233.655 192.242C234.066 189.608 236.416 187.69 239.131 187.77Z" fill="#F6C350"/>
<path d="M241.172 187.796L250.503 188.123L255.711 262.467L242.605 264.108C240.981 264.313 239.644 265.459 239.22 267.01L237.399 273.676L222.783 274.665L235.667 192.268C236.079 189.623 238.446 187.701 241.172 187.796Z" fill="#C6971A"/>
<path d="M235.749 193.825L247.06 283.155L259.828 281.836V272.316C259.828 271.013 260.799 269.904 262.112 269.709L273.149 268.06C274.396 267.875 275.607 268.564 276.061 269.719L279.652 278.869L289.732 276.891L273.72 193.388C273.259 190.98 271.169 189.201 268.674 189.093L241.321 187.906C237.996 187.761 235.338 190.585 235.749 193.825Z" fill="#C6971A" stroke="#F7C962" stroke-width="0.5"/>
<path d="M238.439 193.827L249.748 282.907L262.516 281.588V272.316C262.516 271.013 263.487 269.904 264.8 269.709L275.876 268.055C277.105 267.871 278.303 268.539 278.771 269.669L282.34 278.291L292.42 276.313L276.412 193.381C275.948 190.977 273.86 189.201 271.368 189.093L244.012 187.906C240.686 187.761 238.027 190.587 238.439 193.827Z" fill="#F6C350"/>
<path d="M276.064 227.767C276.696 234.915 271.595 241.073 264.826 241.65C258.055 242.226 251.95 237.021 251.319 229.872C250.687 222.723 255.787 216.566 262.557 215.99C269.328 215.414 275.433 220.619 276.064 227.767Z" stroke="#9A7614" stroke-width="2"/>
<path d="M254.633 220.886L273.113 236.546" stroke="#9A7614" stroke-width="2"/>
</g>
</g>
<defs>
<radialGradient id="paint0_radial_3826_7025" cx="0" cy="0" r="1" gradientTransform="matrix(-252 4.22098 -6.45283 -370.891 252 161.277)" gradientUnits="userSpaceOnUse">
<stop offset="0.307292" stop-color="white" stop-opacity="0"/>
<stop offset="1" stop-color="white"/>
</radialGradient>
<linearGradient id="paint1_linear_3826_7025" x1="73.9199" y1="196.49" x2="577.914" y2="205.371" gradientUnits="userSpaceOnUse">
<stop stop-color="white"/>
<stop offset="0.0833333" stop-color="white" stop-opacity="0"/>
<stop offset="0.473958" stop-color="white" stop-opacity="0"/>
<stop offset="0.953125" stop-color="white"/>
</linearGradient>
<linearGradient id="paint2_linear_3826_7025" x1="146.45" y1="15.165" x2="146.45" y2="280.229" gradientUnits="userSpaceOnUse">
<stop stop-color="white"/>
<stop offset="0.5" stop-color="#EFEFF0"/>
<stop offset="1" stop-color="white"/>
</linearGradient>
<linearGradient id="paint3_linear_3826_7025" x1="252" y1="-9.40918" x2="252" y2="255.654" gradientUnits="userSpaceOnUse">
<stop stop-color="white"/>
<stop offset="0.5" stop-color="#EFEFF0"/>
<stop offset="1" stop-color="white"/>
</linearGradient>
<linearGradient id="paint4_linear_3826_7025" x1="357.549" y1="15.165" x2="357.549" y2="280.229" gradientUnits="userSpaceOnUse">
<stop stop-color="white"/>
<stop offset="0.5" stop-color="#EFEFF0"/>
<stop offset="1" stop-color="white"/>
</linearGradient>
<linearGradient id="paint5_linear_3826_7025" x1="252" y1="235.392" x2="252" y2="322.427" gradientUnits="userSpaceOnUse">
<stop stop-color="#EFEFF0"/>
<stop offset="0.697917" stop-color="#D9D9D9" stop-opacity="0"/>
</linearGradient>
<linearGradient id="paint6_linear_3826_7025" x1="504" y1="282.456" x2="334.195" y2="282.456" gradientUnits="userSpaceOnUse">
<stop offset="0.276042" stop-color="white"/>
<stop offset="0.697917" stop-color="white" stop-opacity="0"/>
</linearGradient>
<linearGradient id="paint7_linear_3826_7025" x1="0" y1="282.455" x2="169.805" y2="282.455" gradientUnits="userSpaceOnUse">
<stop offset="0.276042" stop-color="white"/>
<stop offset="0.697917" stop-color="white" stop-opacity="0"/>
</linearGradient>
<clipPath id="clip0_3826_7025">
<rect width="504" height="331" fill="white"/>
</clipPath>
</defs>
</svg>
