<svg width="24" height="24" viewBox="0 0 24 24" fill="none" xmlns="http://www.w3.org/2000/svg">
<g clip-path="url(#clip0_6615_11215)">
<path d="M15.053 14L10 22H8L10.526 14H5.166L3.5 17H2L3 12.5L2 8H3.5L5.167 11H10.527L8 3H10L15.053 11H20.5C20.8978 11 21.2794 11.158 21.5607 11.4393C21.842 11.7206 22 12.1022 22 12.5C22 12.8978 21.842 13.2794 21.5607 13.5607C21.2794 13.842 20.8978 14 20.5 14H15.053Z" fill="#E3E8EE"/>
</g>
<defs>
<clipPath id="clip0_6615_11215">
<rect width="24" height="24" fill="white" transform="matrix(0 1 -1 0 24 0)"/>
</clipPath>
</defs>
</svg>
