<svg width="20" height="20" viewBox="0 0 20 20" fill="none" xmlns="http://www.w3.org/2000/svg">
<mask id="mask0_4158_7593" style="mask-type:luminance" maskUnits="userSpaceOnUse" x="0" y="0" width="20" height="20">
<path d="M20 0H0V20H20V0Z" fill="white"/>
</mask>
<g mask="url(#mask0_4158_7593)">
<path d="M2.1875 6.93896V3.00146C2.1875 1.62646 3.3125 0.501465 4.6875 0.501465H15.3125C16.6875 0.501465 17.8125 1.62646 17.8125 3.00146V6.93896M17.6875 6.93896H17.125C16.625 6.93896 16.25 7.37647 16.25 7.81393V13.2515C16.25 14.7515 15.0625 15.9389 13.5625 15.9389H6.5C5 15.9389 3.8125 14.7515 3.8125 13.2515V7.81393C3.8125 7.31393 3.4375 6.93896 2.9375 6.93896H2.3125C1.3125 6.93896 0.5625 7.75147 0.5625 8.68893V16.9389C0.5625 18.3139 1.6875 19.4389 3.0625 19.4389H17C18.375 19.4389 19.5 18.3139 19.5 16.9389V8.75147C19.5 7.75147 18.6875 6.93896 17.6875 6.93896Z" stroke="#8E98A8" stroke-opacity="0.15" stroke-width="1.38462" stroke-miterlimit="10"/>
</g>
</svg>
