<svg width="28" height="26" viewBox="0 0 28 26" fill="none" xmlns="http://www.w3.org/2000/svg">
<mask id="mask0_4104_9575" style="mask-type:luminance" maskUnits="userSpaceOnUse" x="0" y="0" width="28" height="26">
<path d="M0 0V26H28V0H0Z" fill="white"/>
</mask>
<g mask="url(#mask0_4104_9575)">
<path opacity="0.6" d="M9.71211 3.00637V2.84388H4.54961C2.44961 2.84388 0.787109 4.38762 0.787109 6.33762V19.6626C0.787109 21.6126 2.44961 23.1563 4.54961 23.1563H9.71211C9.79961 24.3751 10.8496 25.3501 12.1621 25.3501H23.4496C25.5496 25.3501 27.2121 23.8063 27.2121 21.8563V4.22512C27.2121 2.27512 25.5496 0.731376 23.4496 0.731376H12.2496C10.8496 0.650126 9.71211 1.70637 9.71211 3.00637Z" fill="#007B28"/>
<path d="M9.71177 23.1561H4.19922C2.27422 23.1561 0.699219 21.6936 0.699219 19.9061V6.09359C0.699219 4.30609 2.27422 2.84359 4.19922 2.84359H9.71177M9.71177 3.00609V3.73734C9.71177 4.38734 10.3243 4.87484 10.9368 4.87484H18.5493C20.6493 4.87484 22.3118 6.41859 22.3118 8.36859V17.5498C22.3118 19.4998 20.6493 21.0436 18.5493 21.0436H10.9368C10.2368 21.0436 9.71177 21.5311 9.71177 22.1811V22.9936C9.71177 24.2936 10.8492 25.2686 12.1617 25.2686H23.7117C25.6367 25.2686 27.2117 23.8061 27.2117 22.0186V3.89984C27.2117 2.11234 25.6367 0.649844 23.7117 0.649844H12.2493C10.8493 0.649844 9.71177 1.70609 9.71177 3.00609Z" stroke="#007B28" stroke-width="1.61538" stroke-miterlimit="10"/>
</g>
</svg>
