<svg width="24" height="24" viewBox="0 0 24 24" fill="none" xmlns="http://www.w3.org/2000/svg">
<g clip-path="url(#clip0_5627_9647)">
<path d="M10 15.053L2 10V8L10 10.526V5.166L7 3.5V2L11.5 3L16 2V3.5L13 5.167V10.527L21 8V10L13 15.053V20.5C13 20.8978 12.842 21.2794 12.5607 21.5607C12.2794 21.842 11.8978 22 11.5 22C11.1022 22 10.7206 21.842 10.4393 21.5607C10.158 21.2794 10 20.8978 10 20.5V15.053Z" fill="#E3E8EE"/>
</g>
<defs>
<clipPath id="clip0_5627_9647">
<rect width="24" height="24" fill="white" transform="matrix(-1 0 0 -1 24 24)"/>
</clipPath>
</defs>
</svg>
