<svg width="44" height="20" viewBox="0 0 44 20" fill="none" xmlns="http://www.w3.org/2000/svg">
<g clip-path="url(#clip0_4158_7588)">
<path d="M43.2246 16.25V3.75C43.2246 1.93782 41.768 0.46875 39.9711 0.46875H4.02743C2.23056 0.46875 0.773907 1.93782 0.773907 3.75V16.25C0.773907 18.0622 2.23056 19.5312 4.02743 19.5312H39.9711C41.768 19.5312 43.2246 18.0622 43.2246 16.25Z" fill="white"/>
<path d="M43.2246 16.25V3.75C43.2246 1.93782 41.768 0.46875 39.9711 0.46875H4.02743C2.23056 0.46875 0.773907 1.93782 0.773907 3.75V16.25C0.773907 18.0622 2.23056 19.5312 4.02743 19.5312H39.9711C41.768 19.5312 43.2246 18.0622 43.2246 16.25Z" stroke="#4F5153" stroke-width="1.5"/>
<path d="M5.45298 3.125C6.08819 3.125 6.40586 3.125 6.65641 3.22967C6.99044 3.36922 7.25586 3.63689 7.39424 3.97381C7.49805 4.22649 7.49805 4.54683 7.49805 5.1875L7.49805 14.8125C7.49805 15.4532 7.49805 15.7735 7.39424 16.0262C7.25586 16.3631 6.99044 16.6308 6.65641 16.7703C6.40586 16.875 6.08819 16.875 5.45298 16.875C4.8177 16.875 4.5001 16.875 4.24955 16.7703C3.91546 16.6308 3.65003 16.3631 3.51165 16.0262C3.4079 15.7735 3.40791 15.4532 3.40791 14.8125L3.40791 5.1875C3.40791 4.54683 3.4079 4.22649 3.51165 3.97381C3.65003 3.63689 3.91546 3.36922 4.24955 3.22967C4.5001 3.125 4.8177 3.125 5.45298 3.125Z" fill="#E2EEE3"/>
</g>
<defs>
<clipPath id="clip0_4158_7588">
<rect width="20" height="44" fill="white" transform="matrix(0 1 -1 0 44 0)"/>
</clipPath>
</defs>
</svg>
