<svg width="40" height="40" viewBox="0 0 40 40" fill="none" xmlns="http://www.w3.org/2000/svg">
<g clip-path="url(#clip0_4104_9585)">
<path d="M0 20C0 31.045 8.955 40 20 40C31.045 40 40 31.045 40 20C40 8.955 31.045 0 20 0C8.955 0 0 8.955 0 20ZM5 20C5 13.4913 9.1925 7.99375 15 5.9175V34.0825C9.1925 32.0062 5 26.5087 5 20ZM22.5 20C22.5 21.3813 21.3813 22.5 20 22.5C18.6187 22.5 17.5 21.3813 17.5 20C17.5 18.6187 18.6187 17.5 20 17.5C21.3813 17.5 22.5 18.6187 22.5 20ZM20 35C20 28.1687 26.5825 22.6362 34.7463 22.52C33.535 29.59 27.4075 35 20 35ZM34.7463 17.48C26.5825 17.3637 20 11.8312 20 5C27.4075 5 33.535 10.41 34.7463 17.48Z" fill="#B0B0B0"/>
</g>
<defs>
<clipPath id="clip0_4104_9585">
<rect width="40" height="40" fill="white" transform="matrix(0 -1 1 0 0 40)"/>
</clipPath>
</defs>
</svg>
